%TF.GenerationSoftware,KiCad,Pcbnew,(6.0.1)*%
%TF.CreationDate,2023-08-02T16:38:55-05:00*%
%TF.ProjectId,board_v5,626f6172-645f-4763-952e-6b696361645f,rev?*%
%TF.SameCoordinates,Original*%
%TF.FileFunction,Soldermask,Bot*%
%TF.FilePolarity,Negative*%
%FSLAX46Y46*%
G04 Gerber Fmt 4.6, Leading zero omitted, Abs format (unit mm)*
G04 Created by KiCad (PCBNEW (6.0.1)) date 2023-08-02 16:38:55*
%MOMM*%
%LPD*%
G01*
G04 APERTURE LIST*
G04 Aperture macros list*
%AMRoundRect*
0 Rectangle with rounded corners*
0 $1 Rounding radius*
0 $2 $3 $4 $5 $6 $7 $8 $9 X,Y pos of 4 corners*
0 Add a 4 corners polygon primitive as box body*
4,1,4,$2,$3,$4,$5,$6,$7,$8,$9,$2,$3,0*
0 Add four circle primitives for the rounded corners*
1,1,$1+$1,$2,$3*
1,1,$1+$1,$4,$5*
1,1,$1+$1,$6,$7*
1,1,$1+$1,$8,$9*
0 Add four rect primitives between the rounded corners*
20,1,$1+$1,$2,$3,$4,$5,0*
20,1,$1+$1,$4,$5,$6,$7,0*
20,1,$1+$1,$6,$7,$8,$9,0*
20,1,$1+$1,$8,$9,$2,$3,0*%
G04 Aperture macros list end*
%ADD10R,1.700000X1.700000*%
%ADD11O,1.700000X1.700000*%
%ADD12C,1.524000*%
%ADD13C,2.700000*%
%ADD14C,1.700000*%
%ADD15RoundRect,0.225000X0.250000X-0.225000X0.250000X0.225000X-0.250000X0.225000X-0.250000X-0.225000X0*%
%ADD16RoundRect,0.100000X0.130000X0.100000X-0.130000X0.100000X-0.130000X-0.100000X0.130000X-0.100000X0*%
%ADD17RoundRect,0.135000X-0.135000X-0.185000X0.135000X-0.185000X0.135000X0.185000X-0.135000X0.185000X0*%
%ADD18RoundRect,0.140000X0.170000X-0.140000X0.170000X0.140000X-0.170000X0.140000X-0.170000X-0.140000X0*%
%ADD19RoundRect,0.200000X0.275000X-0.200000X0.275000X0.200000X-0.275000X0.200000X-0.275000X-0.200000X0*%
%ADD20RoundRect,0.218750X0.381250X-0.218750X0.381250X0.218750X-0.381250X0.218750X-0.381250X-0.218750X0*%
%ADD21RoundRect,0.200000X-0.200000X-0.275000X0.200000X-0.275000X0.200000X0.275000X-0.200000X0.275000X0*%
%ADD22R,0.425000X0.450000*%
%ADD23R,1.150000X1.050000*%
%ADD24R,0.850000X0.300000*%
%ADD25O,0.400000X0.650000*%
%ADD26R,0.400000X0.300000*%
%ADD27R,0.825000X0.230000*%
%ADD28R,1.750000X1.500000*%
%ADD29RoundRect,0.250000X-1.450000X0.250000X-1.450000X-0.250000X1.450000X-0.250000X1.450000X0.250000X0*%
%ADD30RoundRect,0.100000X-0.130000X-0.100000X0.130000X-0.100000X0.130000X0.100000X-0.130000X0.100000X0*%
%ADD31RoundRect,0.200000X-0.275000X0.200000X-0.275000X-0.200000X0.275000X-0.200000X0.275000X0.200000X0*%
%ADD32RoundRect,0.140000X-0.140000X-0.170000X0.140000X-0.170000X0.140000X0.170000X-0.140000X0.170000X0*%
G04 APERTURE END LIST*
D10*
%TO.C,Vpv*%
X117725000Y-41350000D03*
D11*
X117725000Y-38810000D03*
%TD*%
D10*
%TO.C,qp*%
X125075000Y-67150000D03*
D11*
X125075000Y-69690000D03*
%TD*%
D10*
%TO.C,Vgl*%
X129225000Y-41052499D03*
D11*
X126685000Y-41052499D03*
%TD*%
D10*
%TO.C,5V S*%
X158474999Y-75000001D03*
D11*
X155934999Y-75000001D03*
%TD*%
D10*
%TO.C,J7*%
X139174999Y-78000001D03*
D11*
X136634999Y-78000001D03*
%TD*%
D12*
%TO.C,U9*%
X150810000Y-76310000D03*
X150810000Y-68690000D03*
X143190000Y-68690000D03*
X143190000Y-73770000D03*
%TD*%
D10*
%TO.C,Vgh*%
X167070000Y-46530000D03*
D11*
X167070000Y-43990000D03*
%TD*%
D10*
%TO.C,qs*%
X167840000Y-63055000D03*
D11*
X167840000Y-65595000D03*
%TD*%
D10*
%TO.C,J4*%
X127075000Y-85995000D03*
D11*
X124535000Y-85995000D03*
X121995000Y-85995000D03*
X119455000Y-85995000D03*
X116915000Y-85995000D03*
X114375000Y-85995000D03*
X111835000Y-85995000D03*
X109295000Y-85995000D03*
X106755000Y-85995000D03*
X104215000Y-85995000D03*
X127075000Y-88535000D03*
X124535000Y-88535000D03*
X121995000Y-88535000D03*
X119455000Y-88535000D03*
X116915000Y-88535000D03*
X114375000Y-88535000D03*
X111835000Y-88535000D03*
X109295000Y-88535000D03*
X106755000Y-88535000D03*
X104215000Y-88535000D03*
%TD*%
D10*
%TO.C,Vsw*%
X129250000Y-37794999D03*
D11*
X126710000Y-37794999D03*
%TD*%
D13*
%TO.C,J10*%
X179500000Y-62350000D03*
X194800000Y-62350000D03*
%TD*%
D14*
%TO.C,REF\u002A\u002A*%
X157050000Y-48610000D03*
%TD*%
D10*
%TO.C,Vin*%
X120850000Y-41350000D03*
D11*
X120850000Y-38810000D03*
%TD*%
D13*
%TO.C,J2*%
X97150000Y-55950000D03*
X112450000Y-55950000D03*
%TD*%
D10*
%TO.C,TP10*%
X170200000Y-70975000D03*
D11*
X170200000Y-73515000D03*
%TD*%
D10*
%TO.C,Vgl*%
X161630000Y-62300000D03*
D11*
X161630000Y-64840000D03*
%TD*%
D10*
%TO.C,J6*%
X127075000Y-129195000D03*
D11*
X124535000Y-129195000D03*
X121995000Y-129195000D03*
X119455000Y-129195000D03*
X116915000Y-129195000D03*
X114375000Y-129195000D03*
X111835000Y-129195000D03*
X109295000Y-129195000D03*
X106755000Y-129195000D03*
X104215000Y-129195000D03*
X127075000Y-131735000D03*
X124535000Y-131735000D03*
X121995000Y-131735000D03*
X119455000Y-131735000D03*
X116915000Y-131735000D03*
X114375000Y-131735000D03*
X111835000Y-131735000D03*
X109295000Y-131735000D03*
X106755000Y-131735000D03*
X104215000Y-131735000D03*
%TD*%
D13*
%TO.C,J1*%
X97150000Y-43950000D03*
X112450000Y-43950000D03*
%TD*%
D10*
%TO.C,Vout*%
X173482000Y-42926000D03*
D11*
X173482000Y-40386000D03*
%TD*%
D10*
%TO.C,Vgh*%
X129250000Y-44310000D03*
D11*
X126710000Y-44310000D03*
%TD*%
D10*
%TO.C,J3*%
X190575000Y-85995000D03*
D11*
X188035000Y-85995000D03*
X185495000Y-85995000D03*
X182955000Y-85995000D03*
X180415000Y-85995000D03*
X177875000Y-85995000D03*
X175335000Y-85995000D03*
X172795000Y-85995000D03*
X170255000Y-85995000D03*
X167715000Y-85995000D03*
X190575000Y-88535000D03*
X188035000Y-88535000D03*
X185495000Y-88535000D03*
X182955000Y-88535000D03*
X180415000Y-88535000D03*
X177875000Y-88535000D03*
X175335000Y-88535000D03*
X172795000Y-88535000D03*
X170255000Y-88535000D03*
X167715000Y-88535000D03*
%TD*%
D10*
%TO.C,5V P*%
X133400000Y-72425000D03*
D11*
X133400000Y-74965000D03*
%TD*%
D10*
%TO.C,J5*%
X190570000Y-129190000D03*
D11*
X188030000Y-129190000D03*
X185490000Y-129190000D03*
X182950000Y-129190000D03*
X180410000Y-129190000D03*
X177870000Y-129190000D03*
X175330000Y-129190000D03*
X172790000Y-129190000D03*
X170250000Y-129190000D03*
X167710000Y-129190000D03*
X190570000Y-131730000D03*
X188030000Y-131730000D03*
X185490000Y-131730000D03*
X182950000Y-131730000D03*
X180410000Y-131730000D03*
X177870000Y-131730000D03*
X175330000Y-131730000D03*
X172790000Y-131730000D03*
X170250000Y-131730000D03*
X167710000Y-131730000D03*
%TD*%
D13*
%TO.C,J8*%
X194818000Y-51054000D03*
X179518000Y-51054000D03*
%TD*%
D14*
%TO.C,REF\u002A\u002A*%
X157050000Y-53150000D03*
%TD*%
D10*
%TO.C,Vsw*%
X157400000Y-62300000D03*
D11*
X157400000Y-64840000D03*
%TD*%
D13*
%TO.C,J9*%
X97150000Y-67800000D03*
X112450000Y-67800000D03*
%TD*%
D10*
%TO.C,Vc*%
X128700000Y-67150000D03*
D11*
X128700000Y-69690000D03*
%TD*%
D10*
%TO.C,Vc*%
X163750000Y-46530000D03*
D11*
X163750000Y-43990000D03*
%TD*%
D15*
%TO.C,C16*%
X160920000Y-49895000D03*
X160920000Y-48345000D03*
%TD*%
D16*
%TO.C,R22*%
X162795000Y-55770000D03*
X162155000Y-55770000D03*
%TD*%
D17*
%TO.C,R1*%
X130394520Y-50445000D03*
X131414520Y-50445000D03*
%TD*%
D18*
%TO.C,C4*%
X131474520Y-49275000D03*
X131474520Y-48315000D03*
%TD*%
D19*
%TO.C,R7*%
X157040000Y-51670000D03*
X157040000Y-50020000D03*
%TD*%
D20*
%TO.C,Llk1*%
X157030000Y-57525000D03*
X157030000Y-55400000D03*
%TD*%
D15*
%TO.C,C10*%
X160920000Y-53018000D03*
X160920000Y-51468000D03*
%TD*%
D21*
%TO.C,R13*%
X166275000Y-69150000D03*
X167925000Y-69150000D03*
%TD*%
D22*
%TO.C,U4*%
X161140000Y-56820000D03*
X161140000Y-57470000D03*
X161140000Y-58070000D03*
X159140000Y-58120000D03*
X159140000Y-57520000D03*
X159140000Y-56870000D03*
D23*
X160140000Y-57120000D03*
D24*
X160140000Y-58120000D03*
%TD*%
D15*
%TO.C,C11*%
X159120000Y-49895000D03*
X159120000Y-48345000D03*
%TD*%
D25*
%TO.C,U8*%
X164365000Y-54630000D03*
D26*
X164365000Y-54430000D03*
X165015000Y-54430000D03*
D25*
X165015000Y-54630000D03*
X165665000Y-54630000D03*
D26*
X165665000Y-54430000D03*
D25*
X166315000Y-54630000D03*
D26*
X166315000Y-54430000D03*
X166315000Y-57930000D03*
D25*
X166315000Y-57730000D03*
X165665000Y-57730000D03*
D26*
X165665000Y-57930000D03*
D25*
X165015000Y-57730000D03*
D26*
X165015000Y-57930000D03*
D25*
X164365000Y-57730000D03*
D26*
X164365000Y-57930000D03*
D27*
X164060000Y-56500000D03*
X166619753Y-55860000D03*
D28*
X165340000Y-56180000D03*
D27*
X164059753Y-55860000D03*
X166620000Y-56500000D03*
%TD*%
D22*
%TO.C,U3*%
X161140000Y-54420000D03*
X161140000Y-55070000D03*
X161140000Y-55670000D03*
X159140000Y-55720000D03*
X159140000Y-55120000D03*
X159140000Y-54470000D03*
D23*
X160140000Y-54720000D03*
D24*
X160140000Y-55720000D03*
%TD*%
D29*
%TO.C,R14*%
X186944000Y-59822000D03*
X186944000Y-61322000D03*
%TD*%
D30*
%TO.C,R4*%
X162155000Y-57983000D03*
X162795000Y-57983000D03*
%TD*%
D15*
%TO.C,C15*%
X159120000Y-53018000D03*
X159120000Y-51468000D03*
%TD*%
D31*
%TO.C,R18*%
X173840000Y-54307500D03*
X173840000Y-55957500D03*
%TD*%
%TO.C,R12*%
X164180000Y-70490000D03*
X164180000Y-72140000D03*
%TD*%
D32*
%TO.C,C1*%
X130145000Y-46400000D03*
X131105000Y-46400000D03*
%TD*%
D31*
%TO.C,R17*%
X173900000Y-57712500D03*
X173900000Y-59362500D03*
%TD*%
G36*
X161592121Y-46720002D02*
G01*
X161638614Y-46773658D01*
X161650000Y-46826000D01*
X161650000Y-48774000D01*
X161629998Y-48842121D01*
X161576342Y-48888614D01*
X161524000Y-48900000D01*
X158626000Y-48900000D01*
X158557879Y-48879998D01*
X158511386Y-48826342D01*
X158500000Y-48774000D01*
X158500000Y-46826000D01*
X158520002Y-46757879D01*
X158573658Y-46711386D01*
X158626000Y-46700000D01*
X161524000Y-46700000D01*
X161592121Y-46720002D01*
G37*
G36*
X161542121Y-52420002D02*
G01*
X161588614Y-52473658D01*
X161600000Y-52526000D01*
X161600000Y-53674000D01*
X161579998Y-53742121D01*
X161526342Y-53788614D01*
X161474000Y-53800000D01*
X158576000Y-53800000D01*
X158507879Y-53779998D01*
X158461386Y-53726342D01*
X158450000Y-53674000D01*
X158450000Y-52526000D01*
X158470002Y-52457879D01*
X158523658Y-52411386D01*
X158576000Y-52400000D01*
X161474000Y-52400000D01*
X161542121Y-52420002D01*
G37*
G36*
X161542121Y-49370002D02*
G01*
X161588614Y-49423658D01*
X161600000Y-49476000D01*
X161600000Y-51824000D01*
X161579998Y-51892121D01*
X161526342Y-51938614D01*
X161474000Y-51950000D01*
X158576000Y-51950000D01*
X158507879Y-51929998D01*
X158461386Y-51876342D01*
X158450000Y-51824000D01*
X158450000Y-49476000D01*
X158470002Y-49407879D01*
X158523658Y-49361386D01*
X158576000Y-49350000D01*
X161474000Y-49350000D01*
X161542121Y-49370002D01*
G37*
G36*
X157817121Y-54720002D02*
G01*
X157863614Y-54773658D01*
X157875000Y-54826000D01*
X157875000Y-55849000D01*
X157854998Y-55917121D01*
X157801342Y-55963614D01*
X157749000Y-55975000D01*
X156351000Y-55975000D01*
X156282879Y-55954998D01*
X156236386Y-55901342D01*
X156225000Y-55849000D01*
X156225000Y-54826000D01*
X156245002Y-54757879D01*
X156298658Y-54711386D01*
X156351000Y-54700000D01*
X157749000Y-54700000D01*
X157817121Y-54720002D01*
G37*
G36*
X157792121Y-57095002D02*
G01*
X157838614Y-57148658D01*
X157850000Y-57201000D01*
X157850000Y-58699000D01*
X157829998Y-58767121D01*
X157776342Y-58813614D01*
X157724000Y-58825000D01*
X156376000Y-58825000D01*
X156307879Y-58804998D01*
X156261386Y-58751342D01*
X156250000Y-58699000D01*
X156250000Y-57201000D01*
X156270002Y-57132879D01*
X156323658Y-57086386D01*
X156376000Y-57075000D01*
X157724000Y-57075000D01*
X157792121Y-57095002D01*
G37*
M02*
