%TF.GenerationSoftware,KiCad,Pcbnew,(6.0.1)*%
%TF.CreationDate,2023-08-02T16:38:55-05:00*%
%TF.ProjectId,board_v5,626f6172-645f-4763-952e-6b696361645f,rev?*%
%TF.SameCoordinates,Original*%
%TF.FileFunction,Paste,Bot*%
%TF.FilePolarity,Positive*%
%FSLAX46Y46*%
G04 Gerber Fmt 4.6, Leading zero omitted, Abs format (unit mm)*
G04 Created by KiCad (PCBNEW (6.0.1)) date 2023-08-02 16:38:55*
%MOMM*%
%LPD*%
G01*
G04 APERTURE LIST*
G04 Aperture macros list*
%AMRoundRect*
0 Rectangle with rounded corners*
0 $1 Rounding radius*
0 $2 $3 $4 $5 $6 $7 $8 $9 X,Y pos of 4 corners*
0 Add a 4 corners polygon primitive as box body*
4,1,4,$2,$3,$4,$5,$6,$7,$8,$9,$2,$3,0*
0 Add four circle primitives for the rounded corners*
1,1,$1+$1,$2,$3*
1,1,$1+$1,$4,$5*
1,1,$1+$1,$6,$7*
1,1,$1+$1,$8,$9*
0 Add four rect primitives between the rounded corners*
20,1,$1+$1,$2,$3,$4,$5,0*
20,1,$1+$1,$4,$5,$6,$7,0*
20,1,$1+$1,$6,$7,$8,$9,0*
20,1,$1+$1,$8,$9,$2,$3,0*%
G04 Aperture macros list end*
%ADD10RoundRect,0.225000X0.250000X-0.225000X0.250000X0.225000X-0.250000X0.225000X-0.250000X-0.225000X0*%
%ADD11RoundRect,0.079500X0.079500X0.100500X-0.079500X0.100500X-0.079500X-0.100500X0.079500X-0.100500X0*%
%ADD12RoundRect,0.135000X-0.135000X-0.185000X0.135000X-0.185000X0.135000X0.185000X-0.135000X0.185000X0*%
%ADD13RoundRect,0.140000X0.170000X-0.140000X0.170000X0.140000X-0.170000X0.140000X-0.170000X-0.140000X0*%
%ADD14RoundRect,0.200000X0.275000X-0.200000X0.275000X0.200000X-0.275000X0.200000X-0.275000X-0.200000X0*%
%ADD15RoundRect,0.218750X0.381250X-0.218750X0.381250X0.218750X-0.381250X0.218750X-0.381250X-0.218750X0*%
%ADD16RoundRect,0.200000X-0.200000X-0.275000X0.200000X-0.275000X0.200000X0.275000X-0.200000X0.275000X0*%
%ADD17R,0.425000X0.450000*%
%ADD18R,1.150000X1.050000*%
%ADD19R,0.850000X0.300000*%
%ADD20O,0.300000X0.550000*%
%ADD21R,0.300000X0.200000*%
%ADD22RoundRect,0.250000X-1.450000X0.250000X-1.450000X-0.250000X1.450000X-0.250000X1.450000X0.250000X0*%
%ADD23RoundRect,0.079500X-0.079500X-0.100500X0.079500X-0.100500X0.079500X0.100500X-0.079500X0.100500X0*%
%ADD24RoundRect,0.200000X-0.275000X0.200000X-0.275000X-0.200000X0.275000X-0.200000X0.275000X0.200000X0*%
%ADD25RoundRect,0.140000X-0.140000X-0.170000X0.140000X-0.170000X0.140000X0.170000X-0.140000X0.170000X0*%
G04 APERTURE END LIST*
D10*
%TO.C,C16*%
X160920000Y-49895000D03*
X160920000Y-48345000D03*
%TD*%
D11*
%TO.C,R22*%
X162820000Y-55770000D03*
X162130000Y-55770000D03*
%TD*%
D12*
%TO.C,R1*%
X130394520Y-50445000D03*
X131414520Y-50445000D03*
%TD*%
D13*
%TO.C,C4*%
X131474520Y-49275000D03*
X131474520Y-48315000D03*
%TD*%
D14*
%TO.C,R7*%
X157040000Y-51670000D03*
X157040000Y-50020000D03*
%TD*%
D15*
%TO.C,Llk1*%
X157030000Y-57525000D03*
X157030000Y-55400000D03*
%TD*%
D10*
%TO.C,C10*%
X160920000Y-53018000D03*
X160920000Y-51468000D03*
%TD*%
D16*
%TO.C,R13*%
X166275000Y-69150000D03*
X167925000Y-69150000D03*
%TD*%
D17*
%TO.C,U4*%
X161140000Y-56820000D03*
X161140000Y-57470000D03*
X161140000Y-58070000D03*
X159140000Y-58120000D03*
X159140000Y-57520000D03*
X159140000Y-56870000D03*
D18*
X160140000Y-57120000D03*
D19*
X160140000Y-58120000D03*
%TD*%
D10*
%TO.C,C11*%
X159120000Y-49895000D03*
X159120000Y-48345000D03*
%TD*%
D20*
%TO.C,U8*%
X164365000Y-54630000D03*
D21*
X164365000Y-54430000D03*
X165015000Y-54430000D03*
D20*
X165015000Y-54630000D03*
X165665000Y-54630000D03*
D21*
X165665000Y-54430000D03*
D20*
X166315000Y-54630000D03*
D21*
X166315000Y-54430000D03*
X166315000Y-57930000D03*
D20*
X166315000Y-57730000D03*
X165665000Y-57730000D03*
D21*
X165665000Y-57930000D03*
D20*
X165015000Y-57730000D03*
D21*
X165015000Y-57930000D03*
D20*
X164365000Y-57730000D03*
D21*
X164365000Y-57930000D03*
%TD*%
D17*
%TO.C,U3*%
X161140000Y-54420000D03*
X161140000Y-55070000D03*
X161140000Y-55670000D03*
X159140000Y-55720000D03*
X159140000Y-55120000D03*
X159140000Y-54470000D03*
D18*
X160140000Y-54720000D03*
D19*
X160140000Y-55720000D03*
%TD*%
D22*
%TO.C,R14*%
X186944000Y-59822000D03*
X186944000Y-61322000D03*
%TD*%
D23*
%TO.C,R4*%
X162820000Y-57983000D03*
X162130000Y-57983000D03*
%TD*%
D10*
%TO.C,C15*%
X159120000Y-53018000D03*
X159120000Y-51468000D03*
%TD*%
D24*
%TO.C,R18*%
X173840000Y-54307500D03*
X173840000Y-55957500D03*
%TD*%
%TO.C,R12*%
X164180000Y-70490000D03*
X164180000Y-72140000D03*
%TD*%
D25*
%TO.C,C1*%
X130145000Y-46400000D03*
X131105000Y-46400000D03*
%TD*%
D24*
%TO.C,R17*%
X173900000Y-57712500D03*
X173900000Y-59362500D03*
%TD*%
M02*
