%TF.GenerationSoftware,KiCad,Pcbnew,(6.0.1)*%
%TF.CreationDate,2023-08-02T16:38:55-05:00*%
%TF.ProjectId,board_v5,626f6172-645f-4763-952e-6b696361645f,rev?*%
%TF.SameCoordinates,Original*%
%TF.FileFunction,Legend,Top*%
%TF.FilePolarity,Positive*%
%FSLAX46Y46*%
G04 Gerber Fmt 4.6, Leading zero omitted, Abs format (unit mm)*
G04 Created by KiCad (PCBNEW (6.0.1)) date 2023-08-02 16:38:55*
%MOMM*%
%LPD*%
G01*
G04 APERTURE LIST*
%ADD10C,0.150000*%
%ADD11C,0.300000*%
%ADD12C,0.125000*%
%ADD13C,0.254000*%
%ADD14C,0.120000*%
%ADD15C,0.200000*%
%ADD16C,0.100000*%
%ADD17C,0.010000*%
G04 APERTURE END LIST*
D10*
X172914285Y-70459523D02*
X171914285Y-70459523D01*
X172295238Y-70459523D02*
X172247619Y-70364285D01*
X172247619Y-70173809D01*
X172295238Y-70078571D01*
X172342857Y-70030952D01*
X172438095Y-69983333D01*
X172723809Y-69983333D01*
X172819047Y-70030952D01*
X172866666Y-70078571D01*
X172914285Y-70173809D01*
X172914285Y-70364285D01*
X172866666Y-70459523D01*
X172295238Y-70888095D02*
X172247619Y-70983333D01*
X172247619Y-71173809D01*
X172295238Y-71269047D01*
X172390476Y-71316666D01*
X172438095Y-71316666D01*
X172533333Y-71269047D01*
X172580952Y-71173809D01*
X172580952Y-71030952D01*
X172628571Y-70935714D01*
X172723809Y-70888095D01*
X172771428Y-70888095D01*
X172866666Y-70935714D01*
X172914285Y-71030952D01*
X172914285Y-71173809D01*
X172866666Y-71269047D01*
X172152380Y-71507142D02*
X172152380Y-72269047D01*
X172295238Y-72888095D02*
X172247619Y-72792857D01*
X172247619Y-72602380D01*
X172295238Y-72507142D01*
X172390476Y-72459523D01*
X172771428Y-72459523D01*
X172866666Y-72507142D01*
X172914285Y-72602380D01*
X172914285Y-72792857D01*
X172866666Y-72888095D01*
X172771428Y-72935714D01*
X172676190Y-72935714D01*
X172580952Y-72459523D01*
X172247619Y-73269047D02*
X172914285Y-73792857D01*
X172914285Y-73269047D02*
X172247619Y-73792857D01*
X172914285Y-74030952D02*
X172914285Y-74411904D01*
X173247619Y-74173809D02*
X172390476Y-74173809D01*
X172295238Y-74221428D01*
X172247619Y-74316666D01*
X172247619Y-74411904D01*
D11*
X129535711Y-104488570D02*
X129535711Y-102988570D01*
X130035711Y-104059999D01*
X130535711Y-102988570D01*
X130535711Y-104488570D01*
X131249997Y-104345713D02*
X131321425Y-104417141D01*
X131249997Y-104488570D01*
X131178568Y-104417141D01*
X131249997Y-104345713D01*
X131249997Y-104488570D01*
X133035711Y-104417141D02*
X133249997Y-104488570D01*
X133607139Y-104488570D01*
X133749997Y-104417141D01*
X133821425Y-104345713D01*
X133892854Y-104202856D01*
X133892854Y-104059999D01*
X133821425Y-103917141D01*
X133749997Y-103845713D01*
X133607139Y-103774284D01*
X133321425Y-103702856D01*
X133178568Y-103631427D01*
X133107139Y-103559999D01*
X133035711Y-103417141D01*
X133035711Y-103274284D01*
X133107139Y-103131427D01*
X133178568Y-103059999D01*
X133321425Y-102988570D01*
X133678568Y-102988570D01*
X133892854Y-103059999D01*
X134749997Y-104488570D02*
X134607139Y-104417141D01*
X134535711Y-104345713D01*
X134464282Y-104202856D01*
X134464282Y-103774284D01*
X134535711Y-103631427D01*
X134607139Y-103559999D01*
X134749997Y-103488570D01*
X134964282Y-103488570D01*
X135107139Y-103559999D01*
X135178568Y-103631427D01*
X135249997Y-103774284D01*
X135249997Y-104202856D01*
X135178568Y-104345713D01*
X135107139Y-104417141D01*
X134964282Y-104488570D01*
X134749997Y-104488570D01*
X136107139Y-104488570D02*
X135964282Y-104417141D01*
X135892854Y-104274284D01*
X135892854Y-102988570D01*
X136892854Y-104488570D02*
X136749997Y-104417141D01*
X136678568Y-104345713D01*
X136607139Y-104202856D01*
X136607139Y-103774284D01*
X136678568Y-103631427D01*
X136749997Y-103559999D01*
X136892854Y-103488570D01*
X137107139Y-103488570D01*
X137249997Y-103559999D01*
X137321425Y-103631427D01*
X137392854Y-103774284D01*
X137392854Y-104202856D01*
X137321425Y-104345713D01*
X137249997Y-104417141D01*
X137107139Y-104488570D01*
X136892854Y-104488570D01*
X138035711Y-104488570D02*
X138035711Y-103488570D01*
X138035711Y-103631427D02*
X138107139Y-103559999D01*
X138249997Y-103488570D01*
X138464282Y-103488570D01*
X138607139Y-103559999D01*
X138678568Y-103702856D01*
X138678568Y-104488570D01*
X138678568Y-103702856D02*
X138749997Y-103559999D01*
X138892854Y-103488570D01*
X139107139Y-103488570D01*
X139249997Y-103559999D01*
X139321425Y-103702856D01*
X139321425Y-104488570D01*
X140607139Y-104417141D02*
X140464282Y-104488570D01*
X140178568Y-104488570D01*
X140035711Y-104417141D01*
X139964282Y-104274284D01*
X139964282Y-103702856D01*
X140035711Y-103559999D01*
X140178568Y-103488570D01*
X140464282Y-103488570D01*
X140607139Y-103559999D01*
X140678568Y-103702856D01*
X140678568Y-103845713D01*
X139964282Y-103988570D01*
X141321425Y-103488570D02*
X141321425Y-104488570D01*
X141321425Y-103631427D02*
X141392854Y-103559999D01*
X141535711Y-103488570D01*
X141749997Y-103488570D01*
X141892854Y-103559999D01*
X141964282Y-103702856D01*
X141964282Y-104488570D01*
X142464282Y-103488570D02*
X143035711Y-103488570D01*
X142678568Y-102988570D02*
X142678568Y-104274284D01*
X142749997Y-104417141D01*
X142892854Y-104488570D01*
X143035711Y-104488570D01*
X143464282Y-104417141D02*
X143607139Y-104488570D01*
X143892854Y-104488570D01*
X144035711Y-104417141D01*
X144107139Y-104274284D01*
X144107139Y-104202856D01*
X144035711Y-104059999D01*
X143892854Y-103988570D01*
X143678568Y-103988570D01*
X143535711Y-103917141D01*
X143464282Y-103774284D01*
X143464282Y-103702856D01*
X143535711Y-103559999D01*
X143678568Y-103488570D01*
X143892854Y-103488570D01*
X144035711Y-103559999D01*
X145321425Y-104417141D02*
X145178568Y-104488570D01*
X144892854Y-104488570D01*
X144749997Y-104417141D01*
X144678568Y-104274284D01*
X144678568Y-103702856D01*
X144749997Y-103559999D01*
X144892854Y-103488570D01*
X145178568Y-103488570D01*
X145321425Y-103559999D01*
X145392854Y-103702856D01*
X145392854Y-103845713D01*
X144678568Y-103988570D01*
X145892854Y-103488570D02*
X146249997Y-104488570D01*
X146607139Y-103488570D01*
X149535711Y-104488570D02*
X149464282Y-104488570D01*
X149321425Y-104417141D01*
X149107139Y-104202856D01*
X148749997Y-103774284D01*
X148607139Y-103559999D01*
X148535711Y-103345713D01*
X148535711Y-103202856D01*
X148607139Y-103059999D01*
X148749997Y-102988570D01*
X148821425Y-102988570D01*
X148964282Y-103059999D01*
X149035711Y-103202856D01*
X149035711Y-103274284D01*
X148964282Y-103417141D01*
X148892854Y-103488570D01*
X148464282Y-103774284D01*
X148392854Y-103845713D01*
X148321425Y-103988570D01*
X148321425Y-104202856D01*
X148392854Y-104345713D01*
X148464282Y-104417141D01*
X148607139Y-104488570D01*
X148821425Y-104488570D01*
X148964282Y-104417141D01*
X149035711Y-104345713D01*
X149249997Y-104059999D01*
X149321425Y-103845713D01*
X149321425Y-103702856D01*
X151249997Y-104059999D02*
X151964282Y-104059999D01*
X151107139Y-104488570D02*
X151607139Y-102988570D01*
X152107139Y-104488570D01*
X152607139Y-104345713D02*
X152678568Y-104417141D01*
X152607139Y-104488570D01*
X152535711Y-104417141D01*
X152607139Y-104345713D01*
X152607139Y-104488570D01*
X154464282Y-104488570D02*
X154464282Y-102988570D01*
X154464282Y-103702856D02*
X155321425Y-103702856D01*
X155321425Y-104488570D02*
X155321425Y-102988570D01*
X156678568Y-104488570D02*
X156678568Y-103702856D01*
X156607139Y-103559999D01*
X156464282Y-103488570D01*
X156178568Y-103488570D01*
X156035711Y-103559999D01*
X156678568Y-104417141D02*
X156535711Y-104488570D01*
X156178568Y-104488570D01*
X156035711Y-104417141D01*
X155964282Y-104274284D01*
X155964282Y-104131427D01*
X156035711Y-103988570D01*
X156178568Y-103917141D01*
X156535711Y-103917141D01*
X156678568Y-103845713D01*
X157392854Y-103488570D02*
X157392854Y-104488570D01*
X157392854Y-103631427D02*
X157464282Y-103559999D01*
X157607139Y-103488570D01*
X157821425Y-103488570D01*
X157964282Y-103559999D01*
X158035711Y-103702856D01*
X158035711Y-104488570D01*
X158678568Y-104417141D02*
X158821425Y-104488570D01*
X159107139Y-104488570D01*
X159249997Y-104417141D01*
X159321425Y-104274284D01*
X159321425Y-104202856D01*
X159249997Y-104059999D01*
X159107139Y-103988570D01*
X158892854Y-103988570D01*
X158749997Y-103917141D01*
X158678568Y-103774284D01*
X158678568Y-103702856D01*
X158749997Y-103559999D01*
X158892854Y-103488570D01*
X159107139Y-103488570D01*
X159249997Y-103559999D01*
X160178568Y-104488570D02*
X160035711Y-104417141D01*
X159964282Y-104345713D01*
X159892854Y-104202856D01*
X159892854Y-103774284D01*
X159964282Y-103631427D01*
X160035711Y-103559999D01*
X160178568Y-103488570D01*
X160392854Y-103488570D01*
X160535711Y-103559999D01*
X160607139Y-103631427D01*
X160678568Y-103774284D01*
X160678568Y-104202856D01*
X160607139Y-104345713D01*
X160535711Y-104417141D01*
X160392854Y-104488570D01*
X160178568Y-104488570D01*
X161321425Y-103488570D02*
X161321425Y-104488570D01*
X161321425Y-103631427D02*
X161392854Y-103559999D01*
X161535711Y-103488570D01*
X161749997Y-103488570D01*
X161892854Y-103559999D01*
X161964282Y-103702856D01*
X161964282Y-104488570D01*
X135785711Y-105403570D02*
X135785711Y-106617856D01*
X135857139Y-106760713D01*
X135928568Y-106832141D01*
X136071425Y-106903570D01*
X136357139Y-106903570D01*
X136499997Y-106832141D01*
X136571425Y-106760713D01*
X136642854Y-106617856D01*
X136642854Y-105403570D01*
X137142854Y-105403570D02*
X137999997Y-105403570D01*
X137571425Y-106903570D02*
X137571425Y-105403570D01*
X139642854Y-106903570D02*
X139642854Y-105403570D01*
X140214282Y-105403570D01*
X140357139Y-105474999D01*
X140428568Y-105546427D01*
X140499997Y-105689284D01*
X140499997Y-105903570D01*
X140428568Y-106046427D01*
X140357139Y-106117856D01*
X140214282Y-106189284D01*
X139642854Y-106189284D01*
X141142854Y-106117856D02*
X141642854Y-106117856D01*
X141857139Y-106903570D02*
X141142854Y-106903570D01*
X141142854Y-105403570D01*
X141857139Y-105403570D01*
X142499997Y-106903570D02*
X142499997Y-105403570D01*
X142999997Y-106474999D01*
X143499997Y-105403570D01*
X143499997Y-106903570D01*
X144999997Y-105474999D02*
X144857139Y-105403570D01*
X144642854Y-105403570D01*
X144428568Y-105474999D01*
X144285711Y-105617856D01*
X144214282Y-105760713D01*
X144142854Y-106046427D01*
X144142854Y-106260713D01*
X144214282Y-106546427D01*
X144285711Y-106689284D01*
X144428568Y-106832141D01*
X144642854Y-106903570D01*
X144785711Y-106903570D01*
X144999997Y-106832141D01*
X145071425Y-106760713D01*
X145071425Y-106260713D01*
X144785711Y-106260713D01*
X146857139Y-106903570D02*
X146857139Y-105403570D01*
X147214282Y-105403570D01*
X147428568Y-105474999D01*
X147571425Y-105617856D01*
X147642854Y-105760713D01*
X147714282Y-106046427D01*
X147714282Y-106260713D01*
X147642854Y-106546427D01*
X147571425Y-106689284D01*
X147428568Y-106832141D01*
X147214282Y-106903570D01*
X146857139Y-106903570D01*
X148285711Y-106474999D02*
X148999997Y-106474999D01*
X148142854Y-106903570D02*
X148642854Y-105403570D01*
X149142854Y-106903570D01*
X149642854Y-106903570D02*
X149642854Y-105403570D01*
X149642854Y-106117856D02*
X150499997Y-106117856D01*
X150499997Y-106903570D02*
X150499997Y-105403570D01*
X151714282Y-106117856D02*
X151928568Y-106189284D01*
X151999997Y-106260713D01*
X152071425Y-106403570D01*
X152071425Y-106617856D01*
X151999997Y-106760713D01*
X151928568Y-106832141D01*
X151785711Y-106903570D01*
X151214282Y-106903570D01*
X151214282Y-105403570D01*
X151714282Y-105403570D01*
X151857139Y-105474999D01*
X151928568Y-105546427D01*
X151999997Y-105689284D01*
X151999997Y-105832141D01*
X151928568Y-105974999D01*
X151857139Y-106046427D01*
X151714282Y-106117856D01*
X151214282Y-106117856D01*
X153714282Y-105903570D02*
X154071425Y-106903570D01*
X154428568Y-105903570D01*
X155714282Y-105403570D02*
X154999997Y-105403570D01*
X154928568Y-106117856D01*
X154999997Y-106046427D01*
X155142854Y-105974999D01*
X155499997Y-105974999D01*
X155642854Y-106046427D01*
X155714282Y-106117856D01*
X155785711Y-106260713D01*
X155785711Y-106617856D01*
X155714282Y-106760713D01*
X155642854Y-106832141D01*
X155499997Y-106903570D01*
X155142854Y-106903570D01*
X154999997Y-106832141D01*
X154928568Y-106760713D01*
X143392854Y-108461427D02*
X143249997Y-108389999D01*
X143178568Y-108318570D01*
X143107139Y-108175713D01*
X143107139Y-108104284D01*
X143178568Y-107961427D01*
X143249997Y-107889999D01*
X143392854Y-107818570D01*
X143678568Y-107818570D01*
X143821425Y-107889999D01*
X143892854Y-107961427D01*
X143964282Y-108104284D01*
X143964282Y-108175713D01*
X143892854Y-108318570D01*
X143821425Y-108389999D01*
X143678568Y-108461427D01*
X143392854Y-108461427D01*
X143249997Y-108532856D01*
X143178568Y-108604284D01*
X143107139Y-108747141D01*
X143107139Y-109032856D01*
X143178568Y-109175713D01*
X143249997Y-109247141D01*
X143392854Y-109318570D01*
X143678568Y-109318570D01*
X143821425Y-109247141D01*
X143892854Y-109175713D01*
X143964282Y-109032856D01*
X143964282Y-108747141D01*
X143892854Y-108604284D01*
X143821425Y-108532856D01*
X143678568Y-108461427D01*
X145678568Y-107747141D02*
X144392854Y-109675713D01*
X146107139Y-107961427D02*
X146178568Y-107889999D01*
X146321425Y-107818570D01*
X146678568Y-107818570D01*
X146821425Y-107889999D01*
X146892854Y-107961427D01*
X146964282Y-108104284D01*
X146964282Y-108247141D01*
X146892854Y-108461427D01*
X146035711Y-109318570D01*
X146964282Y-109318570D01*
X147464282Y-107818570D02*
X148392854Y-107818570D01*
X147892854Y-108389999D01*
X148107139Y-108389999D01*
X148249997Y-108461427D01*
X148321425Y-108532856D01*
X148392854Y-108675713D01*
X148392854Y-109032856D01*
X148321425Y-109175713D01*
X148249997Y-109247141D01*
X148107139Y-109318570D01*
X147678568Y-109318570D01*
X147535711Y-109247141D01*
X147464282Y-109175713D01*
D10*
%TO.C,Vpv*%
X116850000Y-35939285D02*
X117100000Y-36689285D01*
X117350000Y-35939285D01*
X117600000Y-36189285D02*
X117600000Y-36939285D01*
X117600000Y-36225000D02*
X117671428Y-36189285D01*
X117814285Y-36189285D01*
X117885714Y-36225000D01*
X117921428Y-36260714D01*
X117957142Y-36332142D01*
X117957142Y-36546428D01*
X117921428Y-36617857D01*
X117885714Y-36653571D01*
X117814285Y-36689285D01*
X117671428Y-36689285D01*
X117600000Y-36653571D01*
X118207142Y-36189285D02*
X118385714Y-36689285D01*
X118564285Y-36189285D01*
D12*
%TO.C,C25*%
X173628571Y-68461428D02*
X173652380Y-68485238D01*
X173676190Y-68556666D01*
X173676190Y-68604285D01*
X173652380Y-68675714D01*
X173604761Y-68723333D01*
X173557142Y-68747142D01*
X173461904Y-68770952D01*
X173390476Y-68770952D01*
X173295238Y-68747142D01*
X173247619Y-68723333D01*
X173200000Y-68675714D01*
X173176190Y-68604285D01*
X173176190Y-68556666D01*
X173200000Y-68485238D01*
X173223809Y-68461428D01*
X173223809Y-68270952D02*
X173200000Y-68247142D01*
X173176190Y-68199523D01*
X173176190Y-68080476D01*
X173200000Y-68032857D01*
X173223809Y-68009047D01*
X173271428Y-67985238D01*
X173319047Y-67985238D01*
X173390476Y-68009047D01*
X173676190Y-68294761D01*
X173676190Y-67985238D01*
X173176190Y-67532857D02*
X173176190Y-67770952D01*
X173414285Y-67794761D01*
X173390476Y-67770952D01*
X173366666Y-67723333D01*
X173366666Y-67604285D01*
X173390476Y-67556666D01*
X173414285Y-67532857D01*
X173461904Y-67509047D01*
X173580952Y-67509047D01*
X173628571Y-67532857D01*
X173652380Y-67556666D01*
X173676190Y-67604285D01*
X173676190Y-67723333D01*
X173652380Y-67770952D01*
X173628571Y-67794761D01*
D10*
%TO.C,qp*%
X124710714Y-72753095D02*
X125710714Y-72753095D01*
X125329761Y-72753095D02*
X125377380Y-72848333D01*
X125377380Y-73038809D01*
X125329761Y-73134047D01*
X125282142Y-73181666D01*
X125186904Y-73229285D01*
X124901190Y-73229285D01*
X124805952Y-73181666D01*
X124758333Y-73134047D01*
X124710714Y-73038809D01*
X124710714Y-72848333D01*
X124758333Y-72753095D01*
X124710714Y-72276904D02*
X125710714Y-72276904D01*
X124758333Y-72276904D02*
X124710714Y-72181666D01*
X124710714Y-71991190D01*
X124758333Y-71895952D01*
X124805952Y-71848333D01*
X124901190Y-71800714D01*
X125186904Y-71800714D01*
X125282142Y-71848333D01*
X125329761Y-71895952D01*
X125377380Y-71991190D01*
X125377380Y-72181666D01*
X125329761Y-72276904D01*
%TO.C,Vgl*%
X122999285Y-40771784D02*
X123249285Y-41521784D01*
X123499285Y-40771784D01*
X124070714Y-41021784D02*
X124070714Y-41628927D01*
X124035000Y-41700356D01*
X123999285Y-41736070D01*
X123927857Y-41771784D01*
X123820714Y-41771784D01*
X123749285Y-41736070D01*
X124070714Y-41486070D02*
X123999285Y-41521784D01*
X123856428Y-41521784D01*
X123785000Y-41486070D01*
X123749285Y-41450356D01*
X123713571Y-41378927D01*
X123713571Y-41164641D01*
X123749285Y-41093213D01*
X123785000Y-41057499D01*
X123856428Y-41021784D01*
X123999285Y-41021784D01*
X124070714Y-41057499D01*
X124535000Y-41521784D02*
X124463571Y-41486070D01*
X124427857Y-41414641D01*
X124427857Y-40771784D01*
%TO.C,5V S*%
X156514285Y-76739285D02*
X156157142Y-76739285D01*
X156121428Y-77096428D01*
X156157142Y-77060714D01*
X156228571Y-77025000D01*
X156407142Y-77025000D01*
X156478571Y-77060714D01*
X156514285Y-77096428D01*
X156550000Y-77167857D01*
X156550000Y-77346428D01*
X156514285Y-77417857D01*
X156478571Y-77453571D01*
X156407142Y-77489285D01*
X156228571Y-77489285D01*
X156157142Y-77453571D01*
X156121428Y-77417857D01*
X156764285Y-76739285D02*
X157014285Y-77489285D01*
X157264285Y-76739285D01*
X158050000Y-77453571D02*
X158157142Y-77489285D01*
X158335714Y-77489285D01*
X158407142Y-77453571D01*
X158442857Y-77417857D01*
X158478571Y-77346428D01*
X158478571Y-77275000D01*
X158442857Y-77203571D01*
X158407142Y-77167857D01*
X158335714Y-77132142D01*
X158192857Y-77096428D01*
X158121428Y-77060714D01*
X158085714Y-77025000D01*
X158050000Y-76953571D01*
X158050000Y-76882142D01*
X158085714Y-76810714D01*
X158121428Y-76775000D01*
X158192857Y-76739285D01*
X158371428Y-76739285D01*
X158478571Y-76775000D01*
%TO.C,C21*%
X102507142Y-81307142D02*
X102459523Y-81354761D01*
X102316666Y-81402380D01*
X102221428Y-81402380D01*
X102078571Y-81354761D01*
X101983333Y-81259523D01*
X101935714Y-81164285D01*
X101888095Y-80973809D01*
X101888095Y-80830952D01*
X101935714Y-80640476D01*
X101983333Y-80545238D01*
X102078571Y-80450000D01*
X102221428Y-80402380D01*
X102316666Y-80402380D01*
X102459523Y-80450000D01*
X102507142Y-80497619D01*
X102888095Y-80497619D02*
X102935714Y-80450000D01*
X103030952Y-80402380D01*
X103269047Y-80402380D01*
X103364285Y-80450000D01*
X103411904Y-80497619D01*
X103459523Y-80592857D01*
X103459523Y-80688095D01*
X103411904Y-80830952D01*
X102840476Y-81402380D01*
X103459523Y-81402380D01*
X104411904Y-81402380D02*
X103840476Y-81402380D01*
X104126190Y-81402380D02*
X104126190Y-80402380D01*
X104030952Y-80545238D01*
X103935714Y-80640476D01*
X103840476Y-80688095D01*
D12*
%TO.C,R2*%
X131241666Y-53451190D02*
X131075000Y-53213095D01*
X130955952Y-53451190D02*
X130955952Y-52951190D01*
X131146428Y-52951190D01*
X131194047Y-52975000D01*
X131217857Y-52998809D01*
X131241666Y-53046428D01*
X131241666Y-53117857D01*
X131217857Y-53165476D01*
X131194047Y-53189285D01*
X131146428Y-53213095D01*
X130955952Y-53213095D01*
X131432142Y-52998809D02*
X131455952Y-52975000D01*
X131503571Y-52951190D01*
X131622619Y-52951190D01*
X131670238Y-52975000D01*
X131694047Y-52998809D01*
X131717857Y-53046428D01*
X131717857Y-53094047D01*
X131694047Y-53165476D01*
X131408333Y-53451190D01*
X131717857Y-53451190D01*
%TO.C,C27*%
X170438571Y-61121428D02*
X170462380Y-61145238D01*
X170486190Y-61216666D01*
X170486190Y-61264285D01*
X170462380Y-61335714D01*
X170414761Y-61383333D01*
X170367142Y-61407142D01*
X170271904Y-61430952D01*
X170200476Y-61430952D01*
X170105238Y-61407142D01*
X170057619Y-61383333D01*
X170010000Y-61335714D01*
X169986190Y-61264285D01*
X169986190Y-61216666D01*
X170010000Y-61145238D01*
X170033809Y-61121428D01*
X170033809Y-60930952D02*
X170010000Y-60907142D01*
X169986190Y-60859523D01*
X169986190Y-60740476D01*
X170010000Y-60692857D01*
X170033809Y-60669047D01*
X170081428Y-60645238D01*
X170129047Y-60645238D01*
X170200476Y-60669047D01*
X170486190Y-60954761D01*
X170486190Y-60645238D01*
X169986190Y-60478571D02*
X169986190Y-60145238D01*
X170486190Y-60359523D01*
D10*
%TO.C,U9*%
X146452380Y-73261904D02*
X147261904Y-73261904D01*
X147357142Y-73214285D01*
X147404761Y-73166666D01*
X147452380Y-73071428D01*
X147452380Y-72880952D01*
X147404761Y-72785714D01*
X147357142Y-72738095D01*
X147261904Y-72690476D01*
X146452380Y-72690476D01*
X147452380Y-72166666D02*
X147452380Y-71976190D01*
X147404761Y-71880952D01*
X147357142Y-71833333D01*
X147214285Y-71738095D01*
X147023809Y-71690476D01*
X146642857Y-71690476D01*
X146547619Y-71738095D01*
X146500000Y-71785714D01*
X146452380Y-71880952D01*
X146452380Y-72071428D01*
X146500000Y-72166666D01*
X146547619Y-72214285D01*
X146642857Y-72261904D01*
X146880952Y-72261904D01*
X146976190Y-72214285D01*
X147023809Y-72166666D01*
X147071428Y-72071428D01*
X147071428Y-71880952D01*
X147023809Y-71785714D01*
X146976190Y-71738095D01*
X146880952Y-71690476D01*
%TO.C,Vgh*%
X166619285Y-41228571D02*
X167369285Y-40978571D01*
X166619285Y-40728571D01*
X166869285Y-40157142D02*
X167476428Y-40157142D01*
X167547857Y-40192857D01*
X167583571Y-40228571D01*
X167619285Y-40300000D01*
X167619285Y-40407142D01*
X167583571Y-40478571D01*
X167333571Y-40157142D02*
X167369285Y-40228571D01*
X167369285Y-40371428D01*
X167333571Y-40442857D01*
X167297857Y-40478571D01*
X167226428Y-40514285D01*
X167012142Y-40514285D01*
X166940714Y-40478571D01*
X166905000Y-40442857D01*
X166869285Y-40371428D01*
X166869285Y-40228571D01*
X166905000Y-40157142D01*
X167369285Y-39800000D02*
X166619285Y-39800000D01*
X167369285Y-39478571D02*
X166976428Y-39478571D01*
X166905000Y-39514285D01*
X166869285Y-39585714D01*
X166869285Y-39692857D01*
X166905000Y-39764285D01*
X166940714Y-39800000D01*
%TO.C,qs*%
X168289523Y-60065714D02*
X168289523Y-61065714D01*
X168289523Y-60684761D02*
X168194285Y-60732380D01*
X168003809Y-60732380D01*
X167908571Y-60684761D01*
X167860952Y-60637142D01*
X167813333Y-60541904D01*
X167813333Y-60256190D01*
X167860952Y-60160952D01*
X167908571Y-60113333D01*
X168003809Y-60065714D01*
X168194285Y-60065714D01*
X168289523Y-60113333D01*
X168718095Y-60684761D02*
X168813333Y-60732380D01*
X169003809Y-60732380D01*
X169099047Y-60684761D01*
X169146666Y-60589523D01*
X169146666Y-60541904D01*
X169099047Y-60446666D01*
X169003809Y-60399047D01*
X168860952Y-60399047D01*
X168765714Y-60351428D01*
X168718095Y-60256190D01*
X168718095Y-60208571D01*
X168765714Y-60113333D01*
X168860952Y-60065714D01*
X169003809Y-60065714D01*
X169099047Y-60113333D01*
%TO.C,J4*%
X128857380Y-87598333D02*
X129571666Y-87598333D01*
X129714523Y-87645952D01*
X129809761Y-87741190D01*
X129857380Y-87884047D01*
X129857380Y-87979285D01*
X129190714Y-86693571D02*
X129857380Y-86693571D01*
X128809761Y-86931666D02*
X129524047Y-87169761D01*
X129524047Y-86550714D01*
D12*
%TO.C,C12*%
X163368571Y-56098571D02*
X163344761Y-56122380D01*
X163273333Y-56146190D01*
X163225714Y-56146190D01*
X163154285Y-56122380D01*
X163106666Y-56074761D01*
X163082857Y-56027142D01*
X163059047Y-55931904D01*
X163059047Y-55860476D01*
X163082857Y-55765238D01*
X163106666Y-55717619D01*
X163154285Y-55670000D01*
X163225714Y-55646190D01*
X163273333Y-55646190D01*
X163344761Y-55670000D01*
X163368571Y-55693809D01*
X163844761Y-56146190D02*
X163559047Y-56146190D01*
X163701904Y-56146190D02*
X163701904Y-55646190D01*
X163654285Y-55717619D01*
X163606666Y-55765238D01*
X163559047Y-55789047D01*
X164035238Y-55693809D02*
X164059047Y-55670000D01*
X164106666Y-55646190D01*
X164225714Y-55646190D01*
X164273333Y-55670000D01*
X164297142Y-55693809D01*
X164320952Y-55741428D01*
X164320952Y-55789047D01*
X164297142Y-55860476D01*
X164011428Y-56146190D01*
X164320952Y-56146190D01*
D10*
%TO.C,R10*%
X112917857Y-80539285D02*
X112667857Y-80182142D01*
X112489285Y-80539285D02*
X112489285Y-79789285D01*
X112775000Y-79789285D01*
X112846428Y-79825000D01*
X112882142Y-79860714D01*
X112917857Y-79932142D01*
X112917857Y-80039285D01*
X112882142Y-80110714D01*
X112846428Y-80146428D01*
X112775000Y-80182142D01*
X112489285Y-80182142D01*
X113632142Y-80539285D02*
X113203571Y-80539285D01*
X113417857Y-80539285D02*
X113417857Y-79789285D01*
X113346428Y-79896428D01*
X113275000Y-79967857D01*
X113203571Y-80003571D01*
X114096428Y-79789285D02*
X114167857Y-79789285D01*
X114239285Y-79825000D01*
X114275000Y-79860714D01*
X114310714Y-79932142D01*
X114346428Y-80075000D01*
X114346428Y-80253571D01*
X114310714Y-80396428D01*
X114275000Y-80467857D01*
X114239285Y-80503571D01*
X114167857Y-80539285D01*
X114096428Y-80539285D01*
X114025000Y-80503571D01*
X113989285Y-80467857D01*
X113953571Y-80396428D01*
X113917857Y-80253571D01*
X113917857Y-80075000D01*
X113953571Y-79932142D01*
X113989285Y-79860714D01*
X114025000Y-79825000D01*
X114096428Y-79789285D01*
%TO.C,Vsw*%
X122763571Y-37419285D02*
X123013571Y-38169285D01*
X123263571Y-37419285D01*
X123477857Y-38133571D02*
X123549285Y-38169285D01*
X123692142Y-38169285D01*
X123763571Y-38133571D01*
X123799285Y-38062142D01*
X123799285Y-38026428D01*
X123763571Y-37955000D01*
X123692142Y-37919285D01*
X123585000Y-37919285D01*
X123513571Y-37883571D01*
X123477857Y-37812142D01*
X123477857Y-37776428D01*
X123513571Y-37705000D01*
X123585000Y-37669285D01*
X123692142Y-37669285D01*
X123763571Y-37705000D01*
X124049285Y-37669285D02*
X124192142Y-38169285D01*
X124335000Y-37812142D01*
X124477857Y-38169285D01*
X124620714Y-37669285D01*
D12*
%TO.C,C9*%
X166368571Y-57313333D02*
X166392380Y-57337142D01*
X166416190Y-57408571D01*
X166416190Y-57456190D01*
X166392380Y-57527619D01*
X166344761Y-57575238D01*
X166297142Y-57599047D01*
X166201904Y-57622857D01*
X166130476Y-57622857D01*
X166035238Y-57599047D01*
X165987619Y-57575238D01*
X165940000Y-57527619D01*
X165916190Y-57456190D01*
X165916190Y-57408571D01*
X165940000Y-57337142D01*
X165963809Y-57313333D01*
X166416190Y-57075238D02*
X166416190Y-56980000D01*
X166392380Y-56932380D01*
X166368571Y-56908571D01*
X166297142Y-56860952D01*
X166201904Y-56837142D01*
X166011428Y-56837142D01*
X165963809Y-56860952D01*
X165940000Y-56884761D01*
X165916190Y-56932380D01*
X165916190Y-57027619D01*
X165940000Y-57075238D01*
X165963809Y-57099047D01*
X166011428Y-57122857D01*
X166130476Y-57122857D01*
X166178095Y-57099047D01*
X166201904Y-57075238D01*
X166225714Y-57027619D01*
X166225714Y-56932380D01*
X166201904Y-56884761D01*
X166178095Y-56860952D01*
X166130476Y-56837142D01*
D10*
%TO.C,R9*%
X119038817Y-83699912D02*
X118705484Y-83223722D01*
X118467388Y-83699912D02*
X118467388Y-82699912D01*
X118848341Y-82699912D01*
X118943579Y-82747532D01*
X118991198Y-82795151D01*
X119038817Y-82890389D01*
X119038817Y-83033246D01*
X118991198Y-83128484D01*
X118943579Y-83176103D01*
X118848341Y-83223722D01*
X118467388Y-83223722D01*
X119515007Y-83699912D02*
X119705484Y-83699912D01*
X119800722Y-83652293D01*
X119848341Y-83604674D01*
X119943579Y-83461817D01*
X119991198Y-83271341D01*
X119991198Y-82890389D01*
X119943579Y-82795151D01*
X119895960Y-82747532D01*
X119800722Y-82699912D01*
X119610245Y-82699912D01*
X119515007Y-82747532D01*
X119467388Y-82795151D01*
X119419769Y-82890389D01*
X119419769Y-83128484D01*
X119467388Y-83223722D01*
X119515007Y-83271341D01*
X119610245Y-83318960D01*
X119800722Y-83318960D01*
X119895960Y-83271341D01*
X119943579Y-83223722D01*
X119991198Y-83128484D01*
D12*
%TO.C,C6*%
X138903571Y-44978333D02*
X138927380Y-45002142D01*
X138951190Y-45073571D01*
X138951190Y-45121190D01*
X138927380Y-45192619D01*
X138879761Y-45240238D01*
X138832142Y-45264047D01*
X138736904Y-45287857D01*
X138665476Y-45287857D01*
X138570238Y-45264047D01*
X138522619Y-45240238D01*
X138475000Y-45192619D01*
X138451190Y-45121190D01*
X138451190Y-45073571D01*
X138475000Y-45002142D01*
X138498809Y-44978333D01*
X138451190Y-44549761D02*
X138451190Y-44645000D01*
X138475000Y-44692619D01*
X138498809Y-44716428D01*
X138570238Y-44764047D01*
X138665476Y-44787857D01*
X138855952Y-44787857D01*
X138903571Y-44764047D01*
X138927380Y-44740238D01*
X138951190Y-44692619D01*
X138951190Y-44597380D01*
X138927380Y-44549761D01*
X138903571Y-44525952D01*
X138855952Y-44502142D01*
X138736904Y-44502142D01*
X138689285Y-44525952D01*
X138665476Y-44549761D01*
X138641666Y-44597380D01*
X138641666Y-44692619D01*
X138665476Y-44740238D01*
X138689285Y-44764047D01*
X138736904Y-44787857D01*
D13*
%TO.C,J10*%
X186871904Y-61654523D02*
X186871904Y-62561666D01*
X186811428Y-62743095D01*
X186690476Y-62864047D01*
X186509047Y-62924523D01*
X186388095Y-62924523D01*
X188141904Y-62924523D02*
X187416190Y-62924523D01*
X187779047Y-62924523D02*
X187779047Y-61654523D01*
X187658095Y-61835952D01*
X187537142Y-61956904D01*
X187416190Y-62017380D01*
X188928095Y-61654523D02*
X189049047Y-61654523D01*
X189170000Y-61715000D01*
X189230476Y-61775476D01*
X189290952Y-61896428D01*
X189351428Y-62138333D01*
X189351428Y-62440714D01*
X189290952Y-62682619D01*
X189230476Y-62803571D01*
X189170000Y-62864047D01*
X189049047Y-62924523D01*
X188928095Y-62924523D01*
X188807142Y-62864047D01*
X188746666Y-62803571D01*
X188686190Y-62682619D01*
X188625714Y-62440714D01*
X188625714Y-62138333D01*
X188686190Y-61896428D01*
X188746666Y-61775476D01*
X188807142Y-61715000D01*
X188928095Y-61654523D01*
D10*
%TO.C,R8*%
X103083333Y-83652380D02*
X102750000Y-83176190D01*
X102511904Y-83652380D02*
X102511904Y-82652380D01*
X102892857Y-82652380D01*
X102988095Y-82700000D01*
X103035714Y-82747619D01*
X103083333Y-82842857D01*
X103083333Y-82985714D01*
X103035714Y-83080952D01*
X102988095Y-83128571D01*
X102892857Y-83176190D01*
X102511904Y-83176190D01*
X103654761Y-83080952D02*
X103559523Y-83033333D01*
X103511904Y-82985714D01*
X103464285Y-82890476D01*
X103464285Y-82842857D01*
X103511904Y-82747619D01*
X103559523Y-82700000D01*
X103654761Y-82652380D01*
X103845238Y-82652380D01*
X103940476Y-82700000D01*
X103988095Y-82747619D01*
X104035714Y-82842857D01*
X104035714Y-82890476D01*
X103988095Y-82985714D01*
X103940476Y-83033333D01*
X103845238Y-83080952D01*
X103654761Y-83080952D01*
X103559523Y-83128571D01*
X103511904Y-83176190D01*
X103464285Y-83271428D01*
X103464285Y-83461904D01*
X103511904Y-83557142D01*
X103559523Y-83604761D01*
X103654761Y-83652380D01*
X103845238Y-83652380D01*
X103940476Y-83604761D01*
X103988095Y-83557142D01*
X104035714Y-83461904D01*
X104035714Y-83271428D01*
X103988095Y-83176190D01*
X103940476Y-83128571D01*
X103845238Y-83080952D01*
%TO.C,Vin*%
X120082142Y-35939285D02*
X120332142Y-36689285D01*
X120582142Y-35939285D01*
X120832142Y-36689285D02*
X120832142Y-36189285D01*
X120832142Y-35939285D02*
X120796428Y-35975000D01*
X120832142Y-36010714D01*
X120867857Y-35975000D01*
X120832142Y-35939285D01*
X120832142Y-36010714D01*
X121189285Y-36189285D02*
X121189285Y-36689285D01*
X121189285Y-36260714D02*
X121225000Y-36225000D01*
X121296428Y-36189285D01*
X121403571Y-36189285D01*
X121475000Y-36225000D01*
X121510714Y-36296428D01*
X121510714Y-36689285D01*
D13*
%TO.C,J2*%
X103626666Y-55254523D02*
X103626666Y-56161666D01*
X103566190Y-56343095D01*
X103445238Y-56464047D01*
X103263809Y-56524523D01*
X103142857Y-56524523D01*
X104170952Y-55375476D02*
X104231428Y-55315000D01*
X104352380Y-55254523D01*
X104654761Y-55254523D01*
X104775714Y-55315000D01*
X104836190Y-55375476D01*
X104896666Y-55496428D01*
X104896666Y-55617380D01*
X104836190Y-55798809D01*
X104110476Y-56524523D01*
X104896666Y-56524523D01*
D10*
%TO.C,C20*%
X112917857Y-79367857D02*
X112882142Y-79403571D01*
X112775000Y-79439285D01*
X112703571Y-79439285D01*
X112596428Y-79403571D01*
X112525000Y-79332142D01*
X112489285Y-79260714D01*
X112453571Y-79117857D01*
X112453571Y-79010714D01*
X112489285Y-78867857D01*
X112525000Y-78796428D01*
X112596428Y-78725000D01*
X112703571Y-78689285D01*
X112775000Y-78689285D01*
X112882142Y-78725000D01*
X112917857Y-78760714D01*
X113203571Y-78760714D02*
X113239285Y-78725000D01*
X113310714Y-78689285D01*
X113489285Y-78689285D01*
X113560714Y-78725000D01*
X113596428Y-78760714D01*
X113632142Y-78832142D01*
X113632142Y-78903571D01*
X113596428Y-79010714D01*
X113167857Y-79439285D01*
X113632142Y-79439285D01*
X114096428Y-78689285D02*
X114167857Y-78689285D01*
X114239285Y-78725000D01*
X114275000Y-78760714D01*
X114310714Y-78832142D01*
X114346428Y-78975000D01*
X114346428Y-79153571D01*
X114310714Y-79296428D01*
X114275000Y-79367857D01*
X114239285Y-79403571D01*
X114167857Y-79439285D01*
X114096428Y-79439285D01*
X114025000Y-79403571D01*
X113989285Y-79367857D01*
X113953571Y-79296428D01*
X113917857Y-79153571D01*
X113917857Y-78975000D01*
X113953571Y-78832142D01*
X113989285Y-78760714D01*
X114025000Y-78725000D01*
X114096428Y-78689285D01*
D12*
%TO.C,C32*%
X157678571Y-71321428D02*
X157702380Y-71345238D01*
X157726190Y-71416666D01*
X157726190Y-71464285D01*
X157702380Y-71535714D01*
X157654761Y-71583333D01*
X157607142Y-71607142D01*
X157511904Y-71630952D01*
X157440476Y-71630952D01*
X157345238Y-71607142D01*
X157297619Y-71583333D01*
X157250000Y-71535714D01*
X157226190Y-71464285D01*
X157226190Y-71416666D01*
X157250000Y-71345238D01*
X157273809Y-71321428D01*
X157226190Y-71154761D02*
X157226190Y-70845238D01*
X157416666Y-71011904D01*
X157416666Y-70940476D01*
X157440476Y-70892857D01*
X157464285Y-70869047D01*
X157511904Y-70845238D01*
X157630952Y-70845238D01*
X157678571Y-70869047D01*
X157702380Y-70892857D01*
X157726190Y-70940476D01*
X157726190Y-71083333D01*
X157702380Y-71130952D01*
X157678571Y-71154761D01*
X157273809Y-70654761D02*
X157250000Y-70630952D01*
X157226190Y-70583333D01*
X157226190Y-70464285D01*
X157250000Y-70416666D01*
X157273809Y-70392857D01*
X157321428Y-70369047D01*
X157369047Y-70369047D01*
X157440476Y-70392857D01*
X157726190Y-70678571D01*
X157726190Y-70369047D01*
%TO.C,R15*%
X164626190Y-73621428D02*
X164388095Y-73788095D01*
X164626190Y-73907142D02*
X164126190Y-73907142D01*
X164126190Y-73716666D01*
X164150000Y-73669047D01*
X164173809Y-73645238D01*
X164221428Y-73621428D01*
X164292857Y-73621428D01*
X164340476Y-73645238D01*
X164364285Y-73669047D01*
X164388095Y-73716666D01*
X164388095Y-73907142D01*
X164626190Y-73145238D02*
X164626190Y-73430952D01*
X164626190Y-73288095D02*
X164126190Y-73288095D01*
X164197619Y-73335714D01*
X164245238Y-73383333D01*
X164269047Y-73430952D01*
X164126190Y-72692857D02*
X164126190Y-72930952D01*
X164364285Y-72954761D01*
X164340476Y-72930952D01*
X164316666Y-72883333D01*
X164316666Y-72764285D01*
X164340476Y-72716666D01*
X164364285Y-72692857D01*
X164411904Y-72669047D01*
X164530952Y-72669047D01*
X164578571Y-72692857D01*
X164602380Y-72716666D01*
X164626190Y-72764285D01*
X164626190Y-72883333D01*
X164602380Y-72930952D01*
X164578571Y-72954761D01*
D10*
%TO.C,U6*%
X172113095Y-58294880D02*
X172113095Y-59104404D01*
X172160714Y-59199642D01*
X172208333Y-59247261D01*
X172303571Y-59294880D01*
X172494047Y-59294880D01*
X172589285Y-59247261D01*
X172636904Y-59199642D01*
X172684523Y-59104404D01*
X172684523Y-58294880D01*
X173589285Y-58294880D02*
X173398809Y-58294880D01*
X173303571Y-58342500D01*
X173255952Y-58390119D01*
X173160714Y-58532976D01*
X173113095Y-58723452D01*
X173113095Y-59104404D01*
X173160714Y-59199642D01*
X173208333Y-59247261D01*
X173303571Y-59294880D01*
X173494047Y-59294880D01*
X173589285Y-59247261D01*
X173636904Y-59199642D01*
X173684523Y-59104404D01*
X173684523Y-58866309D01*
X173636904Y-58771071D01*
X173589285Y-58723452D01*
X173494047Y-58675833D01*
X173303571Y-58675833D01*
X173208333Y-58723452D01*
X173160714Y-58771071D01*
X173113095Y-58866309D01*
D12*
%TO.C,C31*%
X139878571Y-67671428D02*
X139902380Y-67695238D01*
X139926190Y-67766666D01*
X139926190Y-67814285D01*
X139902380Y-67885714D01*
X139854761Y-67933333D01*
X139807142Y-67957142D01*
X139711904Y-67980952D01*
X139640476Y-67980952D01*
X139545238Y-67957142D01*
X139497619Y-67933333D01*
X139450000Y-67885714D01*
X139426190Y-67814285D01*
X139426190Y-67766666D01*
X139450000Y-67695238D01*
X139473809Y-67671428D01*
X139426190Y-67504761D02*
X139426190Y-67195238D01*
X139616666Y-67361904D01*
X139616666Y-67290476D01*
X139640476Y-67242857D01*
X139664285Y-67219047D01*
X139711904Y-67195238D01*
X139830952Y-67195238D01*
X139878571Y-67219047D01*
X139902380Y-67242857D01*
X139926190Y-67290476D01*
X139926190Y-67433333D01*
X139902380Y-67480952D01*
X139878571Y-67504761D01*
X139926190Y-66719047D02*
X139926190Y-67004761D01*
X139926190Y-66861904D02*
X139426190Y-66861904D01*
X139497619Y-66909523D01*
X139545238Y-66957142D01*
X139569047Y-67004761D01*
D10*
%TO.C,Vgl*%
X160819285Y-66839285D02*
X161069285Y-67589285D01*
X161319285Y-66839285D01*
X161890714Y-67089285D02*
X161890714Y-67696428D01*
X161855000Y-67767857D01*
X161819285Y-67803571D01*
X161747857Y-67839285D01*
X161640714Y-67839285D01*
X161569285Y-67803571D01*
X161890714Y-67553571D02*
X161819285Y-67589285D01*
X161676428Y-67589285D01*
X161605000Y-67553571D01*
X161569285Y-67517857D01*
X161533571Y-67446428D01*
X161533571Y-67232142D01*
X161569285Y-67160714D01*
X161605000Y-67125000D01*
X161676428Y-67089285D01*
X161819285Y-67089285D01*
X161890714Y-67125000D01*
X162355000Y-67589285D02*
X162283571Y-67553571D01*
X162247857Y-67482142D01*
X162247857Y-66839285D01*
D12*
%TO.C,C29*%
X175678571Y-58221428D02*
X175702380Y-58245238D01*
X175726190Y-58316666D01*
X175726190Y-58364285D01*
X175702380Y-58435714D01*
X175654761Y-58483333D01*
X175607142Y-58507142D01*
X175511904Y-58530952D01*
X175440476Y-58530952D01*
X175345238Y-58507142D01*
X175297619Y-58483333D01*
X175250000Y-58435714D01*
X175226190Y-58364285D01*
X175226190Y-58316666D01*
X175250000Y-58245238D01*
X175273809Y-58221428D01*
X175273809Y-58030952D02*
X175250000Y-58007142D01*
X175226190Y-57959523D01*
X175226190Y-57840476D01*
X175250000Y-57792857D01*
X175273809Y-57769047D01*
X175321428Y-57745238D01*
X175369047Y-57745238D01*
X175440476Y-57769047D01*
X175726190Y-58054761D01*
X175726190Y-57745238D01*
X175726190Y-57507142D02*
X175726190Y-57411904D01*
X175702380Y-57364285D01*
X175678571Y-57340476D01*
X175607142Y-57292857D01*
X175511904Y-57269047D01*
X175321428Y-57269047D01*
X175273809Y-57292857D01*
X175250000Y-57316666D01*
X175226190Y-57364285D01*
X175226190Y-57459523D01*
X175250000Y-57507142D01*
X175273809Y-57530952D01*
X175321428Y-57554761D01*
X175440476Y-57554761D01*
X175488095Y-57530952D01*
X175511904Y-57507142D01*
X175535714Y-57459523D01*
X175535714Y-57364285D01*
X175511904Y-57316666D01*
X175488095Y-57292857D01*
X175440476Y-57269047D01*
%TO.C,R21*%
X140676190Y-71321428D02*
X140438095Y-71488095D01*
X140676190Y-71607142D02*
X140176190Y-71607142D01*
X140176190Y-71416666D01*
X140200000Y-71369047D01*
X140223809Y-71345238D01*
X140271428Y-71321428D01*
X140342857Y-71321428D01*
X140390476Y-71345238D01*
X140414285Y-71369047D01*
X140438095Y-71416666D01*
X140438095Y-71607142D01*
X140223809Y-71130952D02*
X140200000Y-71107142D01*
X140176190Y-71059523D01*
X140176190Y-70940476D01*
X140200000Y-70892857D01*
X140223809Y-70869047D01*
X140271428Y-70845238D01*
X140319047Y-70845238D01*
X140390476Y-70869047D01*
X140676190Y-71154761D01*
X140676190Y-70845238D01*
X140676190Y-70369047D02*
X140676190Y-70654761D01*
X140676190Y-70511904D02*
X140176190Y-70511904D01*
X140247619Y-70559523D01*
X140295238Y-70607142D01*
X140319047Y-70654761D01*
D10*
%TO.C,U7*%
X107038095Y-78552380D02*
X107038095Y-79361904D01*
X107085714Y-79457142D01*
X107133333Y-79504761D01*
X107228571Y-79552380D01*
X107419047Y-79552380D01*
X107514285Y-79504761D01*
X107561904Y-79457142D01*
X107609523Y-79361904D01*
X107609523Y-78552380D01*
X107990476Y-78552380D02*
X108657142Y-78552380D01*
X108228571Y-79552380D01*
%TO.C,J6*%
X128857380Y-130798333D02*
X129571666Y-130798333D01*
X129714523Y-130845952D01*
X129809761Y-130941190D01*
X129857380Y-131084047D01*
X129857380Y-131179285D01*
X128857380Y-129893571D02*
X128857380Y-130084047D01*
X128905000Y-130179285D01*
X128952619Y-130226904D01*
X129095476Y-130322142D01*
X129285952Y-130369761D01*
X129666904Y-130369761D01*
X129762142Y-130322142D01*
X129809761Y-130274523D01*
X129857380Y-130179285D01*
X129857380Y-129988809D01*
X129809761Y-129893571D01*
X129762142Y-129845952D01*
X129666904Y-129798333D01*
X129428809Y-129798333D01*
X129333571Y-129845952D01*
X129285952Y-129893571D01*
X129238333Y-129988809D01*
X129238333Y-130179285D01*
X129285952Y-130274523D01*
X129333571Y-130322142D01*
X129428809Y-130369761D01*
%TO.C,U1*%
X127016900Y-50106904D02*
X127826424Y-50106904D01*
X127921662Y-50059285D01*
X127969281Y-50011666D01*
X128016900Y-49916428D01*
X128016900Y-49725952D01*
X127969281Y-49630714D01*
X127921662Y-49583095D01*
X127826424Y-49535476D01*
X127016900Y-49535476D01*
X128016900Y-48535476D02*
X128016900Y-49106904D01*
X128016900Y-48821190D02*
X127016900Y-48821190D01*
X127159758Y-48916428D01*
X127254996Y-49011666D01*
X127302615Y-49106904D01*
%TO.C,L1*%
X171203333Y-63572380D02*
X170727142Y-63572380D01*
X170727142Y-62572380D01*
X172060476Y-63572380D02*
X171489047Y-63572380D01*
X171774761Y-63572380D02*
X171774761Y-62572380D01*
X171679523Y-62715238D01*
X171584285Y-62810476D01*
X171489047Y-62858095D01*
D12*
%TO.C,R6*%
X166196190Y-54583333D02*
X165958095Y-54750000D01*
X166196190Y-54869047D02*
X165696190Y-54869047D01*
X165696190Y-54678571D01*
X165720000Y-54630952D01*
X165743809Y-54607142D01*
X165791428Y-54583333D01*
X165862857Y-54583333D01*
X165910476Y-54607142D01*
X165934285Y-54630952D01*
X165958095Y-54678571D01*
X165958095Y-54869047D01*
X165696190Y-54154761D02*
X165696190Y-54250000D01*
X165720000Y-54297619D01*
X165743809Y-54321428D01*
X165815238Y-54369047D01*
X165910476Y-54392857D01*
X166100952Y-54392857D01*
X166148571Y-54369047D01*
X166172380Y-54345238D01*
X166196190Y-54297619D01*
X166196190Y-54202380D01*
X166172380Y-54154761D01*
X166148571Y-54130952D01*
X166100952Y-54107142D01*
X165981904Y-54107142D01*
X165934285Y-54130952D01*
X165910476Y-54154761D01*
X165886666Y-54202380D01*
X165886666Y-54297619D01*
X165910476Y-54345238D01*
X165934285Y-54369047D01*
X165981904Y-54392857D01*
%TO.C,R3*%
X130990710Y-46483333D02*
X130752615Y-46650000D01*
X130990710Y-46769047D02*
X130490710Y-46769047D01*
X130490710Y-46578571D01*
X130514520Y-46530952D01*
X130538329Y-46507142D01*
X130585948Y-46483333D01*
X130657377Y-46483333D01*
X130704996Y-46507142D01*
X130728805Y-46530952D01*
X130752615Y-46578571D01*
X130752615Y-46769047D01*
X130490710Y-46316666D02*
X130490710Y-46007142D01*
X130681186Y-46173809D01*
X130681186Y-46102380D01*
X130704996Y-46054761D01*
X130728805Y-46030952D01*
X130776424Y-46007142D01*
X130895472Y-46007142D01*
X130943091Y-46030952D01*
X130966900Y-46054761D01*
X130990710Y-46102380D01*
X130990710Y-46245238D01*
X130966900Y-46292857D01*
X130943091Y-46316666D01*
D13*
%TO.C,J1*%
X103626666Y-43254523D02*
X103626666Y-44161666D01*
X103566190Y-44343095D01*
X103445238Y-44464047D01*
X103263809Y-44524523D01*
X103142857Y-44524523D01*
X104896666Y-44524523D02*
X104170952Y-44524523D01*
X104533809Y-44524523D02*
X104533809Y-43254523D01*
X104412857Y-43435952D01*
X104291904Y-43556904D01*
X104170952Y-43617380D01*
D10*
%TO.C,Vout*%
X172339142Y-37515285D02*
X172589142Y-38265285D01*
X172839142Y-37515285D01*
X173196285Y-38265285D02*
X173124857Y-38229571D01*
X173089142Y-38193857D01*
X173053428Y-38122428D01*
X173053428Y-37908142D01*
X173089142Y-37836714D01*
X173124857Y-37801000D01*
X173196285Y-37765285D01*
X173303428Y-37765285D01*
X173374857Y-37801000D01*
X173410571Y-37836714D01*
X173446285Y-37908142D01*
X173446285Y-38122428D01*
X173410571Y-38193857D01*
X173374857Y-38229571D01*
X173303428Y-38265285D01*
X173196285Y-38265285D01*
X174089142Y-37765285D02*
X174089142Y-38265285D01*
X173767714Y-37765285D02*
X173767714Y-38158142D01*
X173803428Y-38229571D01*
X173874857Y-38265285D01*
X173982000Y-38265285D01*
X174053428Y-38229571D01*
X174089142Y-38193857D01*
X174339142Y-37765285D02*
X174624857Y-37765285D01*
X174446285Y-37515285D02*
X174446285Y-38158142D01*
X174482000Y-38229571D01*
X174553428Y-38265285D01*
X174624857Y-38265285D01*
%TO.C,Vgh*%
X122671428Y-43959285D02*
X122921428Y-44709285D01*
X123171428Y-43959285D01*
X123742857Y-44209285D02*
X123742857Y-44816428D01*
X123707142Y-44887857D01*
X123671428Y-44923571D01*
X123600000Y-44959285D01*
X123492857Y-44959285D01*
X123421428Y-44923571D01*
X123742857Y-44673571D02*
X123671428Y-44709285D01*
X123528571Y-44709285D01*
X123457142Y-44673571D01*
X123421428Y-44637857D01*
X123385714Y-44566428D01*
X123385714Y-44352142D01*
X123421428Y-44280714D01*
X123457142Y-44245000D01*
X123528571Y-44209285D01*
X123671428Y-44209285D01*
X123742857Y-44245000D01*
X124100000Y-44709285D02*
X124100000Y-43959285D01*
X124421428Y-44709285D02*
X124421428Y-44316428D01*
X124385714Y-44245000D01*
X124314285Y-44209285D01*
X124207142Y-44209285D01*
X124135714Y-44245000D01*
X124100000Y-44280714D01*
%TO.C,J3*%
X192357380Y-87598333D02*
X193071666Y-87598333D01*
X193214523Y-87645952D01*
X193309761Y-87741190D01*
X193357380Y-87884047D01*
X193357380Y-87979285D01*
X192357380Y-87217380D02*
X192357380Y-86598333D01*
X192738333Y-86931666D01*
X192738333Y-86788809D01*
X192785952Y-86693571D01*
X192833571Y-86645952D01*
X192928809Y-86598333D01*
X193166904Y-86598333D01*
X193262142Y-86645952D01*
X193309761Y-86693571D01*
X193357380Y-86788809D01*
X193357380Y-87074523D01*
X193309761Y-87169761D01*
X193262142Y-87217380D01*
%TO.C,5V P*%
X133096786Y-78608571D02*
X133096786Y-78965714D01*
X133453929Y-79001428D01*
X133418215Y-78965714D01*
X133382501Y-78894285D01*
X133382501Y-78715714D01*
X133418215Y-78644285D01*
X133453929Y-78608571D01*
X133525358Y-78572857D01*
X133703929Y-78572857D01*
X133775358Y-78608571D01*
X133811072Y-78644285D01*
X133846786Y-78715714D01*
X133846786Y-78894285D01*
X133811072Y-78965714D01*
X133775358Y-79001428D01*
X133096786Y-78358571D02*
X133846786Y-78108571D01*
X133096786Y-77858571D01*
X133846786Y-77037142D02*
X133096786Y-77037142D01*
X133096786Y-76751428D01*
X133132501Y-76680000D01*
X133168215Y-76644285D01*
X133239643Y-76608571D01*
X133346786Y-76608571D01*
X133418215Y-76644285D01*
X133453929Y-76680000D01*
X133489643Y-76751428D01*
X133489643Y-77037142D01*
%TO.C,J5*%
X192352380Y-130793333D02*
X193066666Y-130793333D01*
X193209523Y-130840952D01*
X193304761Y-130936190D01*
X193352380Y-131079047D01*
X193352380Y-131174285D01*
X192352380Y-129840952D02*
X192352380Y-130317142D01*
X192828571Y-130364761D01*
X192780952Y-130317142D01*
X192733333Y-130221904D01*
X192733333Y-129983809D01*
X192780952Y-129888571D01*
X192828571Y-129840952D01*
X192923809Y-129793333D01*
X193161904Y-129793333D01*
X193257142Y-129840952D01*
X193304761Y-129888571D01*
X193352380Y-129983809D01*
X193352380Y-130221904D01*
X193304761Y-130317142D01*
X193257142Y-130364761D01*
D12*
%TO.C,R20*%
X173803571Y-55018690D02*
X173636904Y-54780595D01*
X173517857Y-55018690D02*
X173517857Y-54518690D01*
X173708333Y-54518690D01*
X173755952Y-54542500D01*
X173779761Y-54566309D01*
X173803571Y-54613928D01*
X173803571Y-54685357D01*
X173779761Y-54732976D01*
X173755952Y-54756785D01*
X173708333Y-54780595D01*
X173517857Y-54780595D01*
X173994047Y-54566309D02*
X174017857Y-54542500D01*
X174065476Y-54518690D01*
X174184523Y-54518690D01*
X174232142Y-54542500D01*
X174255952Y-54566309D01*
X174279761Y-54613928D01*
X174279761Y-54661547D01*
X174255952Y-54732976D01*
X173970238Y-55018690D01*
X174279761Y-55018690D01*
X174589285Y-54518690D02*
X174636904Y-54518690D01*
X174684523Y-54542500D01*
X174708333Y-54566309D01*
X174732142Y-54613928D01*
X174755952Y-54709166D01*
X174755952Y-54828214D01*
X174732142Y-54923452D01*
X174708333Y-54971071D01*
X174684523Y-54994880D01*
X174636904Y-55018690D01*
X174589285Y-55018690D01*
X174541666Y-54994880D01*
X174517857Y-54971071D01*
X174494047Y-54923452D01*
X174470238Y-54828214D01*
X174470238Y-54709166D01*
X174494047Y-54613928D01*
X174517857Y-54566309D01*
X174541666Y-54542500D01*
X174589285Y-54518690D01*
D13*
%TO.C,J8*%
X187494666Y-50358523D02*
X187494666Y-51265666D01*
X187434190Y-51447095D01*
X187313238Y-51568047D01*
X187131809Y-51628523D01*
X187010857Y-51628523D01*
X188280857Y-50902809D02*
X188159904Y-50842333D01*
X188099428Y-50781857D01*
X188038952Y-50660904D01*
X188038952Y-50600428D01*
X188099428Y-50479476D01*
X188159904Y-50419000D01*
X188280857Y-50358523D01*
X188522761Y-50358523D01*
X188643714Y-50419000D01*
X188704190Y-50479476D01*
X188764666Y-50600428D01*
X188764666Y-50660904D01*
X188704190Y-50781857D01*
X188643714Y-50842333D01*
X188522761Y-50902809D01*
X188280857Y-50902809D01*
X188159904Y-50963285D01*
X188099428Y-51023761D01*
X188038952Y-51144714D01*
X188038952Y-51386619D01*
X188099428Y-51507571D01*
X188159904Y-51568047D01*
X188280857Y-51628523D01*
X188522761Y-51628523D01*
X188643714Y-51568047D01*
X188704190Y-51507571D01*
X188764666Y-51386619D01*
X188764666Y-51144714D01*
X188704190Y-51023761D01*
X188643714Y-50963285D01*
X188522761Y-50902809D01*
D12*
%TO.C,C7*%
X161538571Y-58283333D02*
X161562380Y-58307142D01*
X161586190Y-58378571D01*
X161586190Y-58426190D01*
X161562380Y-58497619D01*
X161514761Y-58545238D01*
X161467142Y-58569047D01*
X161371904Y-58592857D01*
X161300476Y-58592857D01*
X161205238Y-58569047D01*
X161157619Y-58545238D01*
X161110000Y-58497619D01*
X161086190Y-58426190D01*
X161086190Y-58378571D01*
X161110000Y-58307142D01*
X161133809Y-58283333D01*
X161086190Y-58116666D02*
X161086190Y-57783333D01*
X161586190Y-57997619D01*
%TO.C,C8*%
X161518571Y-55893333D02*
X161542380Y-55917142D01*
X161566190Y-55988571D01*
X161566190Y-56036190D01*
X161542380Y-56107619D01*
X161494761Y-56155238D01*
X161447142Y-56179047D01*
X161351904Y-56202857D01*
X161280476Y-56202857D01*
X161185238Y-56179047D01*
X161137619Y-56155238D01*
X161090000Y-56107619D01*
X161066190Y-56036190D01*
X161066190Y-55988571D01*
X161090000Y-55917142D01*
X161113809Y-55893333D01*
X161280476Y-55607619D02*
X161256666Y-55655238D01*
X161232857Y-55679047D01*
X161185238Y-55702857D01*
X161161428Y-55702857D01*
X161113809Y-55679047D01*
X161090000Y-55655238D01*
X161066190Y-55607619D01*
X161066190Y-55512380D01*
X161090000Y-55464761D01*
X161113809Y-55440952D01*
X161161428Y-55417142D01*
X161185238Y-55417142D01*
X161232857Y-55440952D01*
X161256666Y-55464761D01*
X161280476Y-55512380D01*
X161280476Y-55607619D01*
X161304285Y-55655238D01*
X161328095Y-55679047D01*
X161375714Y-55702857D01*
X161470952Y-55702857D01*
X161518571Y-55679047D01*
X161542380Y-55655238D01*
X161566190Y-55607619D01*
X161566190Y-55512380D01*
X161542380Y-55464761D01*
X161518571Y-55440952D01*
X161470952Y-55417142D01*
X161375714Y-55417142D01*
X161328095Y-55440952D01*
X161304285Y-55464761D01*
X161280476Y-55512380D01*
D10*
%TO.C,Vsw*%
X156413571Y-66879285D02*
X156663571Y-67629285D01*
X156913571Y-66879285D01*
X157127857Y-67593571D02*
X157199285Y-67629285D01*
X157342142Y-67629285D01*
X157413571Y-67593571D01*
X157449285Y-67522142D01*
X157449285Y-67486428D01*
X157413571Y-67415000D01*
X157342142Y-67379285D01*
X157235000Y-67379285D01*
X157163571Y-67343571D01*
X157127857Y-67272142D01*
X157127857Y-67236428D01*
X157163571Y-67165000D01*
X157235000Y-67129285D01*
X157342142Y-67129285D01*
X157413571Y-67165000D01*
X157699285Y-67129285D02*
X157842142Y-67629285D01*
X157985000Y-67272142D01*
X158127857Y-67629285D01*
X158270714Y-67129285D01*
D12*
%TO.C,R16*%
X166878571Y-70426190D02*
X166711904Y-70188095D01*
X166592857Y-70426190D02*
X166592857Y-69926190D01*
X166783333Y-69926190D01*
X166830952Y-69950000D01*
X166854761Y-69973809D01*
X166878571Y-70021428D01*
X166878571Y-70092857D01*
X166854761Y-70140476D01*
X166830952Y-70164285D01*
X166783333Y-70188095D01*
X166592857Y-70188095D01*
X167354761Y-70426190D02*
X167069047Y-70426190D01*
X167211904Y-70426190D02*
X167211904Y-69926190D01*
X167164285Y-69997619D01*
X167116666Y-70045238D01*
X167069047Y-70069047D01*
X167783333Y-69926190D02*
X167688095Y-69926190D01*
X167640476Y-69950000D01*
X167616666Y-69973809D01*
X167569047Y-70045238D01*
X167545238Y-70140476D01*
X167545238Y-70330952D01*
X167569047Y-70378571D01*
X167592857Y-70402380D01*
X167640476Y-70426190D01*
X167735714Y-70426190D01*
X167783333Y-70402380D01*
X167807142Y-70378571D01*
X167830952Y-70330952D01*
X167830952Y-70211904D01*
X167807142Y-70164285D01*
X167783333Y-70140476D01*
X167735714Y-70116666D01*
X167640476Y-70116666D01*
X167592857Y-70140476D01*
X167569047Y-70164285D01*
X167545238Y-70211904D01*
D13*
%TO.C,J9*%
X103626666Y-67104523D02*
X103626666Y-68011666D01*
X103566190Y-68193095D01*
X103445238Y-68314047D01*
X103263809Y-68374523D01*
X103142857Y-68374523D01*
X104291904Y-68374523D02*
X104533809Y-68374523D01*
X104654761Y-68314047D01*
X104715238Y-68253571D01*
X104836190Y-68072142D01*
X104896666Y-67830238D01*
X104896666Y-67346428D01*
X104836190Y-67225476D01*
X104775714Y-67165000D01*
X104654761Y-67104523D01*
X104412857Y-67104523D01*
X104291904Y-67165000D01*
X104231428Y-67225476D01*
X104170952Y-67346428D01*
X104170952Y-67648809D01*
X104231428Y-67769761D01*
X104291904Y-67830238D01*
X104412857Y-67890714D01*
X104654761Y-67890714D01*
X104775714Y-67830238D01*
X104836190Y-67769761D01*
X104896666Y-67648809D01*
D10*
%TO.C,Vc*%
X128396786Y-73101428D02*
X129146786Y-72851428D01*
X128396786Y-72601428D01*
X129111072Y-72030000D02*
X129146786Y-72101428D01*
X129146786Y-72244285D01*
X129111072Y-72315714D01*
X129075358Y-72351428D01*
X129003929Y-72387142D01*
X128789643Y-72387142D01*
X128718215Y-72351428D01*
X128682501Y-72315714D01*
X128646786Y-72244285D01*
X128646786Y-72101428D01*
X128682501Y-72030000D01*
X163279285Y-41481428D02*
X164029285Y-41231428D01*
X163279285Y-40981428D01*
X163993571Y-40410000D02*
X164029285Y-40481428D01*
X164029285Y-40624285D01*
X163993571Y-40695714D01*
X163957857Y-40731428D01*
X163886428Y-40767142D01*
X163672142Y-40767142D01*
X163600714Y-40731428D01*
X163565000Y-40695714D01*
X163529285Y-40624285D01*
X163529285Y-40481428D01*
X163565000Y-40410000D01*
D12*
%TO.C,C26*%
X172048571Y-68431428D02*
X172072380Y-68455238D01*
X172096190Y-68526666D01*
X172096190Y-68574285D01*
X172072380Y-68645714D01*
X172024761Y-68693333D01*
X171977142Y-68717142D01*
X171881904Y-68740952D01*
X171810476Y-68740952D01*
X171715238Y-68717142D01*
X171667619Y-68693333D01*
X171620000Y-68645714D01*
X171596190Y-68574285D01*
X171596190Y-68526666D01*
X171620000Y-68455238D01*
X171643809Y-68431428D01*
X171643809Y-68240952D02*
X171620000Y-68217142D01*
X171596190Y-68169523D01*
X171596190Y-68050476D01*
X171620000Y-68002857D01*
X171643809Y-67979047D01*
X171691428Y-67955238D01*
X171739047Y-67955238D01*
X171810476Y-67979047D01*
X172096190Y-68264761D01*
X172096190Y-67955238D01*
X171596190Y-67526666D02*
X171596190Y-67621904D01*
X171620000Y-67669523D01*
X171643809Y-67693333D01*
X171715238Y-67740952D01*
X171810476Y-67764761D01*
X172000952Y-67764761D01*
X172048571Y-67740952D01*
X172072380Y-67717142D01*
X172096190Y-67669523D01*
X172096190Y-67574285D01*
X172072380Y-67526666D01*
X172048571Y-67502857D01*
X172000952Y-67479047D01*
X171881904Y-67479047D01*
X171834285Y-67502857D01*
X171810476Y-67526666D01*
X171786666Y-67574285D01*
X171786666Y-67669523D01*
X171810476Y-67717142D01*
X171834285Y-67740952D01*
X171881904Y-67764761D01*
D14*
%TO.C,Vpv*%
X119055000Y-40080000D02*
X119055000Y-37480000D01*
X119055000Y-42680000D02*
X117725000Y-42680000D01*
X119055000Y-40080000D02*
X116395000Y-40080000D01*
X116395000Y-40080000D02*
X116395000Y-37480000D01*
X119055000Y-41350000D02*
X119055000Y-42680000D01*
X119055000Y-37480000D02*
X116395000Y-37480000D01*
%TO.C,C25*%
X173980000Y-65809420D02*
X173980000Y-66090580D01*
X172960000Y-65809420D02*
X172960000Y-66090580D01*
%TO.C,qp*%
X123745000Y-71020000D02*
X126405000Y-71020000D01*
X123745000Y-68420000D02*
X126405000Y-68420000D01*
X123745000Y-67150000D02*
X123745000Y-65820000D01*
X123745000Y-65820000D02*
X125075000Y-65820000D01*
X126405000Y-68420000D02*
X126405000Y-71020000D01*
X123745000Y-68420000D02*
X123745000Y-71020000D01*
%TO.C,Vgl*%
X130555000Y-39722499D02*
X130555000Y-41052499D01*
X125355000Y-39722499D02*
X125355000Y-42382499D01*
X129225000Y-39722499D02*
X130555000Y-39722499D01*
X127955000Y-39722499D02*
X127955000Y-42382499D01*
X127955000Y-39722499D02*
X125355000Y-39722499D01*
X127955000Y-42382499D02*
X125355000Y-42382499D01*
%TO.C,5V S*%
X158474999Y-73670001D02*
X159804999Y-73670001D01*
X157204999Y-73670001D02*
X157204999Y-76330001D01*
X159804999Y-73670001D02*
X159804999Y-75000001D01*
X157204999Y-76330001D02*
X154604999Y-76330001D01*
X154604999Y-73670001D02*
X154604999Y-76330001D01*
X157204999Y-73670001D02*
X154604999Y-73670001D01*
%TO.C,C2*%
X134915000Y-60359420D02*
X134915000Y-60640580D01*
X135935000Y-60359420D02*
X135935000Y-60640580D01*
%TO.C,C17*%
X122160000Y-48161252D02*
X122160000Y-47638748D01*
X120690000Y-48161252D02*
X120690000Y-47638748D01*
%TO.C,C21*%
X106190580Y-80340000D02*
X105909420Y-80340000D01*
X106190580Y-81360000D02*
X105909420Y-81360000D01*
%TO.C,J7*%
X139174999Y-76670001D02*
X140504999Y-76670001D01*
X140504999Y-76670001D02*
X140504999Y-78000001D01*
X137904999Y-76670001D02*
X135304999Y-76670001D01*
X137904999Y-76670001D02*
X137904999Y-79330001D01*
X137904999Y-79330001D02*
X135304999Y-79330001D01*
X135304999Y-76670001D02*
X135304999Y-79330001D01*
%TO.C,C27*%
X169715000Y-58630279D02*
X169715000Y-58304721D01*
X170735000Y-58630279D02*
X170735000Y-58304721D01*
%TO.C,REF\u002A\u002A*%
X154110000Y-70859420D02*
X154110000Y-71140580D01*
X153090000Y-70859420D02*
X153090000Y-71140580D01*
%TO.C,C18*%
X126485000Y-48161252D02*
X126485000Y-47638748D01*
X125015000Y-48161252D02*
X125015000Y-47638748D01*
%TO.C,REF\u002A\u002A*%
X136605000Y-68290580D02*
X136605000Y-68009420D01*
X137625000Y-68290580D02*
X137625000Y-68009420D01*
%TO.C,U9*%
X141920000Y-66150000D02*
X152080000Y-66150000D01*
X152080000Y-66150000D02*
X152080000Y-78850000D01*
X152080000Y-78850000D02*
X141920000Y-78850000D01*
X141920000Y-78850000D02*
X141920000Y-66150000D01*
%TO.C,Vgh*%
X168400000Y-42660000D02*
X165740000Y-42660000D01*
X168400000Y-45260000D02*
X168400000Y-42660000D01*
X165740000Y-45260000D02*
X165740000Y-42660000D01*
X168400000Y-46530000D02*
X168400000Y-47860000D01*
X168400000Y-47860000D02*
X167070000Y-47860000D01*
X168400000Y-45260000D02*
X165740000Y-45260000D01*
%TO.C,qs*%
X166510000Y-64325000D02*
X166510000Y-66925000D01*
X169170000Y-64325000D02*
X169170000Y-66925000D01*
X166510000Y-66925000D02*
X169170000Y-66925000D01*
X166510000Y-64325000D02*
X169170000Y-64325000D01*
X166510000Y-61725000D02*
X167840000Y-61725000D01*
X166510000Y-63055000D02*
X166510000Y-61725000D01*
%TO.C,J4*%
X125805000Y-84665000D02*
X102885000Y-84665000D01*
X128405000Y-89865000D02*
X102885000Y-89865000D01*
X127075000Y-84665000D02*
X128405000Y-84665000D01*
X125805000Y-84665000D02*
X125805000Y-87265000D01*
X128405000Y-87265000D02*
X128405000Y-89865000D01*
X128405000Y-84665000D02*
X128405000Y-85995000D01*
X125805000Y-87265000D02*
X128405000Y-87265000D01*
X102885000Y-84665000D02*
X102885000Y-89865000D01*
%TO.C,C12*%
X163792836Y-57163000D02*
X163577164Y-57163000D01*
X163792836Y-56443000D02*
X163577164Y-56443000D01*
%TO.C,C2*%
X134300000Y-60349420D02*
X134300000Y-60630580D01*
X133280000Y-60349420D02*
X133280000Y-60630580D01*
%TO.C,R10*%
X112918226Y-82825032D02*
X113392742Y-82825032D01*
X112918226Y-83870032D02*
X113392742Y-83870032D01*
%TO.C,C14*%
X133230000Y-63664420D02*
X133230000Y-63945580D01*
X134250000Y-63664420D02*
X134250000Y-63945580D01*
%TO.C,Vsw*%
X129250000Y-36464999D02*
X130580000Y-36464999D01*
X125380000Y-36464999D02*
X125380000Y-39124999D01*
X130580000Y-36464999D02*
X130580000Y-37794999D01*
X127980000Y-39124999D02*
X125380000Y-39124999D01*
X127980000Y-36464999D02*
X127980000Y-39124999D01*
X127980000Y-36464999D02*
X125380000Y-36464999D01*
%TO.C,C9*%
X165710000Y-57357836D02*
X165710000Y-57142164D01*
X164990000Y-57357836D02*
X164990000Y-57142164D01*
%TO.C,R9*%
X116168226Y-82825032D02*
X116642742Y-82825032D01*
X116168226Y-83870032D02*
X116642742Y-83870032D01*
%TO.C,C6*%
X139060000Y-46312164D02*
X139060000Y-46527836D01*
X138340000Y-46312164D02*
X138340000Y-46527836D01*
D15*
%TO.C,J10*%
X175900000Y-62250000D02*
X175900000Y-62250000D01*
X175900000Y-62450000D02*
X175900000Y-62450000D01*
D16*
X197600000Y-57100000D02*
X197600000Y-67600000D01*
X176700000Y-67600000D02*
X176700000Y-57100000D01*
X176700000Y-57100000D02*
X197600000Y-57100000D01*
X197600000Y-67600000D02*
X176700000Y-67600000D01*
D15*
X175900000Y-62250000D02*
G75*
G03*
X175900000Y-62450000I0J-100000D01*
G01*
X175900000Y-62450000D02*
G75*
G03*
X175900000Y-62250000I0J100000D01*
G01*
D14*
%TO.C,C22*%
X168977500Y-50236252D02*
X168977500Y-49713748D01*
X170447500Y-50236252D02*
X170447500Y-49713748D01*
%TO.C,R8*%
X106262258Y-82577500D02*
X105787742Y-82577500D01*
X106262258Y-83622500D02*
X105787742Y-83622500D01*
%TO.C,REF\u002A\u002A*%
X158051249Y-48610000D02*
G75*
G03*
X158051249Y-48610000I-1001249J0D01*
G01*
%TO.C,Vin*%
X122180000Y-40080000D02*
X122180000Y-37480000D01*
X122180000Y-42680000D02*
X120850000Y-42680000D01*
X122180000Y-40080000D02*
X119520000Y-40080000D01*
X119520000Y-40080000D02*
X119520000Y-37480000D01*
X122180000Y-41350000D02*
X122180000Y-42680000D01*
X122180000Y-37480000D02*
X119520000Y-37480000D01*
D15*
%TO.C,J2*%
X116050000Y-56050000D02*
X116050000Y-56050000D01*
D16*
X94350000Y-61200000D02*
X94350000Y-50700000D01*
X115250000Y-61200000D02*
X94350000Y-61200000D01*
D15*
X116050000Y-55850000D02*
X116050000Y-55850000D01*
D16*
X115250000Y-50700000D02*
X115250000Y-61200000D01*
X94350000Y-50700000D02*
X115250000Y-50700000D01*
D15*
X116050000Y-56050000D02*
G75*
G03*
X116050000Y-55850000I0J100000D01*
G01*
X116050000Y-55850000D02*
G75*
G03*
X116050000Y-56050000I0J-100000D01*
G01*
D14*
%TO.C,C20*%
X113321064Y-82232532D02*
X113039904Y-82232532D01*
X113321064Y-81212532D02*
X113039904Y-81212532D01*
%TO.C,C32*%
X155752000Y-70859420D02*
X155752000Y-71140580D01*
X156772000Y-70859420D02*
X156772000Y-71140580D01*
%TO.C,TP10*%
X168870000Y-69645000D02*
X170200000Y-69645000D01*
X168870000Y-70975000D02*
X168870000Y-69645000D01*
X168870000Y-74845000D02*
X171530000Y-74845000D01*
X168870000Y-72245000D02*
X171530000Y-72245000D01*
X171530000Y-72245000D02*
X171530000Y-74845000D01*
X168870000Y-72245000D02*
X168870000Y-74845000D01*
%TO.C,C23*%
X172435000Y-50236252D02*
X172435000Y-49713748D01*
X170965000Y-50236252D02*
X170965000Y-49713748D01*
%TO.C,R15*%
X163887500Y-70817742D02*
X163887500Y-71292258D01*
X164932500Y-70817742D02*
X164932500Y-71292258D01*
%TO.C,U6*%
X171340000Y-57937500D02*
X171340000Y-60367500D01*
X174410000Y-59697500D02*
X174410000Y-57937500D01*
%TO.C,C31*%
X137990000Y-68290580D02*
X137990000Y-68009420D01*
X139010000Y-68290580D02*
X139010000Y-68009420D01*
%TO.C,C19*%
X122852500Y-48161252D02*
X122852500Y-47638748D01*
X124322500Y-48161252D02*
X124322500Y-47638748D01*
%TO.C,Vgl*%
X160300000Y-62300000D02*
X160300000Y-60970000D01*
X160300000Y-66170000D02*
X162960000Y-66170000D01*
X160300000Y-63570000D02*
X162960000Y-63570000D01*
X160300000Y-63570000D02*
X160300000Y-66170000D01*
X160300000Y-60970000D02*
X161630000Y-60970000D01*
X162960000Y-63570000D02*
X162960000Y-66170000D01*
%TO.C,C29*%
X176010000Y-60109420D02*
X176010000Y-60390580D01*
X174990000Y-60109420D02*
X174990000Y-60390580D01*
%TO.C,R21*%
X138577501Y-71162258D02*
X138577501Y-70687742D01*
X139622501Y-71162258D02*
X139622501Y-70687742D01*
%TO.C,U7*%
X111210000Y-81950000D02*
X111210000Y-81150000D01*
X111210000Y-81950000D02*
X111210000Y-82750000D01*
X108090000Y-81950000D02*
X108090000Y-83750000D01*
X108090000Y-81950000D02*
X108090000Y-81150000D01*
%TO.C,R_Isense1*%
X116517017Y-54240000D02*
X116882983Y-54240000D01*
X116517017Y-57660000D02*
X116882983Y-57660000D01*
%TO.C,J6*%
X128405000Y-127865000D02*
X128405000Y-129195000D01*
X128405000Y-133065000D02*
X102885000Y-133065000D01*
X125805000Y-130465000D02*
X128405000Y-130465000D01*
X127075000Y-127865000D02*
X128405000Y-127865000D01*
X102885000Y-127865000D02*
X102885000Y-133065000D01*
X125805000Y-127865000D02*
X125805000Y-130465000D01*
X125805000Y-127865000D02*
X102885000Y-127865000D01*
X128405000Y-130465000D02*
X128405000Y-133065000D01*
%TO.C,U1*%
X131714520Y-50995000D02*
X131714520Y-50045000D01*
X128614520Y-47695000D02*
X128414520Y-47695000D01*
X131714520Y-48645000D02*
X131714520Y-47695000D01*
X131514520Y-47695000D02*
X131714520Y-47695000D01*
X128414520Y-48645000D02*
X128414520Y-47695000D01*
X131714520Y-50995000D02*
X131514520Y-50995000D01*
X128414520Y-51345000D02*
X128414520Y-50045000D01*
%TO.C,L1*%
X173590378Y-62590000D02*
X174389622Y-62590000D01*
X173590378Y-63710000D02*
X174389622Y-63710000D01*
%TO.C,R6*%
X164590000Y-55046359D02*
X164590000Y-55353641D01*
X165350000Y-55046359D02*
X165350000Y-55353641D01*
D17*
%TO.C,G\u002A\u002A\u002A*%
X179780310Y-37494937D02*
X180284318Y-37644341D01*
X180284318Y-37644341D02*
X180866289Y-37898820D01*
X180866289Y-37898820D02*
X181467274Y-38227587D01*
X181467274Y-38227587D02*
X181933021Y-38492000D01*
X181933021Y-38492000D02*
X182295548Y-38663464D01*
X182295548Y-38663464D02*
X182586524Y-38751393D01*
X182586524Y-38751393D02*
X182837621Y-38765200D01*
X182837621Y-38765200D02*
X183080508Y-38714299D01*
X183080508Y-38714299D02*
X183092040Y-38710543D01*
X183092040Y-38710543D02*
X183387829Y-38651386D01*
X183387829Y-38651386D02*
X183796197Y-38619923D01*
X183796197Y-38619923D02*
X184262692Y-38616016D01*
X184262692Y-38616016D02*
X184732861Y-38639522D01*
X184732861Y-38639522D02*
X185152253Y-38690303D01*
X185152253Y-38690303D02*
X185284647Y-38716198D01*
X185284647Y-38716198D02*
X185764217Y-38823521D01*
X185764217Y-38823521D02*
X186375275Y-38498099D01*
X186375275Y-38498099D02*
X186970946Y-38183406D01*
X186970946Y-38183406D02*
X187442045Y-37941612D01*
X187442045Y-37941612D02*
X187811631Y-37762678D01*
X187811631Y-37762678D02*
X188102762Y-37636563D01*
X188102762Y-37636563D02*
X188338496Y-37553224D01*
X188338496Y-37553224D02*
X188541891Y-37502621D01*
X188541891Y-37502621D02*
X188722000Y-37476163D01*
X188722000Y-37476163D02*
X189049267Y-37460246D01*
X189049267Y-37460246D02*
X189263863Y-37501421D01*
X189263863Y-37501421D02*
X189357000Y-37554648D01*
X189357000Y-37554648D02*
X189442660Y-37624979D01*
X189442660Y-37624979D02*
X189461890Y-37675907D01*
X189461890Y-37675907D02*
X189391395Y-37719150D01*
X189391395Y-37719150D02*
X189207876Y-37766427D01*
X189207876Y-37766427D02*
X188888036Y-37829455D01*
X188888036Y-37829455D02*
X188764333Y-37852752D01*
X188764333Y-37852752D02*
X188384590Y-37957009D01*
X188384590Y-37957009D02*
X188011778Y-38137571D01*
X188011778Y-38137571D02*
X187684018Y-38350615D01*
X187684018Y-38350615D02*
X187344555Y-38584962D01*
X187344555Y-38584962D02*
X186991837Y-38821582D01*
X186991837Y-38821582D02*
X186699007Y-39011449D01*
X186699007Y-39011449D02*
X186684600Y-39020495D01*
X186684600Y-39020495D02*
X186456973Y-39172380D01*
X186456973Y-39172380D02*
X186301743Y-39293778D01*
X186301743Y-39293778D02*
X186256748Y-39348695D01*
X186256748Y-39348695D02*
X186322516Y-39428915D01*
X186322516Y-39428915D02*
X186442333Y-39504533D01*
X186442333Y-39504533D02*
X186605101Y-39622975D01*
X186605101Y-39622975D02*
X186606780Y-39739637D01*
X186606780Y-39739637D02*
X186444859Y-39867907D01*
X186444859Y-39867907D02*
X186366339Y-39909489D01*
X186366339Y-39909489D02*
X186054850Y-40004310D01*
X186054850Y-40004310D02*
X185858339Y-39982540D01*
X185858339Y-39982540D02*
X185645254Y-39920862D01*
X185645254Y-39920862D02*
X185511804Y-39884384D01*
X185511804Y-39884384D02*
X185403184Y-39934706D01*
X185403184Y-39934706D02*
X185331521Y-40107667D01*
X185331521Y-40107667D02*
X185263420Y-40323105D01*
X185263420Y-40323105D02*
X185149805Y-40617477D01*
X185149805Y-40617477D02*
X185049217Y-40850914D01*
X185049217Y-40850914D02*
X184885849Y-41290472D01*
X184885849Y-41290472D02*
X184839069Y-41649627D01*
X184839069Y-41649627D02*
X184904055Y-41966010D01*
X184904055Y-41966010D02*
X184905742Y-41970333D01*
X184905742Y-41970333D02*
X184925094Y-42220307D01*
X184925094Y-42220307D02*
X184833529Y-42492883D01*
X184833529Y-42492883D02*
X184658236Y-42712681D01*
X184658236Y-42712681D02*
X184630417Y-42733657D01*
X184630417Y-42733657D02*
X184331890Y-42847715D01*
X184331890Y-42847715D02*
X183999803Y-42828520D01*
X183999803Y-42828520D02*
X183698711Y-42680830D01*
X183698711Y-42680830D02*
X183677701Y-42663438D01*
X183677701Y-42663438D02*
X183570942Y-42564107D01*
X183570942Y-42564107D02*
X183504009Y-42462739D01*
X183504009Y-42462739D02*
X183469960Y-42321426D01*
X183469960Y-42321426D02*
X183461854Y-42102261D01*
X183461854Y-42102261D02*
X183472751Y-41767338D01*
X183472751Y-41767338D02*
X183481024Y-41589333D01*
X183481024Y-41589333D02*
X183441864Y-41189524D01*
X183441864Y-41189524D02*
X183284675Y-40785000D01*
X183284675Y-40785000D02*
X183151057Y-40493633D01*
X183151057Y-40493633D02*
X183046923Y-40217547D01*
X183046923Y-40217547D02*
X183013214Y-40097927D01*
X183013214Y-40097927D02*
X182968577Y-39930562D01*
X182968577Y-39930562D02*
X182897632Y-39874790D01*
X182897632Y-39874790D02*
X182745155Y-39907352D01*
X182745155Y-39907352D02*
X182642949Y-39941968D01*
X182642949Y-39941968D02*
X182390879Y-40004668D01*
X182390879Y-40004668D02*
X182177998Y-39979929D01*
X182177998Y-39979929D02*
X182044160Y-39930541D01*
X182044160Y-39930541D02*
X181849048Y-39852370D01*
X181849048Y-39852370D02*
X181734358Y-39812602D01*
X181734358Y-39812602D02*
X181726660Y-39811333D01*
X181726660Y-39811333D02*
X181698475Y-39741922D01*
X181698475Y-39741922D02*
X181694667Y-39679929D01*
X181694667Y-39679929D02*
X181766663Y-39563737D01*
X181766663Y-39563737D02*
X181940926Y-39462777D01*
X181940926Y-39462777D02*
X181950915Y-39459196D01*
X181950915Y-39459196D02*
X182207164Y-39369867D01*
X182207164Y-39369867D02*
X181784659Y-39103767D01*
X181784659Y-39103767D02*
X181512153Y-38927699D01*
X181512153Y-38927699D02*
X181165295Y-38697459D01*
X181165295Y-38697459D02*
X180808503Y-38455920D01*
X180808503Y-38455920D02*
X180722131Y-38396609D01*
X180722131Y-38396609D02*
X180235476Y-38089250D01*
X180235476Y-38089250D02*
X179820552Y-37894827D01*
X179820552Y-37894827D02*
X179438661Y-37797904D01*
X179438661Y-37797904D02*
X179175833Y-37779805D01*
X179175833Y-37779805D02*
X178966394Y-37749239D01*
X178966394Y-37749239D02*
X178908377Y-37670263D01*
X178908377Y-37670263D02*
X179009591Y-37560509D01*
X179009591Y-37560509D02*
X179064434Y-37528312D01*
X179064434Y-37528312D02*
X179368827Y-37454848D01*
X179368827Y-37454848D02*
X179780310Y-37494937D01*
X179780310Y-37494937D02*
X179780310Y-37494937D01*
G36*
X179780310Y-37494937D02*
G01*
X180284318Y-37644341D01*
X180866289Y-37898820D01*
X181467274Y-38227587D01*
X181933021Y-38492000D01*
X182295548Y-38663464D01*
X182586524Y-38751393D01*
X182837621Y-38765200D01*
X183080508Y-38714299D01*
X183092040Y-38710543D01*
X183387829Y-38651386D01*
X183796197Y-38619923D01*
X184262692Y-38616016D01*
X184732861Y-38639522D01*
X185152253Y-38690303D01*
X185284647Y-38716198D01*
X185764217Y-38823521D01*
X186375275Y-38498099D01*
X186970946Y-38183406D01*
X187442045Y-37941612D01*
X187811631Y-37762678D01*
X188102762Y-37636563D01*
X188338496Y-37553224D01*
X188541891Y-37502621D01*
X188722000Y-37476163D01*
X189049267Y-37460246D01*
X189263863Y-37501421D01*
X189357000Y-37554648D01*
X189442660Y-37624979D01*
X189461890Y-37675907D01*
X189391395Y-37719150D01*
X189207876Y-37766427D01*
X188888036Y-37829455D01*
X188764333Y-37852752D01*
X188384590Y-37957009D01*
X188011778Y-38137571D01*
X187684018Y-38350615D01*
X187344555Y-38584962D01*
X186991837Y-38821582D01*
X186699007Y-39011449D01*
X186684600Y-39020495D01*
X186456973Y-39172380D01*
X186301743Y-39293778D01*
X186256748Y-39348695D01*
X186322516Y-39428915D01*
X186442333Y-39504533D01*
X186605101Y-39622975D01*
X186606780Y-39739637D01*
X186444859Y-39867907D01*
X186366339Y-39909489D01*
X186054850Y-40004310D01*
X185858339Y-39982540D01*
X185645254Y-39920862D01*
X185511804Y-39884384D01*
X185403184Y-39934706D01*
X185331521Y-40107667D01*
X185263420Y-40323105D01*
X185149805Y-40617477D01*
X185049217Y-40850914D01*
X184885849Y-41290472D01*
X184839069Y-41649627D01*
X184904055Y-41966010D01*
X184905742Y-41970333D01*
X184925094Y-42220307D01*
X184833529Y-42492883D01*
X184658236Y-42712681D01*
X184630417Y-42733657D01*
X184331890Y-42847715D01*
X183999803Y-42828520D01*
X183698711Y-42680830D01*
X183677701Y-42663438D01*
X183570942Y-42564107D01*
X183504009Y-42462739D01*
X183469960Y-42321426D01*
X183461854Y-42102261D01*
X183472751Y-41767338D01*
X183481024Y-41589333D01*
X183441864Y-41189524D01*
X183284675Y-40785000D01*
X183151057Y-40493633D01*
X183046923Y-40217547D01*
X183013214Y-40097927D01*
X182968577Y-39930562D01*
X182897632Y-39874790D01*
X182745155Y-39907352D01*
X182642949Y-39941968D01*
X182390879Y-40004668D01*
X182177998Y-39979929D01*
X182044160Y-39930541D01*
X181849048Y-39852370D01*
X181734358Y-39812602D01*
X181726660Y-39811333D01*
X181698475Y-39741922D01*
X181694667Y-39679929D01*
X181766663Y-39563737D01*
X181940926Y-39462777D01*
X181950915Y-39459196D01*
X182207164Y-39369867D01*
X181784659Y-39103767D01*
X181512153Y-38927699D01*
X181165295Y-38697459D01*
X180808503Y-38455920D01*
X180722131Y-38396609D01*
X180235476Y-38089250D01*
X179820552Y-37894827D01*
X179438661Y-37797904D01*
X179175833Y-37779805D01*
X178966394Y-37749239D01*
X178908377Y-37670263D01*
X179009591Y-37560509D01*
X179064434Y-37528312D01*
X179368827Y-37454848D01*
X179780310Y-37494937D01*
G37*
X179780310Y-37494937D02*
X180284318Y-37644341D01*
X180866289Y-37898820D01*
X181467274Y-38227587D01*
X181933021Y-38492000D01*
X182295548Y-38663464D01*
X182586524Y-38751393D01*
X182837621Y-38765200D01*
X183080508Y-38714299D01*
X183092040Y-38710543D01*
X183387829Y-38651386D01*
X183796197Y-38619923D01*
X184262692Y-38616016D01*
X184732861Y-38639522D01*
X185152253Y-38690303D01*
X185284647Y-38716198D01*
X185764217Y-38823521D01*
X186375275Y-38498099D01*
X186970946Y-38183406D01*
X187442045Y-37941612D01*
X187811631Y-37762678D01*
X188102762Y-37636563D01*
X188338496Y-37553224D01*
X188541891Y-37502621D01*
X188722000Y-37476163D01*
X189049267Y-37460246D01*
X189263863Y-37501421D01*
X189357000Y-37554648D01*
X189442660Y-37624979D01*
X189461890Y-37675907D01*
X189391395Y-37719150D01*
X189207876Y-37766427D01*
X188888036Y-37829455D01*
X188764333Y-37852752D01*
X188384590Y-37957009D01*
X188011778Y-38137571D01*
X187684018Y-38350615D01*
X187344555Y-38584962D01*
X186991837Y-38821582D01*
X186699007Y-39011449D01*
X186684600Y-39020495D01*
X186456973Y-39172380D01*
X186301743Y-39293778D01*
X186256748Y-39348695D01*
X186322516Y-39428915D01*
X186442333Y-39504533D01*
X186605101Y-39622975D01*
X186606780Y-39739637D01*
X186444859Y-39867907D01*
X186366339Y-39909489D01*
X186054850Y-40004310D01*
X185858339Y-39982540D01*
X185645254Y-39920862D01*
X185511804Y-39884384D01*
X185403184Y-39934706D01*
X185331521Y-40107667D01*
X185263420Y-40323105D01*
X185149805Y-40617477D01*
X185049217Y-40850914D01*
X184885849Y-41290472D01*
X184839069Y-41649627D01*
X184904055Y-41966010D01*
X184905742Y-41970333D01*
X184925094Y-42220307D01*
X184833529Y-42492883D01*
X184658236Y-42712681D01*
X184630417Y-42733657D01*
X184331890Y-42847715D01*
X183999803Y-42828520D01*
X183698711Y-42680830D01*
X183677701Y-42663438D01*
X183570942Y-42564107D01*
X183504009Y-42462739D01*
X183469960Y-42321426D01*
X183461854Y-42102261D01*
X183472751Y-41767338D01*
X183481024Y-41589333D01*
X183441864Y-41189524D01*
X183284675Y-40785000D01*
X183151057Y-40493633D01*
X183046923Y-40217547D01*
X183013214Y-40097927D01*
X182968577Y-39930562D01*
X182897632Y-39874790D01*
X182745155Y-39907352D01*
X182642949Y-39941968D01*
X182390879Y-40004668D01*
X182177998Y-39979929D01*
X182044160Y-39930541D01*
X181849048Y-39852370D01*
X181734358Y-39812602D01*
X181726660Y-39811333D01*
X181698475Y-39741922D01*
X181694667Y-39679929D01*
X181766663Y-39563737D01*
X181940926Y-39462777D01*
X181950915Y-39459196D01*
X182207164Y-39369867D01*
X181784659Y-39103767D01*
X181512153Y-38927699D01*
X181165295Y-38697459D01*
X180808503Y-38455920D01*
X180722131Y-38396609D01*
X180235476Y-38089250D01*
X179820552Y-37894827D01*
X179438661Y-37797904D01*
X179175833Y-37779805D01*
X178966394Y-37749239D01*
X178908377Y-37670263D01*
X179009591Y-37560509D01*
X179064434Y-37528312D01*
X179368827Y-37454848D01*
X179780310Y-37494937D01*
D14*
%TO.C,C24*%
X166990000Y-50236252D02*
X166990000Y-49713748D01*
X168460000Y-50236252D02*
X168460000Y-49713748D01*
D16*
%TO.C,J1*%
X94350000Y-49200000D02*
X94350000Y-38700000D01*
X115250000Y-49200000D02*
X94350000Y-49200000D01*
D15*
X116050000Y-43850000D02*
X116050000Y-43850000D01*
D16*
X94350000Y-38700000D02*
X115250000Y-38700000D01*
X115250000Y-38700000D02*
X115250000Y-49200000D01*
D15*
X116050000Y-44050000D02*
X116050000Y-44050000D01*
X116050000Y-43850000D02*
G75*
G03*
X116050000Y-44050000I0J-100000D01*
G01*
X116050000Y-44050000D02*
G75*
G03*
X116050000Y-43850000I0J100000D01*
G01*
D14*
%TO.C,Vout*%
X174812000Y-41656000D02*
X172152000Y-41656000D01*
X172152000Y-41656000D02*
X172152000Y-39056000D01*
X174812000Y-41656000D02*
X174812000Y-39056000D01*
X174812000Y-42926000D02*
X174812000Y-44256000D01*
X174812000Y-39056000D02*
X172152000Y-39056000D01*
X174812000Y-44256000D02*
X173482000Y-44256000D01*
%TO.C,Vgh*%
X129250000Y-42980000D02*
X130580000Y-42980000D01*
X127980000Y-42980000D02*
X127980000Y-45640000D01*
X130580000Y-42980000D02*
X130580000Y-44310000D01*
X125380000Y-42980000D02*
X125380000Y-45640000D01*
X127980000Y-42980000D02*
X125380000Y-42980000D01*
X127980000Y-45640000D02*
X125380000Y-45640000D01*
%TO.C,J3*%
X166385000Y-84665000D02*
X166385000Y-89865000D01*
X189305000Y-84665000D02*
X166385000Y-84665000D01*
X191905000Y-84665000D02*
X191905000Y-85995000D01*
X190575000Y-84665000D02*
X191905000Y-84665000D01*
X191905000Y-87265000D02*
X191905000Y-89865000D01*
X191905000Y-89865000D02*
X166385000Y-89865000D01*
X189305000Y-87265000D02*
X191905000Y-87265000D01*
X189305000Y-84665000D02*
X189305000Y-87265000D01*
%TO.C,REF\u002A\u002A*%
X136240000Y-68290580D02*
X136240000Y-68009420D01*
X135220000Y-68290580D02*
X135220000Y-68009420D01*
%TO.C,U2*%
X137485000Y-58370000D02*
X137785000Y-58370000D01*
X137785000Y-58370000D02*
X137785000Y-52250000D01*
X132765000Y-52250000D02*
X132415000Y-52250000D01*
X132415000Y-58370000D02*
X132415000Y-52250000D01*
X132715000Y-58370000D02*
X132415000Y-58370000D01*
%TO.C,5V P*%
X132070000Y-72425000D02*
X132070000Y-71095000D01*
X132070000Y-71095000D02*
X133400000Y-71095000D01*
X132070000Y-76295000D02*
X134730000Y-76295000D01*
X132070000Y-73695000D02*
X134730000Y-73695000D01*
X132070000Y-73695000D02*
X132070000Y-76295000D01*
X134730000Y-73695000D02*
X134730000Y-76295000D01*
%TO.C,J5*%
X189300000Y-127860000D02*
X189300000Y-130460000D01*
X166380000Y-127860000D02*
X166380000Y-133060000D01*
X191900000Y-130460000D02*
X191900000Y-133060000D01*
X191900000Y-127860000D02*
X191900000Y-129190000D01*
X189300000Y-127860000D02*
X166380000Y-127860000D01*
X191900000Y-133060000D02*
X166380000Y-133060000D01*
X189300000Y-130460000D02*
X191900000Y-130460000D01*
X190570000Y-127860000D02*
X191900000Y-127860000D01*
%TO.C,U5*%
X132415000Y-51130000D02*
X132415000Y-45010000D01*
X137485000Y-51130000D02*
X137785000Y-51130000D01*
X137785000Y-51130000D02*
X137785000Y-45010000D01*
X132715000Y-51130000D02*
X132415000Y-51130000D01*
X132765000Y-45010000D02*
X132415000Y-45010000D01*
%TO.C,R20*%
X171587742Y-54320000D02*
X172062258Y-54320000D01*
X171587742Y-55365000D02*
X172062258Y-55365000D01*
D16*
%TO.C,J8*%
X197618000Y-56304000D02*
X176718000Y-56304000D01*
D15*
X175918000Y-50954000D02*
X175918000Y-50954000D01*
X175918000Y-51154000D02*
X175918000Y-51154000D01*
D16*
X197618000Y-45804000D02*
X197618000Y-56304000D01*
X176718000Y-45804000D02*
X197618000Y-45804000D01*
X176718000Y-56304000D02*
X176718000Y-45804000D01*
D15*
X175918000Y-50954000D02*
G75*
G03*
X175918000Y-51154000I0J-100000D01*
G01*
X175918000Y-51154000D02*
G75*
G03*
X175918000Y-50954000I0J100000D01*
G01*
D14*
%TO.C,C14*%
X135935000Y-63664420D02*
X135935000Y-63945580D01*
X134915000Y-63664420D02*
X134915000Y-63945580D01*
%TO.C,C7*%
X161825000Y-58300836D02*
X161825000Y-58085164D01*
X162545000Y-58300836D02*
X162545000Y-58085164D01*
%TO.C,REF\u002A\u002A*%
X158051249Y-53150000D02*
G75*
G03*
X158051249Y-53150000I-1001249J0D01*
G01*
%TO.C,C13*%
X136590000Y-60359420D02*
X136590000Y-60640580D01*
X137610000Y-60359420D02*
X137610000Y-60640580D01*
%TO.C,C8*%
X161815000Y-55675164D02*
X161815000Y-55890836D01*
X162535000Y-55675164D02*
X162535000Y-55890836D01*
%TO.C,R5*%
X138577500Y-73687740D02*
X138577500Y-74162256D01*
X139622500Y-73687740D02*
X139622500Y-74162256D01*
%TO.C,Vsw*%
X156070000Y-60970000D02*
X157400000Y-60970000D01*
X156070000Y-62300000D02*
X156070000Y-60970000D01*
X156070000Y-66170000D02*
X158730000Y-66170000D01*
X156070000Y-63570000D02*
X158730000Y-63570000D01*
X158730000Y-63570000D02*
X158730000Y-66170000D01*
X156070000Y-63570000D02*
X156070000Y-66170000D01*
%TO.C,R16*%
X166822742Y-69602500D02*
X167297258Y-69602500D01*
X166822742Y-68557500D02*
X167297258Y-68557500D01*
D15*
%TO.C,J9*%
X116050000Y-67900000D02*
X116050000Y-67900000D01*
D16*
X94350000Y-62550000D02*
X115250000Y-62550000D01*
D15*
X116050000Y-67700000D02*
X116050000Y-67700000D01*
D16*
X115250000Y-62550000D02*
X115250000Y-73050000D01*
X115250000Y-73050000D02*
X94350000Y-73050000D01*
X94350000Y-73050000D02*
X94350000Y-62550000D01*
D15*
X116050000Y-67700000D02*
G75*
G03*
X116050000Y-67900000I0J-100000D01*
G01*
X116050000Y-67900000D02*
G75*
G03*
X116050000Y-67700000I0J100000D01*
G01*
D14*
%TO.C,Vc*%
X127370000Y-68420000D02*
X127370000Y-71020000D01*
X127370000Y-67150000D02*
X127370000Y-65820000D01*
X127370000Y-71020000D02*
X130030000Y-71020000D01*
X127370000Y-65820000D02*
X128700000Y-65820000D01*
X130030000Y-68420000D02*
X130030000Y-71020000D01*
X127370000Y-68420000D02*
X130030000Y-68420000D01*
X165080000Y-45260000D02*
X165080000Y-42660000D01*
X165080000Y-42660000D02*
X162420000Y-42660000D01*
X165080000Y-47860000D02*
X163750000Y-47860000D01*
X162420000Y-45260000D02*
X162420000Y-42660000D01*
X165080000Y-45260000D02*
X162420000Y-45260000D01*
X165080000Y-46530000D02*
X165080000Y-47860000D01*
%TO.C,REF\u002A\u002A*%
X154360000Y-70859420D02*
X154360000Y-71140580D01*
X155380000Y-70859420D02*
X155380000Y-71140580D01*
%TO.C,C26*%
X172420000Y-65799420D02*
X172420000Y-66080580D01*
X171400000Y-65799420D02*
X171400000Y-66080580D01*
%TO.C,C3*%
X137609998Y-63664415D02*
X137609998Y-63945575D01*
X136589998Y-63664415D02*
X136589998Y-63945575D01*
%TD*%
M02*
