M48
; DRILL file {KiCad (6.0.1)} date Wed Aug  2 16:39:00 2023
; FORMAT={-:-/ absolute / inch / decimal}
; #@! TF.CreationDate,2023-08-02T16:39:00-05:00
; #@! TF.GenerationSoftware,Kicad,Pcbnew,(6.0.1)
; #@! TF.FileFunction,Plated,1,4,PTH
FMAT,2
INCH
; #@! TA.AperFunction,Plated,PTH,ViaDrill
T1C0.0079
; #@! TA.AperFunction,Plated,PTH,ViaDrill
T2C0.0118
; #@! TA.AperFunction,Plated,PTH,ViaDrill
T3C0.0157
; #@! TA.AperFunction,Plated,PTH,ComponentDrill
T4C0.0300
; #@! TA.AperFunction,Plated,PTH,ComponentDrill
T5C0.0394
; #@! TA.AperFunction,Plated,PTH,ComponentDrill
T6C0.0709
%
G90
G05
T1
X5.0832Y-1.8766
X5.1773Y-1.901
T2
X4.3094Y-3.1178
X4.3287Y-3.0984
X4.3488Y-3.0731
X4.3681Y-3.1358
X4.3681Y-3.0538
X4.3875Y-3.0344
X4.3898Y-3.1161
X4.4069Y-3.015
X4.4091Y-3.0968
X4.4262Y-2.9957
X4.4285Y-3.0774
X4.4479Y-3.058
X4.4491Y-2.9723
X4.4672Y-3.0387
X4.4685Y-2.9528
X4.488Y-2.9333
X4.4901Y-3.0153
X4.5075Y-2.9138
X4.5096Y-2.9958
X4.5118Y-2.3071
X4.5118Y-2.3346
X4.5118Y-2.3622
X4.5118Y-2.3898
X4.5118Y-2.4173
X4.5118Y-2.4449
X4.5118Y-2.4724
X4.5118Y-2.5
X4.5118Y-2.5276
X4.5118Y-2.5551
X4.5118Y-2.5827
X4.5118Y-2.6102
X4.5118Y-2.6378
X4.5118Y-2.6654
X4.5118Y-2.6929
X4.5118Y-2.7205
X4.5118Y-2.748
X4.5118Y-2.7756
X4.5118Y-2.8031
X4.5118Y-2.8307
X4.5118Y-2.8583
X4.5118Y-2.8858
X4.529Y-2.9763
X4.5485Y-2.9568
X4.5846Y-2.3081
X4.5846Y-2.3356
X4.5846Y-2.3632
X4.5846Y-2.3907
X4.5846Y-2.4183
X4.5846Y-2.4459
X4.5846Y-2.4734
X4.5846Y-2.501
X4.5846Y-2.5285
X4.5846Y-2.5561
X4.5846Y-2.5837
X4.5846Y-2.6112
X4.5846Y-2.6388
X4.5846Y-2.6663
X4.5846Y-2.6939
X4.5846Y-2.7215
X4.5846Y-2.749
X4.5846Y-2.7766
X4.5846Y-2.8041
X4.5846Y-2.8317
X4.5846Y-2.8593
X4.5846Y-2.8868
X4.5846Y-2.9144
X4.5846Y-2.9419
X4.5848Y-2.9413
X4.5848Y-2.9689
X4.5848Y-2.9965
X4.5848Y-3.024
X4.5848Y-3.0516
X4.5848Y-3.0791
X4.5848Y-3.1067
X4.5848Y-3.1343
X4.6457Y-2.3071
X4.6457Y-2.3346
X4.6457Y-2.3622
X4.6457Y-2.3898
X4.6457Y-2.4173
X4.6457Y-2.4449
X4.6457Y-2.4724
X4.6457Y-2.5
X4.6457Y-2.5276
X4.6457Y-2.5551
X4.6457Y-2.5827
X4.6457Y-2.6102
X4.6457Y-2.6378
X4.6457Y-2.6654
X4.6457Y-2.6929
X4.6457Y-2.7205
X4.6457Y-2.748
X4.6457Y-2.7756
X4.6457Y-2.8031
X4.6457Y-2.8307
X4.6457Y-2.8583
X4.6457Y-2.8858
X4.6457Y-2.9134
X4.6457Y-2.9409
X4.6459Y-2.9679
X4.6459Y-2.9955
X4.6459Y-3.023
X4.6459Y-3.0506
X4.6459Y-3.0781
X4.6459Y-3.1057
X4.6459Y-3.1333
X4.6459Y-3.1608
X4.6459Y-3.1884
X4.6459Y-3.2159
X4.6459Y-3.2435
X5.0982Y-1.9415
X5.1073Y-1.9939
X5.1207Y-1.9502
X5.1336Y-2.0278
X5.1403Y-1.9415
X5.2301Y-1.7045
X5.2301Y-1.7331
X5.2323Y-2.5366
X5.2323Y-2.5652
X5.2323Y-2.5937
X5.2598Y-1.7045
X5.2598Y-1.7331
X5.2618Y-2.5366
X5.2618Y-2.5652
X5.2618Y-2.5937
X5.2894Y-1.7045
X5.2894Y-1.7331
X5.2894Y-1.7961
X5.2896Y-1.7679
X5.2923Y-2.5366
X5.2923Y-2.5652
X5.2923Y-2.5937
X5.3199Y-1.7045
X5.3199Y-1.7331
X5.3199Y-1.7961
X5.3201Y-1.7679
X5.3219Y-2.5366
X5.3219Y-2.5366
X5.3219Y-2.5652
X5.3219Y-2.5937
X5.3494Y-1.7045
X5.3494Y-1.7331
X5.3494Y-1.7961
X5.3496Y-1.7679
X5.3514Y-2.5366
X5.3514Y-2.5652
X5.3514Y-2.5937
X5.3799Y-1.7045
X5.3799Y-1.7331
X5.3799Y-1.7961
X5.3801Y-1.7679
X5.3819Y-2.5366
X5.3819Y-2.5652
X5.3819Y-2.5937
X5.4094Y-1.7045
X5.4094Y-1.7331
X5.4094Y-1.7961
X5.4096Y-1.7679
X5.4114Y-2.5366
X5.4114Y-2.5652
X5.4114Y-2.5937
X5.4469Y-2.1783
X5.4469Y-2.2032
X5.4469Y-2.2281
X5.4469Y-2.253
X5.4469Y-2.2778
X5.4469Y-2.3027
X5.4469Y-2.3287
X5.448Y-1.9665
X5.448Y-1.9914
X5.448Y-2.0163
X5.448Y-2.0412
X5.448Y-2.0661
X5.448Y-2.0909
X5.4695Y-2.2672
X5.4695Y-2.292
X5.4695Y-2.3169
X5.4715Y-1.9774
X5.4715Y-2.001
X5.4715Y-2.0266
X6.2545Y-1.8512
X6.2545Y-1.8797
X6.2545Y-1.9083
X6.2557Y-2.2992
X6.2557Y-2.3278
X6.2557Y-2.3563
X6.2841Y-1.8512
X6.2841Y-1.8797
X6.2841Y-1.9083
X6.2852Y-2.2992
X6.2852Y-2.3278
X6.2852Y-2.3563
X6.3138Y-2.2992
X6.3146Y-1.8512
X6.3146Y-1.8797
X6.3146Y-1.9083
X6.3157Y-2.3278
X6.3157Y-2.3563
X6.3441Y-1.8512
X6.3441Y-1.8797
X6.3441Y-1.9083
X6.3453Y-2.3278
X6.3453Y-2.3563
X6.3864Y-2.2541
X6.4106Y-2.3232
X6.4961Y-2.1569
X6.5094Y-2.2732
X6.5102Y-2.2327
X6.5232Y-2.1925
X6.5303Y-2.2118
X6.5594Y-2.1996
X6.5606Y-2.224
T3
X4.2776Y-3.1791
X4.7638Y-1.8504
X4.8043Y-1.8504
X4.8449Y-1.8504
X4.8854Y-1.8504
X4.926Y-1.8504
X4.9665Y-1.8504
X5.1214Y-1.877
X5.2844Y-1.4329
X5.2844Y-1.4703
X5.2844Y-1.5077
X5.2844Y-1.5431
X5.2844Y-1.5805
X5.3219Y-1.4329
X5.3219Y-1.4703
X5.3219Y-1.5077
X5.3219Y-1.5431
X5.3219Y-1.5805
X5.3437Y-2.6526
X5.3593Y-1.4329
X5.3593Y-1.4703
X5.3593Y-1.5077
X5.3593Y-1.5431
X5.3593Y-1.5805
X5.3947Y-1.4329
X5.3947Y-1.4703
X5.3947Y-1.5077
X5.3947Y-1.5431
X5.3947Y-1.5805
X5.4006Y-2.6526
X5.4429Y-2.8543
X5.4528Y-2.6526
X5.4764Y-2.878
X5.4764Y-2.8248
X5.998Y-2.1319
X6.0453Y-2.8248
X6.0783Y-3.1205
X6.0984Y-2.8248
X6.1535Y-2.8268
X6.2136Y-1.439
X6.2136Y-1.4764
X6.2136Y-1.5118
X6.2136Y-1.5492
X6.2136Y-1.5866
X6.251Y-1.439
X6.251Y-1.4764
X6.251Y-1.5118
X6.251Y-1.5492
X6.251Y-1.5866
X6.2884Y-1.439
X6.2884Y-1.4764
X6.2884Y-1.5118
X6.2884Y-1.5492
X6.2884Y-1.5866
X6.3238Y-1.439
X6.3238Y-1.4764
X6.3238Y-1.5118
X6.3238Y-1.5492
X6.3238Y-1.5866
X6.3815Y-2.0814
X6.3815Y-2.1169
X6.3815Y-2.1488
X6.5896Y-1.9262
X6.627Y-1.9262
X6.6644Y-1.9262
X6.7018Y-1.9262
X6.7295Y-2.1578
X6.7392Y-1.9262
X6.7618Y-2.3708
X6.7618Y-2.4082
X6.7657Y-2.626
X6.7766Y-1.9262
X6.8091Y-2.4862
X6.8307Y-2.626
X6.8425Y-2.2483
X6.8445Y-2.139
X6.9094Y-2.4035
X7.3118Y-2.3532
X7.3585Y-2.3532
X7.4053Y-2.3532
T4
X5.6374Y-2.7043
X5.6374Y-2.9043
X5.9374Y-2.7043
X5.9374Y-3.0043
T5
X4.103Y-3.3856
X4.103Y-3.4856
X4.103Y-5.0864
X4.103Y-5.1864
X4.203Y-3.3856
X4.203Y-3.4856
X4.203Y-5.0864
X4.203Y-5.1864
X4.303Y-3.3856
X4.303Y-3.4856
X4.303Y-5.0864
X4.303Y-5.1864
X4.403Y-3.3856
X4.403Y-3.4856
X4.403Y-5.0864
X4.403Y-5.1864
X4.503Y-3.3856
X4.503Y-3.4856
X4.503Y-5.0864
X4.503Y-5.1864
X4.603Y-3.3856
X4.603Y-3.4856
X4.603Y-5.0864
X4.603Y-5.1864
X4.6348Y-1.528
X4.6348Y-1.628
X4.703Y-3.3856
X4.703Y-3.4856
X4.703Y-5.0864
X4.703Y-5.1864
X4.7579Y-1.528
X4.7579Y-1.628
X4.803Y-3.3856
X4.803Y-3.4856
X4.803Y-5.0864
X4.803Y-5.1864
X4.903Y-3.3856
X4.903Y-3.4856
X4.903Y-5.0864
X4.903Y-5.1864
X4.9242Y-2.6437
X4.9242Y-2.7437
X4.9876Y-1.6162
X4.9886Y-1.488
X4.9886Y-1.7445
X5.003Y-3.3856
X5.003Y-3.4856
X5.003Y-5.0864
X5.003Y-5.1864
X5.0669Y-2.6437
X5.0669Y-2.7437
X5.0876Y-1.6162
X5.0886Y-1.488
X5.0886Y-1.7445
X5.252Y-2.8514
X5.252Y-2.9514
X5.3793Y-3.0709
X5.4793Y-3.0709
X6.1392Y-2.9528
X6.1831Y-1.9138
X6.1831Y-2.0925
X6.1969Y-2.4528
X6.1969Y-2.5528
X6.2392Y-2.9528
X6.3634Y-2.4528
X6.3634Y-2.5528
X6.4469Y-1.7319
X6.4469Y-1.8319
X6.5776Y-1.7319
X6.5776Y-1.8319
X6.6028Y-5.0862
X6.6028Y-5.1862
X6.603Y-3.3856
X6.603Y-3.4856
X6.6079Y-2.4825
X6.6079Y-2.5825
X6.7008Y-2.7943
X6.7008Y-2.8943
X6.7028Y-5.0862
X6.7028Y-5.1862
X6.703Y-3.3856
X6.703Y-3.4856
X6.8028Y-5.0862
X6.8028Y-5.1862
X6.803Y-3.3856
X6.803Y-3.4856
X6.83Y-1.59
X6.83Y-1.69
X6.9028Y-5.0862
X6.9028Y-5.1862
X6.903Y-3.3856
X6.903Y-3.4856
X7.0028Y-5.0862
X7.0028Y-5.1862
X7.003Y-3.3856
X7.003Y-3.4856
X7.1028Y-5.0862
X7.1028Y-5.1862
X7.103Y-3.3856
X7.103Y-3.4856
X7.2028Y-5.0862
X7.2028Y-5.1862
X7.203Y-3.3856
X7.203Y-3.4856
X7.3028Y-5.0862
X7.3028Y-5.1862
X7.303Y-3.3856
X7.303Y-3.4856
X7.4028Y-5.0862
X7.4028Y-5.1862
X7.403Y-3.3856
X7.403Y-3.4856
X7.5028Y-5.0862
X7.5028Y-5.1862
X7.503Y-3.3856
X7.503Y-3.4856
T6
X3.8248Y-1.7303
X3.8248Y-2.2028
X3.8248Y-2.6693
X4.4272Y-1.7303
X4.4272Y-2.2028
X4.4272Y-2.6693
X7.0669Y-2.4547
X7.0676Y-2.01
X7.6693Y-2.4547
X7.67Y-2.01
T0
M30
