%TF.GenerationSoftware,KiCad,Pcbnew,(5.1.7-0-10_14)*%
%TF.CreationDate,2021-02-01T11:36:59-06:00*%
%TF.ProjectId,Q-test-circuit,512d7465-7374-42d6-9369-72637569742e,rev?*%
%TF.SameCoordinates,Original*%
%TF.FileFunction,Soldermask,Bot*%
%TF.FilePolarity,Negative*%
%FSLAX46Y46*%
G04 Gerber Fmt 4.6, Leading zero omitted, Abs format (unit mm)*
G04 Created by KiCad (PCBNEW (5.1.7-0-10_14)) date 2021-02-01 11:36:59*
%MOMM*%
%LPD*%
G01*
G04 APERTURE LIST*
%ADD10O,2.100000X2.100000*%
%ADD11C,1.640000*%
%ADD12C,4.300000*%
%ADD13C,1.000000*%
G04 APERTURE END LIST*
D10*
%TO.C,TP1*%
X117700000Y-109340000D03*
G36*
G01*
X116650000Y-107650000D02*
X116650000Y-105950000D01*
G75*
G02*
X116850000Y-105750000I200000J0D01*
G01*
X118550000Y-105750000D01*
G75*
G02*
X118750000Y-105950000I0J-200000D01*
G01*
X118750000Y-107650000D01*
G75*
G02*
X118550000Y-107850000I-200000J0D01*
G01*
X116850000Y-107850000D01*
G75*
G02*
X116650000Y-107650000I0J200000D01*
G01*
G37*
%TD*%
%TO.C,TP3*%
X210800000Y-110380000D03*
G36*
G01*
X209110000Y-111430000D02*
X207410000Y-111430000D01*
G75*
G02*
X207210000Y-111230000I0J200000D01*
G01*
X207210000Y-109530000D01*
G75*
G02*
X207410000Y-109330000I200000J0D01*
G01*
X209110000Y-109330000D01*
G75*
G02*
X209310000Y-109530000I0J-200000D01*
G01*
X209310000Y-111230000D01*
G75*
G02*
X209110000Y-111430000I-200000J0D01*
G01*
G37*
%TD*%
%TO.C,TP2*%
X144910000Y-109300000D03*
G36*
G01*
X143860000Y-107610000D02*
X143860000Y-105910000D01*
G75*
G02*
X144060000Y-105710000I200000J0D01*
G01*
X145760000Y-105710000D01*
G75*
G02*
X145960000Y-105910000I0J-200000D01*
G01*
X145960000Y-107610000D01*
G75*
G02*
X145760000Y-107810000I-200000J0D01*
G01*
X144060000Y-107810000D01*
G75*
G02*
X143860000Y-107610000I0J200000D01*
G01*
G37*
%TD*%
D11*
%TO.C,TP1*%
X115730000Y-118070000D03*
X118270000Y-115530000D03*
X118270000Y-118070000D03*
X115730000Y-115530000D03*
X117000000Y-116800000D03*
%TD*%
%TO.C,TP3*%
X206530000Y-116400000D03*
X209070000Y-113860000D03*
X209070000Y-116400000D03*
X206530000Y-113860000D03*
X207800000Y-115130000D03*
%TD*%
%TO.C,TP2*%
X148380000Y-112820000D03*
X150920000Y-110280000D03*
X150920000Y-112820000D03*
X148380000Y-110280000D03*
X149650000Y-111550000D03*
%TD*%
D12*
X214118000Y-78019000D03*
X214000000Y-130000000D03*
X112000000Y-130000000D03*
X112000000Y-78000000D03*
D13*
X212400000Y-110600000D03*
X212400000Y-99200000D03*
X213000000Y-99200000D03*
X212400000Y-99800000D03*
X213000000Y-99800000D03*
X213000000Y-100400000D03*
X213000000Y-101000000D03*
X212400000Y-101000000D03*
X212400000Y-100400000D03*
X212400000Y-107600000D03*
X213000000Y-108200000D03*
X213000000Y-107600000D03*
X212400000Y-108200000D03*
X213000000Y-110600000D03*
X213000000Y-110000000D03*
X213000000Y-108800000D03*
X213000000Y-109400000D03*
X212400000Y-109400000D03*
X212400000Y-108800000D03*
X212400000Y-110000000D03*
X213000000Y-106400000D03*
X213000000Y-107000000D03*
X212400000Y-107000000D03*
X212400000Y-106400000D03*
X212400000Y-105200000D03*
X213000000Y-105800000D03*
X213000000Y-105200000D03*
X212400000Y-105800000D03*
X213000000Y-104000000D03*
X213000000Y-104600000D03*
X212400000Y-104600000D03*
X212400000Y-104000000D03*
X212400000Y-102800000D03*
X213000000Y-103400000D03*
X213000000Y-102800000D03*
X212400000Y-103400000D03*
X213000000Y-101600000D03*
X213000000Y-102200000D03*
X212400000Y-102200000D03*
X212400000Y-101600000D03*
X137530000Y-111560000D03*
X126550000Y-112470000D03*
X128140000Y-111560000D03*
X129720000Y-112490000D03*
X131250000Y-111620000D03*
X132710000Y-112570000D03*
X134230000Y-111480000D03*
X135680000Y-112510000D03*
X141350000Y-95560000D03*
X140130000Y-96480000D03*
X138540000Y-95460000D03*
X136900000Y-96500000D03*
X135390000Y-95420000D03*
X133850000Y-96480000D03*
X132380000Y-95560000D03*
X126090000Y-95610000D03*
X127410000Y-96560000D03*
X128930000Y-95610000D03*
X130860000Y-96400000D03*
X139050000Y-112510000D03*
X141430000Y-112590000D03*
X140250000Y-111560000D03*
M02*
