M48
; DRILL file {KiCad (5.1.7-0-10_14)} date Monday, February 01, 2021 at 11:37:03 AM
; FORMAT={-:-/ absolute / inch / decimal}
; #@! TF.CreationDate,2021-02-01T11:37:03-06:00
; #@! TF.GenerationSoftware,Kicad,Pcbnew,(5.1.7-0-10_14)
; #@! TF.FileFunction,Plated,1,2,PTH
FMAT,2
INCH
T1C0.0157
T2C0.0331
T3C0.0394
T4C0.1496
%
G90
G05
T1
X4.9642Y-3.7642
X4.9823Y-4.428
X5.0161Y-3.8016
X5.0449Y-4.3921
X5.076Y-3.7642
X5.1071Y-4.4287
X5.152Y-3.7953
X5.1673Y-4.3945
X5.2118Y-3.7622
X5.2248Y-4.4319
X5.2697Y-3.7984
X5.2846Y-4.389
X5.3303Y-3.7567
X5.3417Y-4.4295
X5.3898Y-3.7992
X5.4146Y-4.3921
X5.4543Y-3.7583
X5.4744Y-4.4295
X5.5169Y-3.7984
X5.5217Y-4.3921
X5.565Y-3.7622
X5.5681Y-4.4327
X8.3622Y-3.9055
X8.3622Y-3.9291
X8.3622Y-3.9528
X8.3622Y-3.9764
X8.3622Y-4.0
X8.3622Y-4.0236
X8.3622Y-4.0472
X8.3622Y-4.0709
X8.3622Y-4.0945
X8.3622Y-4.1181
X8.3622Y-4.1417
X8.3622Y-4.1654
X8.3622Y-4.189
X8.3622Y-4.2126
X8.3622Y-4.2362
X8.3622Y-4.2598
X8.3622Y-4.2835
X8.3622Y-4.3071
X8.3622Y-4.3307
X8.3622Y-4.3543
X8.3858Y-3.9055
X8.3858Y-3.9291
X8.3858Y-3.9528
X8.3858Y-3.9764
X8.3858Y-4.0
X8.3858Y-4.0236
X8.3858Y-4.0472
X8.3858Y-4.0709
X8.3858Y-4.0945
X8.3858Y-4.1181
X8.3858Y-4.1417
X8.3858Y-4.1654
X8.3858Y-4.189
X8.3858Y-4.2126
X8.3858Y-4.2362
X8.3858Y-4.2598
X8.3858Y-4.2835
X8.3858Y-4.3071
X8.3858Y-4.3307
X8.3858Y-4.3543
T2
X8.1311Y-4.4827
X8.1311Y-4.5827
X8.1811Y-4.5327
X8.2311Y-4.4827
X8.2311Y-4.5827
X5.8417Y-4.3417
X5.8417Y-4.4417
X5.8917Y-4.3917
X5.9417Y-4.3417
X5.9417Y-4.4417
X4.5563Y-4.5484
X4.5563Y-4.6484
X4.6063Y-4.5984
X4.6563Y-4.5484
X4.6563Y-4.6484
T3
X4.6339Y-4.2047
X4.6339Y-4.3047
X8.1992Y-4.3457
X8.2992Y-4.3457
X5.7051Y-4.2031
X5.7051Y-4.3031
T4
X4.4094Y-3.0709
X4.4094Y-5.1181
X8.4252Y-5.1181
X8.4298Y-3.0716
T0
M30
