%TF.GenerationSoftware,KiCad,Pcbnew,(5.1.7-0-10_14)*%
%TF.CreationDate,2021-02-01T11:36:59-06:00*%
%TF.ProjectId,Q-test-circuit,512d7465-7374-42d6-9369-72637569742e,rev?*%
%TF.SameCoordinates,Original*%
%TF.FileFunction,Copper,L2,Bot*%
%TF.FilePolarity,Positive*%
%FSLAX46Y46*%
G04 Gerber Fmt 4.6, Leading zero omitted, Abs format (unit mm)*
G04 Created by KiCad (PCBNEW (5.1.7-0-10_14)) date 2021-02-01 11:36:59*
%MOMM*%
%LPD*%
G01*
G04 APERTURE LIST*
%TA.AperFunction,ComponentPad*%
%ADD10O,1.700000X1.700000*%
%TD*%
%TA.AperFunction,ComponentPad*%
%ADD11R,1.700000X1.700000*%
%TD*%
%TA.AperFunction,ComponentPad*%
%ADD12C,1.240000*%
%TD*%
%TA.AperFunction,ViaPad*%
%ADD13C,3.900000*%
%TD*%
%TA.AperFunction,ViaPad*%
%ADD14C,0.600000*%
%TD*%
%TA.AperFunction,Conductor*%
%ADD15C,0.500000*%
%TD*%
%TA.AperFunction,Conductor*%
%ADD16C,0.250000*%
%TD*%
%TA.AperFunction,Conductor*%
%ADD17C,0.254000*%
%TD*%
%TA.AperFunction,Conductor*%
%ADD18C,0.100000*%
%TD*%
G04 APERTURE END LIST*
D10*
%TO.P,TP1,2*%
%TO.N,GND*%
X117700000Y-109340000D03*
D11*
%TO.P,TP1,1*%
%TO.N,Net-(C1-Pad1)*%
X117700000Y-106800000D03*
%TD*%
D10*
%TO.P,TP3,2*%
%TO.N,GND*%
X210800000Y-110380000D03*
D11*
%TO.P,TP3,1*%
%TO.N,/vout*%
X208260000Y-110380000D03*
%TD*%
D10*
%TO.P,TP2,2*%
%TO.N,GND*%
X144910000Y-109300000D03*
D11*
%TO.P,TP2,1*%
%TO.N,Net-(L2-Pad1)*%
X144910000Y-106760000D03*
%TD*%
D12*
%TO.P,TP1,2*%
%TO.N,GND*%
X115730000Y-118070000D03*
X118270000Y-115530000D03*
X118270000Y-118070000D03*
X115730000Y-115530000D03*
%TO.P,TP1,1*%
%TO.N,Net-(C1-Pad1)*%
X117000000Y-116800000D03*
%TD*%
%TO.P,TP3,2*%
%TO.N,GND*%
X206530000Y-116400000D03*
X209070000Y-113860000D03*
X209070000Y-116400000D03*
X206530000Y-113860000D03*
%TO.P,TP3,1*%
%TO.N,/vout*%
X207800000Y-115130000D03*
%TD*%
%TO.P,TP2,2*%
%TO.N,GND*%
X148380000Y-112820000D03*
X150920000Y-110280000D03*
X150920000Y-112820000D03*
X148380000Y-110280000D03*
%TO.P,TP2,1*%
%TO.N,Net-(L2-Pad1)*%
X149650000Y-111550000D03*
%TD*%
D13*
%TO.N,*%
X214118000Y-78019000D03*
X214000000Y-130000000D03*
X112000000Y-130000000D03*
X112000000Y-78000000D03*
D14*
%TO.N,GND*%
X212400000Y-110600000D03*
X212400000Y-99200000D03*
X213000000Y-99200000D03*
X212400000Y-99800000D03*
X213000000Y-99800000D03*
X213000000Y-100400000D03*
X213000000Y-101000000D03*
X212400000Y-101000000D03*
X212400000Y-100400000D03*
X212400000Y-107600000D03*
X213000000Y-108200000D03*
X213000000Y-107600000D03*
X212400000Y-108200000D03*
X213000000Y-110600000D03*
X213000000Y-110000000D03*
X213000000Y-108800000D03*
X213000000Y-109400000D03*
X212400000Y-109400000D03*
X212400000Y-108800000D03*
X212400000Y-110000000D03*
X213000000Y-106400000D03*
X213000000Y-107000000D03*
X212400000Y-107000000D03*
X212400000Y-106400000D03*
X212400000Y-105200000D03*
X213000000Y-105800000D03*
X213000000Y-105200000D03*
X212400000Y-105800000D03*
X213000000Y-104000000D03*
X213000000Y-104600000D03*
X212400000Y-104600000D03*
X212400000Y-104000000D03*
X212400000Y-102800000D03*
X213000000Y-103400000D03*
X213000000Y-102800000D03*
X212400000Y-103400000D03*
X213000000Y-101600000D03*
X213000000Y-102200000D03*
X212400000Y-102200000D03*
X212400000Y-101600000D03*
X137530000Y-111560000D03*
X126550000Y-112470000D03*
X128140000Y-111560000D03*
X129720000Y-112490000D03*
X131250000Y-111620000D03*
X132710000Y-112570000D03*
X134230000Y-111480000D03*
X135680000Y-112510000D03*
X141350000Y-95560000D03*
X140130000Y-96480000D03*
X138540000Y-95460000D03*
X136900000Y-96500000D03*
X135390000Y-95420000D03*
X133850000Y-96480000D03*
X132380000Y-95560000D03*
X126090000Y-95610000D03*
X127410000Y-96560000D03*
X128930000Y-95610000D03*
X130860000Y-96400000D03*
X139050000Y-112510000D03*
X141430000Y-112590000D03*
X140250000Y-111560000D03*
%TD*%
D15*
%TO.N,Net-(C1-Pad1)*%
X115900000Y-110300000D02*
X115900000Y-108600000D01*
X115900000Y-108600000D02*
X117700000Y-106800000D01*
X117000000Y-111400000D02*
X115900000Y-110300000D01*
X117000000Y-116800000D02*
X117000000Y-111400000D01*
D16*
%TO.N,GND*%
X214070000Y-108450000D02*
X213329000Y-110059000D01*
X213270000Y-110000000D02*
X214070000Y-108450000D01*
X211950000Y-107650000D02*
X212290000Y-109770000D01*
X211580000Y-99100000D02*
X213380000Y-99350000D01*
X211550000Y-99070000D02*
X211580000Y-99100000D01*
D15*
X137590000Y-111620000D02*
X137530000Y-111560000D01*
X139050000Y-112510000D02*
X137590000Y-111620000D01*
X128140000Y-111740000D02*
X128140000Y-111560000D01*
X129720000Y-112490000D02*
X128140000Y-111740000D01*
X131390000Y-111620000D02*
X131250000Y-111620000D01*
X132710000Y-112570000D02*
X131390000Y-111620000D01*
X134650000Y-111480000D02*
X134230000Y-111480000D01*
X135680000Y-112510000D02*
X134650000Y-111480000D01*
X130860000Y-96400000D02*
X131540000Y-96400000D01*
X141160000Y-95560000D02*
X141350000Y-95560000D01*
X140130000Y-96480000D02*
X141160000Y-95560000D01*
X137890000Y-95630000D02*
X138540000Y-95460000D01*
X136900000Y-96500000D02*
X137890000Y-95630000D01*
X134700000Y-95630000D02*
X135390000Y-95420000D01*
X133850000Y-96480000D02*
X134700000Y-95630000D01*
X131540000Y-96400000D02*
X132380000Y-95560000D01*
X126090000Y-95610000D02*
X126290000Y-95810000D01*
X126290000Y-95810000D02*
X127410000Y-96560000D01*
X130860000Y-96400000D02*
X130910000Y-96450000D01*
D16*
X140250000Y-111560000D02*
X139050000Y-112510000D01*
X144920000Y-110780000D02*
X140340000Y-110780000D01*
X140340000Y-110780000D02*
X141430000Y-112590000D01*
X140250000Y-111560000D02*
X141430000Y-112590000D01*
%TD*%
D17*
%TO.N,GND*%
X146047375Y-94326981D02*
X153630197Y-101909803D01*
X153649443Y-101925597D01*
X153671399Y-101937333D01*
X153695224Y-101944560D01*
X153720000Y-101947000D01*
X180347394Y-101947000D01*
X181850197Y-103449803D01*
X181869443Y-103465597D01*
X181891399Y-103477333D01*
X181915224Y-103484560D01*
X181939937Y-103487000D01*
X202079744Y-103497000D01*
X207049744Y-103507000D01*
X207074526Y-103504609D01*
X207098365Y-103497430D01*
X207120345Y-103485738D01*
X207138880Y-103470716D01*
X210598880Y-100080716D01*
X210614870Y-100061633D01*
X210626830Y-100039797D01*
X210634300Y-100016048D01*
X210637000Y-99990310D01*
X210639596Y-98927000D01*
X214873000Y-98927000D01*
X214873000Y-112013000D01*
X209827000Y-112013000D01*
X209827000Y-108850000D01*
X209824560Y-108825224D01*
X209817333Y-108801399D01*
X209799170Y-108770664D01*
X207039170Y-105320664D01*
X207021787Y-105302841D01*
X207001261Y-105288752D01*
X206978380Y-105278938D01*
X206954025Y-105273777D01*
X206940000Y-105273000D01*
X182030000Y-105273000D01*
X182005224Y-105275440D01*
X181981399Y-105282667D01*
X181959443Y-105294403D01*
X181940197Y-105310197D01*
X180577394Y-106673000D01*
X153790000Y-106673000D01*
X153765224Y-106675440D01*
X153741399Y-106682667D01*
X153719443Y-106694403D01*
X153700197Y-106710197D01*
X153684403Y-106729443D01*
X153669463Y-106760003D01*
X151508192Y-113273421D01*
X119155061Y-113422419D01*
X119135566Y-111426393D01*
X148395000Y-111426393D01*
X148395000Y-111673607D01*
X148443229Y-111916070D01*
X148537834Y-112144465D01*
X148675178Y-112350016D01*
X148849984Y-112524822D01*
X149055535Y-112662166D01*
X149283930Y-112756771D01*
X149526393Y-112805000D01*
X149773607Y-112805000D01*
X150016070Y-112756771D01*
X150244465Y-112662166D01*
X150450016Y-112524822D01*
X150624822Y-112350016D01*
X150762166Y-112144465D01*
X150856771Y-111916070D01*
X150905000Y-111673607D01*
X150905000Y-111426393D01*
X150856771Y-111183930D01*
X150762166Y-110955535D01*
X150624822Y-110749984D01*
X150450016Y-110575178D01*
X150244465Y-110437834D01*
X150016070Y-110343229D01*
X149773607Y-110295000D01*
X149526393Y-110295000D01*
X149283930Y-110343229D01*
X149055535Y-110437834D01*
X148849984Y-110575178D01*
X148675178Y-110749984D01*
X148537834Y-110955535D01*
X148443229Y-111183930D01*
X148395000Y-111426393D01*
X119135566Y-111426393D01*
X119126994Y-110548760D01*
X119124312Y-110524008D01*
X119116852Y-110500256D01*
X119104903Y-110478415D01*
X119088921Y-110459325D01*
X119069523Y-110443719D01*
X119047453Y-110432198D01*
X119013158Y-110423683D01*
X117073180Y-110221602D01*
X116785000Y-109933422D01*
X116785000Y-108966578D01*
X117295371Y-108456208D01*
X119045039Y-108276325D01*
X119069436Y-108271364D01*
X119092397Y-108261738D01*
X119113038Y-108247818D01*
X119130567Y-108230138D01*
X119144310Y-108209379D01*
X119153739Y-108186337D01*
X119159051Y-108150056D01*
X119159214Y-107829197D01*
X119175812Y-107774482D01*
X119188072Y-107650000D01*
X119188072Y-105950000D01*
X119184133Y-105910000D01*
X143421928Y-105910000D01*
X143421928Y-107610000D01*
X143434188Y-107734482D01*
X143470498Y-107854180D01*
X143529463Y-107964494D01*
X143608815Y-108061185D01*
X143705506Y-108140537D01*
X143815820Y-108199502D01*
X143935518Y-108235812D01*
X144060000Y-108248072D01*
X145760000Y-108248072D01*
X145884482Y-108235812D01*
X146004180Y-108199502D01*
X146114494Y-108140537D01*
X146211185Y-108061185D01*
X146290537Y-107964494D01*
X146349502Y-107854180D01*
X146385812Y-107734482D01*
X146398072Y-107610000D01*
X146398072Y-105910000D01*
X146385812Y-105785518D01*
X146349502Y-105665820D01*
X146290537Y-105555506D01*
X146211185Y-105458815D01*
X146114494Y-105379463D01*
X146004180Y-105320498D01*
X145884482Y-105284188D01*
X145760000Y-105271928D01*
X144060000Y-105271928D01*
X143935518Y-105284188D01*
X143815820Y-105320498D01*
X143705506Y-105379463D01*
X143608815Y-105458815D01*
X143529463Y-105555506D01*
X143470498Y-105665820D01*
X143434188Y-105785518D01*
X143421928Y-105910000D01*
X119184133Y-105910000D01*
X119175812Y-105825518D01*
X119160261Y-105774254D01*
X119166098Y-94317047D01*
X146047375Y-94326981D01*
%TA.AperFunction,Conductor*%
D18*
G36*
X146047375Y-94326981D02*
G01*
X153630197Y-101909803D01*
X153649443Y-101925597D01*
X153671399Y-101937333D01*
X153695224Y-101944560D01*
X153720000Y-101947000D01*
X180347394Y-101947000D01*
X181850197Y-103449803D01*
X181869443Y-103465597D01*
X181891399Y-103477333D01*
X181915224Y-103484560D01*
X181939937Y-103487000D01*
X202079744Y-103497000D01*
X207049744Y-103507000D01*
X207074526Y-103504609D01*
X207098365Y-103497430D01*
X207120345Y-103485738D01*
X207138880Y-103470716D01*
X210598880Y-100080716D01*
X210614870Y-100061633D01*
X210626830Y-100039797D01*
X210634300Y-100016048D01*
X210637000Y-99990310D01*
X210639596Y-98927000D01*
X214873000Y-98927000D01*
X214873000Y-112013000D01*
X209827000Y-112013000D01*
X209827000Y-108850000D01*
X209824560Y-108825224D01*
X209817333Y-108801399D01*
X209799170Y-108770664D01*
X207039170Y-105320664D01*
X207021787Y-105302841D01*
X207001261Y-105288752D01*
X206978380Y-105278938D01*
X206954025Y-105273777D01*
X206940000Y-105273000D01*
X182030000Y-105273000D01*
X182005224Y-105275440D01*
X181981399Y-105282667D01*
X181959443Y-105294403D01*
X181940197Y-105310197D01*
X180577394Y-106673000D01*
X153790000Y-106673000D01*
X153765224Y-106675440D01*
X153741399Y-106682667D01*
X153719443Y-106694403D01*
X153700197Y-106710197D01*
X153684403Y-106729443D01*
X153669463Y-106760003D01*
X151508192Y-113273421D01*
X119155061Y-113422419D01*
X119135566Y-111426393D01*
X148395000Y-111426393D01*
X148395000Y-111673607D01*
X148443229Y-111916070D01*
X148537834Y-112144465D01*
X148675178Y-112350016D01*
X148849984Y-112524822D01*
X149055535Y-112662166D01*
X149283930Y-112756771D01*
X149526393Y-112805000D01*
X149773607Y-112805000D01*
X150016070Y-112756771D01*
X150244465Y-112662166D01*
X150450016Y-112524822D01*
X150624822Y-112350016D01*
X150762166Y-112144465D01*
X150856771Y-111916070D01*
X150905000Y-111673607D01*
X150905000Y-111426393D01*
X150856771Y-111183930D01*
X150762166Y-110955535D01*
X150624822Y-110749984D01*
X150450016Y-110575178D01*
X150244465Y-110437834D01*
X150016070Y-110343229D01*
X149773607Y-110295000D01*
X149526393Y-110295000D01*
X149283930Y-110343229D01*
X149055535Y-110437834D01*
X148849984Y-110575178D01*
X148675178Y-110749984D01*
X148537834Y-110955535D01*
X148443229Y-111183930D01*
X148395000Y-111426393D01*
X119135566Y-111426393D01*
X119126994Y-110548760D01*
X119124312Y-110524008D01*
X119116852Y-110500256D01*
X119104903Y-110478415D01*
X119088921Y-110459325D01*
X119069523Y-110443719D01*
X119047453Y-110432198D01*
X119013158Y-110423683D01*
X117073180Y-110221602D01*
X116785000Y-109933422D01*
X116785000Y-108966578D01*
X117295371Y-108456208D01*
X119045039Y-108276325D01*
X119069436Y-108271364D01*
X119092397Y-108261738D01*
X119113038Y-108247818D01*
X119130567Y-108230138D01*
X119144310Y-108209379D01*
X119153739Y-108186337D01*
X119159051Y-108150056D01*
X119159214Y-107829197D01*
X119175812Y-107774482D01*
X119188072Y-107650000D01*
X119188072Y-105950000D01*
X119184133Y-105910000D01*
X143421928Y-105910000D01*
X143421928Y-107610000D01*
X143434188Y-107734482D01*
X143470498Y-107854180D01*
X143529463Y-107964494D01*
X143608815Y-108061185D01*
X143705506Y-108140537D01*
X143815820Y-108199502D01*
X143935518Y-108235812D01*
X144060000Y-108248072D01*
X145760000Y-108248072D01*
X145884482Y-108235812D01*
X146004180Y-108199502D01*
X146114494Y-108140537D01*
X146211185Y-108061185D01*
X146290537Y-107964494D01*
X146349502Y-107854180D01*
X146385812Y-107734482D01*
X146398072Y-107610000D01*
X146398072Y-105910000D01*
X146385812Y-105785518D01*
X146349502Y-105665820D01*
X146290537Y-105555506D01*
X146211185Y-105458815D01*
X146114494Y-105379463D01*
X146004180Y-105320498D01*
X145884482Y-105284188D01*
X145760000Y-105271928D01*
X144060000Y-105271928D01*
X143935518Y-105284188D01*
X143815820Y-105320498D01*
X143705506Y-105379463D01*
X143608815Y-105458815D01*
X143529463Y-105555506D01*
X143470498Y-105665820D01*
X143434188Y-105785518D01*
X143421928Y-105910000D01*
X119184133Y-105910000D01*
X119175812Y-105825518D01*
X119160261Y-105774254D01*
X119166098Y-94317047D01*
X146047375Y-94326981D01*
G37*
%TD.AperFunction*%
%TD*%
D17*
%TO.N,GND*%
X214726671Y-112155110D02*
X210107519Y-117062959D01*
X210092315Y-117082673D01*
X210081249Y-117104975D01*
X210074747Y-117129008D01*
X210073000Y-117150000D01*
X210073000Y-117473000D01*
X205527000Y-117473000D01*
X205527000Y-115006393D01*
X206545000Y-115006393D01*
X206545000Y-115253607D01*
X206593229Y-115496070D01*
X206687834Y-115724465D01*
X206825178Y-115930016D01*
X206999984Y-116104822D01*
X207205535Y-116242166D01*
X207433930Y-116336771D01*
X207676393Y-116385000D01*
X207923607Y-116385000D01*
X208166070Y-116336771D01*
X208394465Y-116242166D01*
X208600016Y-116104822D01*
X208774822Y-115930016D01*
X208912166Y-115724465D01*
X209006771Y-115496070D01*
X209055000Y-115253607D01*
X209055000Y-115006393D01*
X209006771Y-114763930D01*
X208912166Y-114535535D01*
X208774822Y-114329984D01*
X208600016Y-114155178D01*
X208394465Y-114017834D01*
X208166070Y-113923229D01*
X207923607Y-113875000D01*
X207676393Y-113875000D01*
X207433930Y-113923229D01*
X207205535Y-114017834D01*
X206999984Y-114155178D01*
X206825178Y-114329984D01*
X206687834Y-114535535D01*
X206593229Y-114763930D01*
X206545000Y-115006393D01*
X205527000Y-115006393D01*
X205527000Y-112928827D01*
X208898186Y-112976987D01*
X208922995Y-112974901D01*
X208946920Y-112968015D01*
X208969042Y-112956594D01*
X208989803Y-112939803D01*
X210148245Y-111781361D01*
X214726671Y-112155110D01*
%TA.AperFunction,Conductor*%
D18*
G36*
X214726671Y-112155110D02*
G01*
X210107519Y-117062959D01*
X210092315Y-117082673D01*
X210081249Y-117104975D01*
X210074747Y-117129008D01*
X210073000Y-117150000D01*
X210073000Y-117473000D01*
X205527000Y-117473000D01*
X205527000Y-115006393D01*
X206545000Y-115006393D01*
X206545000Y-115253607D01*
X206593229Y-115496070D01*
X206687834Y-115724465D01*
X206825178Y-115930016D01*
X206999984Y-116104822D01*
X207205535Y-116242166D01*
X207433930Y-116336771D01*
X207676393Y-116385000D01*
X207923607Y-116385000D01*
X208166070Y-116336771D01*
X208394465Y-116242166D01*
X208600016Y-116104822D01*
X208774822Y-115930016D01*
X208912166Y-115724465D01*
X209006771Y-115496070D01*
X209055000Y-115253607D01*
X209055000Y-115006393D01*
X209006771Y-114763930D01*
X208912166Y-114535535D01*
X208774822Y-114329984D01*
X208600016Y-114155178D01*
X208394465Y-114017834D01*
X208166070Y-113923229D01*
X207923607Y-113875000D01*
X207676393Y-113875000D01*
X207433930Y-113923229D01*
X207205535Y-114017834D01*
X206999984Y-114155178D01*
X206825178Y-114329984D01*
X206687834Y-114535535D01*
X206593229Y-114763930D01*
X206545000Y-115006393D01*
X205527000Y-115006393D01*
X205527000Y-112928827D01*
X208898186Y-112976987D01*
X208922995Y-112974901D01*
X208946920Y-112968015D01*
X208969042Y-112956594D01*
X208989803Y-112939803D01*
X210148245Y-111781361D01*
X214726671Y-112155110D01*
G37*
%TD.AperFunction*%
%TD*%
M02*
