%TF.GenerationSoftware,KiCad,Pcbnew,(5.1.7-0-10_14)*%
%TF.CreationDate,2021-02-01T11:36:59-06:00*%
%TF.ProjectId,Q-test-circuit,512d7465-7374-42d6-9369-72637569742e,rev?*%
%TF.SameCoordinates,Original*%
%TF.FileFunction,Legend,Top*%
%TF.FilePolarity,Positive*%
%FSLAX46Y46*%
G04 Gerber Fmt 4.6, Leading zero omitted, Abs format (unit mm)*
G04 Created by KiCad (PCBNEW (5.1.7-0-10_14)) date 2021-02-01 11:36:59*
%MOMM*%
%LPD*%
G01*
G04 APERTURE LIST*
%ADD10C,0.120000*%
%ADD11C,0.152400*%
%ADD12C,0.150000*%
G04 APERTURE END LIST*
D10*
%TO.C,TP1*%
X116370000Y-110670000D02*
X119030000Y-110670000D01*
X116370000Y-108070000D02*
X116370000Y-110670000D01*
X119030000Y-108070000D02*
X119030000Y-110670000D01*
X116370000Y-108070000D02*
X119030000Y-108070000D01*
X116370000Y-106800000D02*
X116370000Y-105470000D01*
X116370000Y-105470000D02*
X117700000Y-105470000D01*
%TO.C,TP3*%
X212130000Y-111710000D02*
X212130000Y-109050000D01*
X209530000Y-111710000D02*
X212130000Y-111710000D01*
X209530000Y-109050000D02*
X212130000Y-109050000D01*
X209530000Y-111710000D02*
X209530000Y-109050000D01*
X208260000Y-111710000D02*
X206930000Y-111710000D01*
X206930000Y-111710000D02*
X206930000Y-110380000D01*
%TO.C,TP2*%
X143580000Y-110630000D02*
X146240000Y-110630000D01*
X143580000Y-108030000D02*
X143580000Y-110630000D01*
X146240000Y-108030000D02*
X146240000Y-110630000D01*
X143580000Y-108030000D02*
X146240000Y-108030000D01*
X143580000Y-106760000D02*
X143580000Y-105430000D01*
X143580000Y-105430000D02*
X144910000Y-105430000D01*
%TO.C,TP1*%
X117620000Y-118670000D02*
X116380000Y-118670000D01*
X117620000Y-114930000D02*
X116380000Y-114930000D01*
X115130000Y-117420000D02*
X115130000Y-116180000D01*
X118870000Y-117420000D02*
X118870000Y-116180000D01*
%TO.C,TP3*%
X208420000Y-117000000D02*
X207180000Y-117000000D01*
X208420000Y-113260000D02*
X207180000Y-113260000D01*
X205930000Y-115750000D02*
X205930000Y-114510000D01*
X209670000Y-115750000D02*
X209670000Y-114510000D01*
%TO.C,TP2*%
X150270000Y-113420000D02*
X149030000Y-113420000D01*
X150270000Y-109680000D02*
X149030000Y-109680000D01*
X147780000Y-112170000D02*
X147780000Y-110930000D01*
X151520000Y-112170000D02*
X151520000Y-110930000D01*
D11*
%TO.C,J1*%
X113780600Y-109342260D02*
X113780600Y-107975740D01*
X113780600Y-105024260D02*
X113780600Y-103657740D01*
D12*
%TO.C,C1*%
X130772000Y-106230000D02*
X130772000Y-111310000D01*
X134328000Y-106230000D02*
X134328000Y-111310000D01*
X130772000Y-111310000D02*
X134328000Y-111310000D01*
X134328000Y-106230000D02*
X130772000Y-106230000D01*
%TO.C,C2*%
X134348000Y-101660000D02*
X134348000Y-96580000D01*
X130792000Y-101660000D02*
X130792000Y-96580000D01*
X134348000Y-96580000D02*
X130792000Y-96580000D01*
X130792000Y-101660000D02*
X134348000Y-101660000D01*
%TO.C,L1*%
X126228000Y-106398000D02*
X130292000Y-106398000D01*
X130292000Y-106398000D02*
X130292000Y-110462000D01*
X130292000Y-110462000D02*
X126228000Y-110462000D01*
X126228000Y-110462000D02*
X126228000Y-106398000D01*
%TO.C,L2*%
X141802000Y-99742000D02*
X141802000Y-108378000D01*
X141802000Y-108378000D02*
X135198000Y-108378000D01*
X135198000Y-108378000D02*
X135198000Y-99742000D01*
X135198000Y-99742000D02*
X141802000Y-99742000D01*
%TO.C,C4*%
X214690000Y-108090000D02*
X214690000Y-100690000D01*
X206290000Y-100690000D02*
X214690000Y-100690000D01*
X206290000Y-100690000D02*
X206290000Y-108090000D01*
X206290000Y-108090000D02*
X214690000Y-108090000D01*
%TO.C,C3*%
X207340000Y-108100000D02*
X207340000Y-100700000D01*
X198940000Y-100700000D02*
X207340000Y-100700000D01*
X198940000Y-100700000D02*
X198940000Y-108100000D01*
X198940000Y-108100000D02*
X207340000Y-108100000D01*
%TO.C,TP1*%
X115838095Y-119852380D02*
X116409523Y-119852380D01*
X116123809Y-120852380D02*
X116123809Y-119852380D01*
X116742857Y-120852380D02*
X116742857Y-119852380D01*
X117123809Y-119852380D01*
X117219047Y-119900000D01*
X117266666Y-119947619D01*
X117314285Y-120042857D01*
X117314285Y-120185714D01*
X117266666Y-120280952D01*
X117219047Y-120328571D01*
X117123809Y-120376190D01*
X116742857Y-120376190D01*
X118266666Y-120852380D02*
X117695238Y-120852380D01*
X117980952Y-120852380D02*
X117980952Y-119852380D01*
X117885714Y-119995238D01*
X117790476Y-120090476D01*
X117695238Y-120138095D01*
%TO.C,TP3*%
X202138095Y-114982380D02*
X202709523Y-114982380D01*
X202423809Y-115982380D02*
X202423809Y-114982380D01*
X203042857Y-115982380D02*
X203042857Y-114982380D01*
X203423809Y-114982380D01*
X203519047Y-115030000D01*
X203566666Y-115077619D01*
X203614285Y-115172857D01*
X203614285Y-115315714D01*
X203566666Y-115410952D01*
X203519047Y-115458571D01*
X203423809Y-115506190D01*
X203042857Y-115506190D01*
X203947619Y-114982380D02*
X204566666Y-114982380D01*
X204233333Y-115363333D01*
X204376190Y-115363333D01*
X204471428Y-115410952D01*
X204519047Y-115458571D01*
X204566666Y-115553809D01*
X204566666Y-115791904D01*
X204519047Y-115887142D01*
X204471428Y-115934761D01*
X204376190Y-115982380D01*
X204090476Y-115982380D01*
X203995238Y-115934761D01*
X203947619Y-115887142D01*
%TO.C,TP2*%
X152958095Y-109822380D02*
X153529523Y-109822380D01*
X153243809Y-110822380D02*
X153243809Y-109822380D01*
X153862857Y-110822380D02*
X153862857Y-109822380D01*
X154243809Y-109822380D01*
X154339047Y-109870000D01*
X154386666Y-109917619D01*
X154434285Y-110012857D01*
X154434285Y-110155714D01*
X154386666Y-110250952D01*
X154339047Y-110298571D01*
X154243809Y-110346190D01*
X153862857Y-110346190D01*
X154815238Y-109917619D02*
X154862857Y-109870000D01*
X154958095Y-109822380D01*
X155196190Y-109822380D01*
X155291428Y-109870000D01*
X155339047Y-109917619D01*
X155386666Y-110012857D01*
X155386666Y-110108095D01*
X155339047Y-110250952D01*
X154767619Y-110822380D01*
X155386666Y-110822380D01*
%TO.C,J1*%
X110756666Y-113452380D02*
X110756666Y-114166666D01*
X110709047Y-114309523D01*
X110613809Y-114404761D01*
X110470952Y-114452380D01*
X110375714Y-114452380D01*
X111756666Y-114452380D02*
X111185238Y-114452380D01*
X111470952Y-114452380D02*
X111470952Y-113452380D01*
X111375714Y-113595238D01*
X111280476Y-113690476D01*
X111185238Y-113738095D01*
%TO.C,C1*%
X132371133Y-115044342D02*
X132323514Y-115091961D01*
X132180657Y-115139580D01*
X132085419Y-115139580D01*
X131942561Y-115091961D01*
X131847323Y-114996723D01*
X131799704Y-114901485D01*
X131752085Y-114711009D01*
X131752085Y-114568152D01*
X131799704Y-114377676D01*
X131847323Y-114282438D01*
X131942561Y-114187200D01*
X132085419Y-114139580D01*
X132180657Y-114139580D01*
X132323514Y-114187200D01*
X132371133Y-114234819D01*
X133323514Y-115139580D02*
X132752085Y-115139580D01*
X133037800Y-115139580D02*
X133037800Y-114139580D01*
X132942561Y-114282438D01*
X132847323Y-114377676D01*
X132752085Y-114425295D01*
%TO.C,C2*%
X132361133Y-93569942D02*
X132313514Y-93617561D01*
X132170657Y-93665180D01*
X132075419Y-93665180D01*
X131932561Y-93617561D01*
X131837323Y-93522323D01*
X131789704Y-93427085D01*
X131742085Y-93236609D01*
X131742085Y-93093752D01*
X131789704Y-92903276D01*
X131837323Y-92808038D01*
X131932561Y-92712800D01*
X132075419Y-92665180D01*
X132170657Y-92665180D01*
X132313514Y-92712800D01*
X132361133Y-92760419D01*
X132742085Y-92760419D02*
X132789704Y-92712800D01*
X132884942Y-92665180D01*
X133123038Y-92665180D01*
X133218276Y-92712800D01*
X133265895Y-92760419D01*
X133313514Y-92855657D01*
X133313514Y-92950895D01*
X133265895Y-93093752D01*
X132694466Y-93665180D01*
X133313514Y-93665180D01*
%TO.C,L1*%
X128095333Y-115255980D02*
X127619142Y-115255980D01*
X127619142Y-114255980D01*
X128952476Y-115255980D02*
X128381047Y-115255980D01*
X128666761Y-115255980D02*
X128666761Y-114255980D01*
X128571523Y-114398838D01*
X128476285Y-114494076D01*
X128381047Y-114541695D01*
%TO.C,L2*%
X138932380Y-104246666D02*
X138932380Y-104722857D01*
X137932380Y-104722857D01*
X138027619Y-103960952D02*
X137980000Y-103913333D01*
X137932380Y-103818095D01*
X137932380Y-103580000D01*
X137980000Y-103484761D01*
X138027619Y-103437142D01*
X138122857Y-103389523D01*
X138218095Y-103389523D01*
X138360952Y-103437142D01*
X138932380Y-104008571D01*
X138932380Y-103389523D01*
%TO.C,Z1*%
X121094476Y-114355580D02*
X121761142Y-114355580D01*
X121094476Y-115355580D01*
X121761142Y-115355580D01*
X122665904Y-115355580D02*
X122094476Y-115355580D01*
X122380190Y-115355580D02*
X122380190Y-114355580D01*
X122284952Y-114498438D01*
X122189714Y-114593676D01*
X122094476Y-114641295D01*
%TO.C,P1*%
X151851904Y-99012380D02*
X151851904Y-98012380D01*
X152232857Y-98012380D01*
X152328095Y-98060000D01*
X152375714Y-98107619D01*
X152423333Y-98202857D01*
X152423333Y-98345714D01*
X152375714Y-98440952D01*
X152328095Y-98488571D01*
X152232857Y-98536190D01*
X151851904Y-98536190D01*
X153375714Y-99012380D02*
X152804285Y-99012380D01*
X153090000Y-99012380D02*
X153090000Y-98012380D01*
X152994761Y-98155238D01*
X152899523Y-98250476D01*
X152804285Y-98298095D01*
%TO.C,P2*%
X194511904Y-102232380D02*
X194511904Y-101232380D01*
X194892857Y-101232380D01*
X194988095Y-101280000D01*
X195035714Y-101327619D01*
X195083333Y-101422857D01*
X195083333Y-101565714D01*
X195035714Y-101660952D01*
X194988095Y-101708571D01*
X194892857Y-101756190D01*
X194511904Y-101756190D01*
X195464285Y-101327619D02*
X195511904Y-101280000D01*
X195607142Y-101232380D01*
X195845238Y-101232380D01*
X195940476Y-101280000D01*
X195988095Y-101327619D01*
X196035714Y-101422857D01*
X196035714Y-101518095D01*
X195988095Y-101660952D01*
X195416666Y-102232380D01*
X196035714Y-102232380D01*
%TO.C,C4*%
X210317142Y-104586666D02*
X210364761Y-104634285D01*
X210412380Y-104777142D01*
X210412380Y-104872380D01*
X210364761Y-105015238D01*
X210269523Y-105110476D01*
X210174285Y-105158095D01*
X209983809Y-105205714D01*
X209840952Y-105205714D01*
X209650476Y-105158095D01*
X209555238Y-105110476D01*
X209460000Y-105015238D01*
X209412380Y-104872380D01*
X209412380Y-104777142D01*
X209460000Y-104634285D01*
X209507619Y-104586666D01*
X209745714Y-103729523D02*
X210412380Y-103729523D01*
X209364761Y-103967619D02*
X210079047Y-104205714D01*
X210079047Y-103586666D01*
%TO.C,C3*%
X203417142Y-104526666D02*
X203464761Y-104574285D01*
X203512380Y-104717142D01*
X203512380Y-104812380D01*
X203464761Y-104955238D01*
X203369523Y-105050476D01*
X203274285Y-105098095D01*
X203083809Y-105145714D01*
X202940952Y-105145714D01*
X202750476Y-105098095D01*
X202655238Y-105050476D01*
X202560000Y-104955238D01*
X202512380Y-104812380D01*
X202512380Y-104717142D01*
X202560000Y-104574285D01*
X202607619Y-104526666D01*
X202512380Y-104193333D02*
X202512380Y-103574285D01*
X202893333Y-103907619D01*
X202893333Y-103764761D01*
X202940952Y-103669523D01*
X202988571Y-103621904D01*
X203083809Y-103574285D01*
X203321904Y-103574285D01*
X203417142Y-103621904D01*
X203464761Y-103669523D01*
X203512380Y-103764761D01*
X203512380Y-104050476D01*
X203464761Y-104145714D01*
X203417142Y-104193333D01*
%TD*%
M02*
