%TF.GenerationSoftware,KiCad,Pcbnew,(6.0.1)*%
%TF.CreationDate,2023-09-19T13:45:29-05:00*%
%TF.ProjectId,TestMotherboard,54657374-4d6f-4746-9865-72626f617264,rev?*%
%TF.SameCoordinates,Original*%
%TF.FileFunction,Soldermask,Top*%
%TF.FilePolarity,Negative*%
%FSLAX46Y46*%
G04 Gerber Fmt 4.6, Leading zero omitted, Abs format (unit mm)*
G04 Created by KiCad (PCBNEW (6.0.1)) date 2023-09-19 13:45:29*
%MOMM*%
%LPD*%
G01*
G04 APERTURE LIST*
%ADD10C,2.200000*%
%ADD11R,1.700000X1.700000*%
%ADD12O,1.700000X1.700000*%
%ADD13C,2.700000*%
G04 APERTURE END LIST*
D10*
%TO.C,J17*%
X204978000Y-70343000D03*
X204978000Y-73713000D03*
X201608000Y-73713000D03*
X201608000Y-70343000D03*
%TD*%
%TO.C,J16*%
X204978000Y-82193000D03*
X204978000Y-85563000D03*
X201608000Y-85563000D03*
X201608000Y-82193000D03*
%TD*%
%TO.C,J15*%
X204978000Y-94193000D03*
X204978000Y-97563000D03*
X201608000Y-97563000D03*
X201608000Y-94193000D03*
%TD*%
%TO.C,J18*%
X178206400Y-94274000D03*
X178206400Y-97644000D03*
X174836400Y-97644000D03*
X174836400Y-94274000D03*
%TD*%
%TO.C,J19*%
X178206400Y-82274000D03*
X178206400Y-85644000D03*
X174836400Y-85644000D03*
X174836400Y-82274000D03*
%TD*%
%TO.C,J20*%
X178206400Y-70424000D03*
X178206400Y-73794000D03*
X174836400Y-73794000D03*
X174836400Y-70424000D03*
%TD*%
%TO.C,J22*%
X151434800Y-82220000D03*
X151434800Y-85590000D03*
X148064800Y-85590000D03*
X148064800Y-82220000D03*
%TD*%
%TO.C,J21*%
X151434800Y-94220000D03*
X151434800Y-97590000D03*
X148064800Y-97590000D03*
X148064800Y-94220000D03*
%TD*%
%TO.C,J23*%
X151434800Y-70370000D03*
X151434800Y-73740000D03*
X148064800Y-73740000D03*
X148064800Y-70370000D03*
%TD*%
%TO.C,J24*%
X124663200Y-94301000D03*
X124663200Y-97671000D03*
X121293200Y-97671000D03*
X121293200Y-94301000D03*
%TD*%
%TO.C,J25*%
X124663200Y-82301000D03*
X124663200Y-85671000D03*
X121293200Y-85671000D03*
X121293200Y-82301000D03*
%TD*%
%TO.C,J26*%
X124663200Y-70451000D03*
X124663200Y-73821000D03*
X121293200Y-73821000D03*
X121293200Y-70451000D03*
%TD*%
%TO.C,J27*%
X97891600Y-94247000D03*
X97891600Y-97617000D03*
X94521600Y-97617000D03*
X94521600Y-94247000D03*
%TD*%
%TO.C,J28*%
X97891600Y-82247000D03*
X97891600Y-85617000D03*
X94521600Y-85617000D03*
X94521600Y-82247000D03*
%TD*%
%TO.C,J29*%
X97891600Y-70397000D03*
X97891600Y-73767000D03*
X94521600Y-73767000D03*
X94521600Y-70397000D03*
%TD*%
%TO.C,J30*%
X71120000Y-94328000D03*
X71120000Y-97698000D03*
X67750000Y-97698000D03*
X67750000Y-94328000D03*
%TD*%
%TO.C,J31*%
X71120000Y-82328000D03*
X71120000Y-85698000D03*
X67750000Y-85698000D03*
X67750000Y-82328000D03*
%TD*%
%TO.C,J32*%
X71120000Y-70478000D03*
X71120000Y-73848000D03*
X67750000Y-73848000D03*
X67750000Y-70478000D03*
%TD*%
D11*
%TO.C,J40*%
X55000000Y-58674000D03*
D12*
X55000000Y-61214000D03*
%TD*%
D11*
%TO.C,J34*%
X187685750Y-58674000D03*
D12*
X187685750Y-61214000D03*
%TD*%
D11*
%TO.C,J35*%
X160895250Y-58674000D03*
D12*
X160895250Y-61214000D03*
%TD*%
D11*
%TO.C,J36*%
X134104750Y-58674000D03*
D12*
X134104750Y-61214000D03*
%TD*%
D11*
%TO.C,J39*%
X223940250Y-58552000D03*
D12*
X223940250Y-61092000D03*
%TD*%
D13*
%TO.C,J3*%
X194134554Y-109982000D03*
X194134554Y-125282000D03*
%TD*%
%TO.C,J7*%
X140588402Y-125282000D03*
X140588402Y-109982000D03*
%TD*%
%TO.C,J1*%
X220907630Y-109982000D03*
X220907630Y-125282000D03*
%TD*%
%TO.C,J12*%
X73655712Y-109982000D03*
X73655712Y-125282000D03*
%TD*%
%TO.C,J5*%
X167361478Y-109982000D03*
X167361478Y-125282000D03*
%TD*%
D11*
%TO.C,J37*%
X107314250Y-58674000D03*
D12*
X107314250Y-61214000D03*
%TD*%
D13*
%TO.C,J10*%
X100428788Y-125282000D03*
X100428788Y-109982000D03*
%TD*%
%TO.C,J4*%
X180748016Y-109982000D03*
X180748016Y-125282000D03*
%TD*%
%TO.C,J2*%
X207521092Y-125282000D03*
X207521092Y-109982000D03*
%TD*%
%TO.C,J6*%
X153974940Y-125282000D03*
X153974940Y-109982000D03*
%TD*%
%TO.C,J8*%
X127201864Y-109982000D03*
X127201864Y-125282000D03*
%TD*%
D11*
%TO.C,J38*%
X80523750Y-58674000D03*
D12*
X80523750Y-61214000D03*
%TD*%
D13*
%TO.C,J9*%
X113815326Y-109982000D03*
X113815326Y-125282000D03*
%TD*%
%TO.C,J13*%
X60269174Y-109982000D03*
X60269174Y-125282000D03*
%TD*%
%TO.C,J14*%
X46882630Y-109982000D03*
X46882630Y-125282000D03*
%TD*%
%TO.C,J11*%
X87042250Y-109982000D03*
X87042250Y-125282000D03*
%TD*%
D11*
%TO.C,J33*%
X214476250Y-58674000D03*
D12*
X214476250Y-61214000D03*
%TD*%
M02*
