%TF.GenerationSoftware,KiCad,Pcbnew,(6.0.1)*%
%TF.CreationDate,2023-09-19T13:45:29-05:00*%
%TF.ProjectId,TestMotherboard,54657374-4d6f-4746-9865-72626f617264,rev?*%
%TF.SameCoordinates,Original*%
%TF.FileFunction,Copper,L2,Bot*%
%TF.FilePolarity,Positive*%
%FSLAX46Y46*%
G04 Gerber Fmt 4.6, Leading zero omitted, Abs format (unit mm)*
G04 Created by KiCad (PCBNEW (6.0.1)) date 2023-09-19 13:45:29*
%MOMM*%
%LPD*%
G01*
G04 APERTURE LIST*
%TA.AperFunction,ComponentPad*%
%ADD10C,2.200000*%
%TD*%
%TA.AperFunction,ComponentPad*%
%ADD11R,1.700000X1.700000*%
%TD*%
%TA.AperFunction,ComponentPad*%
%ADD12O,1.700000X1.700000*%
%TD*%
%TA.AperFunction,ComponentPad*%
%ADD13C,2.700000*%
%TD*%
G04 APERTURE END LIST*
D10*
%TO.P,J17,1,Pin_1*%
%TO.N,Net-(J17-Pad1)*%
X204978000Y-70343000D03*
X204978000Y-73713000D03*
X201608000Y-73713000D03*
X201608000Y-70343000D03*
%TD*%
%TO.P,J16,1,Pin_1*%
%TO.N,Net-(J16-Pad1)*%
X204978000Y-82193000D03*
X204978000Y-85563000D03*
X201608000Y-85563000D03*
X201608000Y-82193000D03*
%TD*%
%TO.P,J15,1,Pin_1*%
%TO.N,Net-(J1-Pad1)*%
X204978000Y-94193000D03*
X204978000Y-97563000D03*
X201608000Y-97563000D03*
X201608000Y-94193000D03*
%TD*%
%TO.P,J18,1,Pin_1*%
%TO.N,Net-(J17-Pad1)*%
X178206400Y-94274000D03*
X178206400Y-97644000D03*
X174836400Y-97644000D03*
X174836400Y-94274000D03*
%TD*%
%TO.P,J19,1,Pin_1*%
%TO.N,Net-(J19-Pad1)*%
X178206400Y-82274000D03*
X178206400Y-85644000D03*
X174836400Y-85644000D03*
X174836400Y-82274000D03*
%TD*%
%TO.P,J20,1,Pin_1*%
%TO.N,Net-(J20-Pad1)*%
X178206400Y-70424000D03*
X178206400Y-73794000D03*
X174836400Y-73794000D03*
X174836400Y-70424000D03*
%TD*%
%TO.P,J22,1,Pin_1*%
%TO.N,Net-(J22-Pad1)*%
X151434800Y-82220000D03*
X151434800Y-85590000D03*
X148064800Y-85590000D03*
X148064800Y-82220000D03*
%TD*%
%TO.P,J21,1,Pin_1*%
%TO.N,Net-(J20-Pad1)*%
X151434800Y-94220000D03*
X151434800Y-97590000D03*
X148064800Y-97590000D03*
X148064800Y-94220000D03*
%TD*%
%TO.P,J23,1,Pin_1*%
%TO.N,Net-(J23-Pad1)*%
X151434800Y-70370000D03*
X151434800Y-73740000D03*
X148064800Y-73740000D03*
X148064800Y-70370000D03*
%TD*%
%TO.P,J24,1,Pin_1*%
%TO.N,Net-(J23-Pad1)*%
X124663200Y-94301000D03*
X124663200Y-97671000D03*
X121293200Y-97671000D03*
X121293200Y-94301000D03*
%TD*%
%TO.P,J25,1,Pin_1*%
%TO.N,Net-(J25-Pad1)*%
X124663200Y-82301000D03*
X124663200Y-85671000D03*
X121293200Y-85671000D03*
X121293200Y-82301000D03*
%TD*%
%TO.P,J26,1,Pin_1*%
%TO.N,Net-(J26-Pad1)*%
X124663200Y-70451000D03*
X124663200Y-73821000D03*
X121293200Y-73821000D03*
X121293200Y-70451000D03*
%TD*%
%TO.P,J27,1,Pin_1*%
%TO.N,Net-(J26-Pad1)*%
X97891600Y-94247000D03*
X97891600Y-97617000D03*
X94521600Y-97617000D03*
X94521600Y-94247000D03*
%TD*%
%TO.P,J28,1,Pin_1*%
%TO.N,Net-(J10-Pad1)*%
X97891600Y-82247000D03*
X97891600Y-85617000D03*
X94521600Y-85617000D03*
X94521600Y-82247000D03*
%TD*%
%TO.P,J29,1,Pin_1*%
%TO.N,Net-(J11-Pad1)*%
X97891600Y-70397000D03*
X97891600Y-73767000D03*
X94521600Y-73767000D03*
X94521600Y-70397000D03*
%TD*%
%TO.P,J30,1,Pin_1*%
%TO.N,Net-(J11-Pad1)*%
X71120000Y-94328000D03*
X71120000Y-97698000D03*
X67750000Y-97698000D03*
X67750000Y-94328000D03*
%TD*%
%TO.P,J31,1,Pin_1*%
%TO.N,Net-(J12-Pad1)*%
X71120000Y-82328000D03*
X71120000Y-85698000D03*
X67750000Y-85698000D03*
X67750000Y-82328000D03*
%TD*%
%TO.P,J32,1,Pin_1*%
%TO.N,GND*%
X71120000Y-70478000D03*
X71120000Y-73848000D03*
X67750000Y-73848000D03*
X67750000Y-70478000D03*
%TD*%
D11*
%TO.P,J40,1,Pin_1*%
%TO.N,/Sec_PWM*%
X55000000Y-58674000D03*
D12*
%TO.P,J40,2,Pin_2*%
%TO.N,GND1*%
X55000000Y-61214000D03*
%TD*%
D11*
%TO.P,J34,1,Pin_1*%
%TO.N,/Sec_PWM*%
X187685750Y-58674000D03*
D12*
%TO.P,J34,2,Pin_2*%
%TO.N,GND1*%
X187685750Y-61214000D03*
%TD*%
D11*
%TO.P,J35,1,Pin_1*%
%TO.N,/Sec_PWM*%
X160895250Y-58674000D03*
D12*
%TO.P,J35,2,Pin_2*%
%TO.N,GND1*%
X160895250Y-61214000D03*
%TD*%
D11*
%TO.P,J36,1,Pin_1*%
%TO.N,/Sec_PWM*%
X134104750Y-58674000D03*
D12*
%TO.P,J36,2,Pin_2*%
%TO.N,GND1*%
X134104750Y-61214000D03*
%TD*%
D11*
%TO.P,J39,1,Pin_1*%
%TO.N,/Sec_PWM*%
X223940250Y-58552000D03*
D12*
%TO.P,J39,2,Pin_2*%
%TO.N,GND1*%
X223940250Y-61092000D03*
%TD*%
D13*
%TO.P,J3,1,Pin_1*%
%TO.N,Net-(J17-Pad1)*%
X194134554Y-109982000D03*
X194134554Y-125282000D03*
%TD*%
%TO.P,J7,1,Pin_1*%
%TO.N,Net-(J23-Pad1)*%
X140588402Y-125282000D03*
X140588402Y-109982000D03*
%TD*%
%TO.P,J1,1,Pin_1*%
%TO.N,Net-(J1-Pad1)*%
X220907630Y-109982000D03*
X220907630Y-125282000D03*
%TD*%
%TO.P,J12,1,Pin_1*%
%TO.N,Net-(J12-Pad1)*%
X73655712Y-109982000D03*
X73655712Y-125282000D03*
%TD*%
%TO.P,J5,1,Pin_1*%
%TO.N,Net-(J20-Pad1)*%
X167361478Y-109982000D03*
X167361478Y-125282000D03*
%TD*%
D11*
%TO.P,J37,1,Pin_1*%
%TO.N,/Sec_PWM*%
X107314250Y-58674000D03*
D12*
%TO.P,J37,2,Pin_2*%
%TO.N,GND1*%
X107314250Y-61214000D03*
%TD*%
D13*
%TO.P,J10,1,Pin_1*%
%TO.N,Net-(J10-Pad1)*%
X100428788Y-125282000D03*
X100428788Y-109982000D03*
%TD*%
%TO.P,J4,1,Pin_1*%
%TO.N,Net-(J19-Pad1)*%
X180748016Y-109982000D03*
X180748016Y-125282000D03*
%TD*%
%TO.P,J2,1,Pin_1*%
%TO.N,Net-(J16-Pad1)*%
X207521092Y-125282000D03*
X207521092Y-109982000D03*
%TD*%
%TO.P,J6,1,Pin_1*%
%TO.N,Net-(J22-Pad1)*%
X153974940Y-125282000D03*
X153974940Y-109982000D03*
%TD*%
%TO.P,J8,1,Pin_1*%
%TO.N,Net-(J25-Pad1)*%
X127201864Y-109982000D03*
X127201864Y-125282000D03*
%TD*%
D11*
%TO.P,J38,1,Pin_1*%
%TO.N,/Sec_PWM*%
X80523750Y-58674000D03*
D12*
%TO.P,J38,2,Pin_2*%
%TO.N,GND1*%
X80523750Y-61214000D03*
%TD*%
D13*
%TO.P,J9,1,Pin_1*%
%TO.N,Net-(J26-Pad1)*%
X113815326Y-109982000D03*
X113815326Y-125282000D03*
%TD*%
%TO.P,J13,1,Pin_1*%
%TO.N,GND*%
X60269174Y-109982000D03*
X60269174Y-125282000D03*
%TD*%
%TO.P,J14,1,Pin_1*%
%TO.N,GND*%
X46882630Y-109982000D03*
X46882630Y-125282000D03*
%TD*%
%TO.P,J11,1,Pin_1*%
%TO.N,Net-(J11-Pad1)*%
X87042250Y-109982000D03*
X87042250Y-125282000D03*
%TD*%
D11*
%TO.P,J33,1,Pin_1*%
%TO.N,/Sec_PWM*%
X214476250Y-58674000D03*
D12*
%TO.P,J33,2,Pin_2*%
%TO.N,GND1*%
X214476250Y-61214000D03*
%TD*%
%TA.AperFunction,Conductor*%
%TO.N,Net-(J19-Pad1)*%
G36*
X180576105Y-80518337D02*
G01*
X180853798Y-80538683D01*
X180872015Y-80541367D01*
X181139264Y-80600962D01*
X181156895Y-80606272D01*
X181412607Y-80704183D01*
X181429276Y-80712006D01*
X181667987Y-80846140D01*
X181683336Y-80856307D01*
X181824241Y-80965262D01*
X181899950Y-81023804D01*
X181913655Y-81036102D01*
X182103546Y-81233384D01*
X182115311Y-81247548D01*
X182274412Y-81470386D01*
X182283989Y-81486114D01*
X182408919Y-81729775D01*
X182416100Y-81746731D01*
X182505666Y-82010366D01*
X182508309Y-82019191D01*
X188656638Y-105666609D01*
X188658406Y-105674423D01*
X188704325Y-105912190D01*
X188706356Y-105928075D01*
X188721745Y-106169744D01*
X188722000Y-106177751D01*
X188722000Y-129059499D01*
X188721679Y-129068487D01*
X188702286Y-129339645D01*
X188699728Y-129357433D01*
X188642903Y-129618654D01*
X188637840Y-129635900D01*
X188544411Y-129886393D01*
X188536945Y-129902740D01*
X188408824Y-130137375D01*
X188399105Y-130152498D01*
X188238897Y-130366510D01*
X188227124Y-130380096D01*
X188038096Y-130569124D01*
X188024510Y-130580897D01*
X187810498Y-130741105D01*
X187795375Y-130750824D01*
X187560740Y-130878945D01*
X187544393Y-130886411D01*
X187293900Y-130979840D01*
X187276658Y-130984902D01*
X187015433Y-131041728D01*
X186997650Y-131044285D01*
X186775871Y-131060147D01*
X186726487Y-131063679D01*
X186717499Y-131064000D01*
X172946501Y-131064000D01*
X172937513Y-131063679D01*
X172888129Y-131060147D01*
X172666350Y-131044285D01*
X172648567Y-131041728D01*
X172387342Y-130984902D01*
X172370100Y-130979840D01*
X172119607Y-130886411D01*
X172103260Y-130878945D01*
X171868625Y-130750824D01*
X171853502Y-130741105D01*
X171639490Y-130580897D01*
X171625904Y-130569124D01*
X171436876Y-130380096D01*
X171425103Y-130366510D01*
X171264895Y-130152498D01*
X171255176Y-130137375D01*
X171127055Y-129902740D01*
X171119589Y-129886393D01*
X171026160Y-129635900D01*
X171021097Y-129618654D01*
X170964272Y-129357433D01*
X170961714Y-129339645D01*
X170942321Y-129068487D01*
X170942000Y-129059499D01*
X170942000Y-105735710D01*
X170942020Y-105733485D01*
X170943207Y-105666263D01*
X170943362Y-105661863D01*
X170946928Y-105594551D01*
X170947058Y-105592464D01*
X171473494Y-98147164D01*
X171509071Y-97644000D01*
X173222926Y-97644000D01*
X173242791Y-97896403D01*
X173243945Y-97901210D01*
X173243946Y-97901216D01*
X173273919Y-98026062D01*
X173301895Y-98142591D01*
X173398784Y-98376502D01*
X173531072Y-98592376D01*
X173695502Y-98784898D01*
X173888024Y-98949328D01*
X174103898Y-99081616D01*
X174108468Y-99083509D01*
X174108472Y-99083511D01*
X174333236Y-99176611D01*
X174337809Y-99178505D01*
X174422432Y-99198821D01*
X174579184Y-99236454D01*
X174579190Y-99236455D01*
X174583997Y-99237609D01*
X174836400Y-99257474D01*
X175088803Y-99237609D01*
X175093610Y-99236455D01*
X175093616Y-99236454D01*
X175250368Y-99198821D01*
X175334991Y-99178505D01*
X175339564Y-99176611D01*
X175564328Y-99083511D01*
X175564332Y-99083509D01*
X175568902Y-99081616D01*
X175784776Y-98949328D01*
X175977298Y-98784898D01*
X176141728Y-98592376D01*
X176274016Y-98376502D01*
X176370905Y-98142591D01*
X176398881Y-98026062D01*
X176434233Y-97964493D01*
X176497260Y-97931810D01*
X176567951Y-97938390D01*
X176623862Y-97982145D01*
X176643919Y-98026062D01*
X176671895Y-98142591D01*
X176768784Y-98376502D01*
X176901072Y-98592376D01*
X177065502Y-98784898D01*
X177258024Y-98949328D01*
X177473898Y-99081616D01*
X177478468Y-99083509D01*
X177478472Y-99083511D01*
X177703236Y-99176611D01*
X177707809Y-99178505D01*
X177792432Y-99198821D01*
X177949184Y-99236454D01*
X177949190Y-99236455D01*
X177953997Y-99237609D01*
X178206400Y-99257474D01*
X178458803Y-99237609D01*
X178463610Y-99236455D01*
X178463616Y-99236454D01*
X178620368Y-99198821D01*
X178704991Y-99178505D01*
X178709564Y-99176611D01*
X178934328Y-99083511D01*
X178934332Y-99083509D01*
X178938902Y-99081616D01*
X179154776Y-98949328D01*
X179347298Y-98784898D01*
X179511728Y-98592376D01*
X179644016Y-98376502D01*
X179740905Y-98142591D01*
X179768881Y-98026062D01*
X179798854Y-97901216D01*
X179798855Y-97901210D01*
X179800009Y-97896403D01*
X179819874Y-97644000D01*
X179800009Y-97391597D01*
X179779425Y-97305855D01*
X179742060Y-97150221D01*
X179740905Y-97145409D01*
X179644016Y-96911498D01*
X179511728Y-96695624D01*
X179347298Y-96503102D01*
X179154776Y-96338672D01*
X178938902Y-96206384D01*
X178934332Y-96204491D01*
X178934328Y-96204489D01*
X178709564Y-96111389D01*
X178709562Y-96111388D01*
X178704991Y-96109495D01*
X178588462Y-96081519D01*
X178526893Y-96046167D01*
X178494210Y-95983140D01*
X178500790Y-95912449D01*
X178544545Y-95856538D01*
X178588462Y-95836481D01*
X178621254Y-95828608D01*
X178704991Y-95808505D01*
X178709564Y-95806611D01*
X178934328Y-95713511D01*
X178934332Y-95713509D01*
X178938902Y-95711616D01*
X179154776Y-95579328D01*
X179347298Y-95414898D01*
X179511728Y-95222376D01*
X179644016Y-95006502D01*
X179740905Y-94772591D01*
X179768881Y-94656062D01*
X179798854Y-94531216D01*
X179798855Y-94531210D01*
X179800009Y-94526403D01*
X179819874Y-94274000D01*
X179800009Y-94021597D01*
X179779425Y-93935855D01*
X179742060Y-93780221D01*
X179740905Y-93775409D01*
X179644016Y-93541498D01*
X179511728Y-93325624D01*
X179347298Y-93133102D01*
X179154776Y-92968672D01*
X178938902Y-92836384D01*
X178934332Y-92834491D01*
X178934328Y-92834489D01*
X178709564Y-92741389D01*
X178709562Y-92741388D01*
X178704991Y-92739495D01*
X178620368Y-92719179D01*
X178463616Y-92681546D01*
X178463610Y-92681545D01*
X178458803Y-92680391D01*
X178206400Y-92660526D01*
X177953997Y-92680391D01*
X177949190Y-92681545D01*
X177949184Y-92681546D01*
X177792432Y-92719179D01*
X177707809Y-92739495D01*
X177703238Y-92741388D01*
X177703236Y-92741389D01*
X177478472Y-92834489D01*
X177478468Y-92834491D01*
X177473898Y-92836384D01*
X177258024Y-92968672D01*
X177065502Y-93133102D01*
X176901072Y-93325624D01*
X176768784Y-93541498D01*
X176671895Y-93775409D01*
X176670740Y-93780221D01*
X176643919Y-93891938D01*
X176608567Y-93953507D01*
X176545540Y-93986190D01*
X176474849Y-93979610D01*
X176418938Y-93935855D01*
X176398881Y-93891938D01*
X176372060Y-93780221D01*
X176370905Y-93775409D01*
X176274016Y-93541498D01*
X176141728Y-93325624D01*
X175977298Y-93133102D01*
X175784776Y-92968672D01*
X175568902Y-92836384D01*
X175564332Y-92834491D01*
X175564328Y-92834489D01*
X175339564Y-92741389D01*
X175339562Y-92741388D01*
X175334991Y-92739495D01*
X175250368Y-92719179D01*
X175093616Y-92681546D01*
X175093610Y-92681545D01*
X175088803Y-92680391D01*
X174836400Y-92660526D01*
X174583997Y-92680391D01*
X174579190Y-92681545D01*
X174579184Y-92681546D01*
X174422432Y-92719179D01*
X174337809Y-92739495D01*
X174333238Y-92741388D01*
X174333236Y-92741389D01*
X174108472Y-92834489D01*
X174108468Y-92834491D01*
X174103898Y-92836384D01*
X173888024Y-92968672D01*
X173695502Y-93133102D01*
X173531072Y-93325624D01*
X173398784Y-93541498D01*
X173301895Y-93775409D01*
X173300740Y-93780221D01*
X173263376Y-93935855D01*
X173242791Y-94021597D01*
X173222926Y-94274000D01*
X173242791Y-94526403D01*
X173243945Y-94531210D01*
X173243946Y-94531216D01*
X173273919Y-94656062D01*
X173301895Y-94772591D01*
X173398784Y-95006502D01*
X173531072Y-95222376D01*
X173695502Y-95414898D01*
X173888024Y-95579328D01*
X174103898Y-95711616D01*
X174108468Y-95713509D01*
X174108472Y-95713511D01*
X174333236Y-95806611D01*
X174337809Y-95808505D01*
X174421546Y-95828608D01*
X174454338Y-95836481D01*
X174515907Y-95871833D01*
X174548590Y-95934860D01*
X174542010Y-96005551D01*
X174498255Y-96061462D01*
X174454338Y-96081519D01*
X174337809Y-96109495D01*
X174333238Y-96111388D01*
X174333236Y-96111389D01*
X174108472Y-96204489D01*
X174108468Y-96204491D01*
X174103898Y-96206384D01*
X173888024Y-96338672D01*
X173695502Y-96503102D01*
X173531072Y-96695624D01*
X173398784Y-96911498D01*
X173301895Y-97145409D01*
X173300740Y-97150221D01*
X173263376Y-97305855D01*
X173242791Y-97391597D01*
X173222926Y-97644000D01*
X171509071Y-97644000D01*
X172588257Y-82381227D01*
X172589153Y-82372690D01*
X172625074Y-82115525D01*
X172628603Y-82098722D01*
X172697979Y-81852989D01*
X172703757Y-81836827D01*
X172805907Y-81602787D01*
X172813831Y-81587558D01*
X172946843Y-81369599D01*
X172956757Y-81355597D01*
X173118183Y-81157726D01*
X173129911Y-81145201D01*
X173316734Y-80971121D01*
X173330044Y-80960315D01*
X173538806Y-80813248D01*
X173553476Y-80804344D01*
X173780283Y-80687032D01*
X173796037Y-80680201D01*
X174004398Y-80606272D01*
X174036680Y-80594818D01*
X174053210Y-80590194D01*
X174303243Y-80538317D01*
X174320244Y-80535985D01*
X174579289Y-80518293D01*
X174587874Y-80518000D01*
X180566898Y-80518000D01*
X180576105Y-80518337D01*
G37*
%TD.AperFunction*%
%TD*%
%TA.AperFunction,Conductor*%
%TO.N,Net-(J22-Pad1)*%
G36*
X153914073Y-80441931D02*
G01*
X154191766Y-80462277D01*
X154209983Y-80464961D01*
X154477232Y-80524556D01*
X154494863Y-80529866D01*
X154750575Y-80627777D01*
X154767244Y-80635600D01*
X155005955Y-80769734D01*
X155021304Y-80779901D01*
X155162209Y-80888856D01*
X155237918Y-80947398D01*
X155251623Y-80959696D01*
X155441514Y-81156978D01*
X155453279Y-81171142D01*
X155612380Y-81393980D01*
X155621957Y-81409708D01*
X155746887Y-81653369D01*
X155754068Y-81670325D01*
X155843634Y-81933960D01*
X155846277Y-81942785D01*
X161994606Y-105590203D01*
X161996374Y-105598017D01*
X162042293Y-105835784D01*
X162044324Y-105851669D01*
X162059713Y-106093338D01*
X162059968Y-106101345D01*
X162059968Y-128983093D01*
X162059647Y-128992081D01*
X162040254Y-129263239D01*
X162037696Y-129281027D01*
X161980871Y-129542248D01*
X161975808Y-129559494D01*
X161882379Y-129809987D01*
X161874913Y-129826334D01*
X161746792Y-130060969D01*
X161737073Y-130076092D01*
X161576865Y-130290104D01*
X161565092Y-130303690D01*
X161376064Y-130492718D01*
X161362478Y-130504491D01*
X161148466Y-130664699D01*
X161133343Y-130674418D01*
X160898708Y-130802539D01*
X160882361Y-130810005D01*
X160631868Y-130903434D01*
X160614626Y-130908496D01*
X160353401Y-130965322D01*
X160335618Y-130967879D01*
X160113839Y-130983741D01*
X160064455Y-130987273D01*
X160055467Y-130987594D01*
X146284469Y-130987594D01*
X146275481Y-130987273D01*
X146226097Y-130983741D01*
X146004318Y-130967879D01*
X145986535Y-130965322D01*
X145725310Y-130908496D01*
X145708068Y-130903434D01*
X145457575Y-130810005D01*
X145441228Y-130802539D01*
X145206593Y-130674418D01*
X145191470Y-130664699D01*
X144977458Y-130504491D01*
X144963872Y-130492718D01*
X144774844Y-130303690D01*
X144763071Y-130290104D01*
X144602863Y-130076092D01*
X144593144Y-130060969D01*
X144465023Y-129826334D01*
X144457557Y-129809987D01*
X144364128Y-129559494D01*
X144359065Y-129542248D01*
X144302240Y-129281027D01*
X144299682Y-129263239D01*
X144280289Y-128992081D01*
X144279968Y-128983093D01*
X144279968Y-105659304D01*
X144279988Y-105657079D01*
X144281175Y-105589857D01*
X144281330Y-105585457D01*
X144284896Y-105518145D01*
X144285026Y-105516058D01*
X144732748Y-99183997D01*
X144845455Y-97590000D01*
X146451326Y-97590000D01*
X146471191Y-97842403D01*
X146472345Y-97847210D01*
X146472346Y-97847216D01*
X146502319Y-97972062D01*
X146530295Y-98088591D01*
X146627184Y-98322502D01*
X146759472Y-98538376D01*
X146923902Y-98730898D01*
X147116424Y-98895328D01*
X147332298Y-99027616D01*
X147336868Y-99029509D01*
X147336872Y-99029511D01*
X147561636Y-99122611D01*
X147566209Y-99124505D01*
X147650832Y-99144821D01*
X147807584Y-99182454D01*
X147807590Y-99182455D01*
X147812397Y-99183609D01*
X148064800Y-99203474D01*
X148317203Y-99183609D01*
X148322010Y-99182455D01*
X148322016Y-99182454D01*
X148478768Y-99144821D01*
X148563391Y-99124505D01*
X148567964Y-99122611D01*
X148792728Y-99029511D01*
X148792732Y-99029509D01*
X148797302Y-99027616D01*
X149013176Y-98895328D01*
X149205698Y-98730898D01*
X149370128Y-98538376D01*
X149502416Y-98322502D01*
X149599305Y-98088591D01*
X149627281Y-97972062D01*
X149662633Y-97910493D01*
X149725660Y-97877810D01*
X149796351Y-97884390D01*
X149852262Y-97928145D01*
X149872319Y-97972062D01*
X149900295Y-98088591D01*
X149997184Y-98322502D01*
X150129472Y-98538376D01*
X150293902Y-98730898D01*
X150486424Y-98895328D01*
X150702298Y-99027616D01*
X150706868Y-99029509D01*
X150706872Y-99029511D01*
X150931636Y-99122611D01*
X150936209Y-99124505D01*
X151020832Y-99144821D01*
X151177584Y-99182454D01*
X151177590Y-99182455D01*
X151182397Y-99183609D01*
X151434800Y-99203474D01*
X151687203Y-99183609D01*
X151692010Y-99182455D01*
X151692016Y-99182454D01*
X151848768Y-99144821D01*
X151933391Y-99124505D01*
X151937964Y-99122611D01*
X152162728Y-99029511D01*
X152162732Y-99029509D01*
X152167302Y-99027616D01*
X152383176Y-98895328D01*
X152575698Y-98730898D01*
X152740128Y-98538376D01*
X152872416Y-98322502D01*
X152969305Y-98088591D01*
X152997281Y-97972062D01*
X153027254Y-97847216D01*
X153027255Y-97847210D01*
X153028409Y-97842403D01*
X153048274Y-97590000D01*
X153028409Y-97337597D01*
X153007825Y-97251855D01*
X152970460Y-97096221D01*
X152969305Y-97091409D01*
X152872416Y-96857498D01*
X152740128Y-96641624D01*
X152575698Y-96449102D01*
X152383176Y-96284672D01*
X152167302Y-96152384D01*
X152162732Y-96150491D01*
X152162728Y-96150489D01*
X151937964Y-96057389D01*
X151937962Y-96057388D01*
X151933391Y-96055495D01*
X151816862Y-96027519D01*
X151755293Y-95992167D01*
X151722610Y-95929140D01*
X151729190Y-95858449D01*
X151772945Y-95802538D01*
X151816862Y-95782481D01*
X151849654Y-95774608D01*
X151933391Y-95754505D01*
X151937964Y-95752611D01*
X152162728Y-95659511D01*
X152162732Y-95659509D01*
X152167302Y-95657616D01*
X152383176Y-95525328D01*
X152575698Y-95360898D01*
X152740128Y-95168376D01*
X152872416Y-94952502D01*
X152969305Y-94718591D01*
X152997281Y-94602062D01*
X153027254Y-94477216D01*
X153027255Y-94477210D01*
X153028409Y-94472403D01*
X153048274Y-94220000D01*
X153028409Y-93967597D01*
X153007825Y-93881855D01*
X152970460Y-93726221D01*
X152969305Y-93721409D01*
X152872416Y-93487498D01*
X152740128Y-93271624D01*
X152575698Y-93079102D01*
X152383176Y-92914672D01*
X152167302Y-92782384D01*
X152162732Y-92780491D01*
X152162728Y-92780489D01*
X151937964Y-92687389D01*
X151937962Y-92687388D01*
X151933391Y-92685495D01*
X151848768Y-92665179D01*
X151692016Y-92627546D01*
X151692010Y-92627545D01*
X151687203Y-92626391D01*
X151434800Y-92606526D01*
X151182397Y-92626391D01*
X151177590Y-92627545D01*
X151177584Y-92627546D01*
X151020832Y-92665179D01*
X150936209Y-92685495D01*
X150931638Y-92687388D01*
X150931636Y-92687389D01*
X150706872Y-92780489D01*
X150706868Y-92780491D01*
X150702298Y-92782384D01*
X150486424Y-92914672D01*
X150293902Y-93079102D01*
X150129472Y-93271624D01*
X149997184Y-93487498D01*
X149900295Y-93721409D01*
X149899140Y-93726221D01*
X149872319Y-93837938D01*
X149836967Y-93899507D01*
X149773940Y-93932190D01*
X149703249Y-93925610D01*
X149647338Y-93881855D01*
X149627281Y-93837938D01*
X149600460Y-93726221D01*
X149599305Y-93721409D01*
X149502416Y-93487498D01*
X149370128Y-93271624D01*
X149205698Y-93079102D01*
X149013176Y-92914672D01*
X148797302Y-92782384D01*
X148792732Y-92780491D01*
X148792728Y-92780489D01*
X148567964Y-92687389D01*
X148567962Y-92687388D01*
X148563391Y-92685495D01*
X148478768Y-92665179D01*
X148322016Y-92627546D01*
X148322010Y-92627545D01*
X148317203Y-92626391D01*
X148064800Y-92606526D01*
X147812397Y-92626391D01*
X147807590Y-92627545D01*
X147807584Y-92627546D01*
X147650832Y-92665179D01*
X147566209Y-92685495D01*
X147561638Y-92687388D01*
X147561636Y-92687389D01*
X147336872Y-92780489D01*
X147336868Y-92780491D01*
X147332298Y-92782384D01*
X147116424Y-92914672D01*
X146923902Y-93079102D01*
X146759472Y-93271624D01*
X146627184Y-93487498D01*
X146530295Y-93721409D01*
X146529140Y-93726221D01*
X146491776Y-93881855D01*
X146471191Y-93967597D01*
X146451326Y-94220000D01*
X146471191Y-94472403D01*
X146472345Y-94477210D01*
X146472346Y-94477216D01*
X146502319Y-94602062D01*
X146530295Y-94718591D01*
X146627184Y-94952502D01*
X146759472Y-95168376D01*
X146923902Y-95360898D01*
X147116424Y-95525328D01*
X147332298Y-95657616D01*
X147336868Y-95659509D01*
X147336872Y-95659511D01*
X147561636Y-95752611D01*
X147566209Y-95754505D01*
X147649946Y-95774608D01*
X147682738Y-95782481D01*
X147744307Y-95817833D01*
X147776990Y-95880860D01*
X147770410Y-95951551D01*
X147726655Y-96007462D01*
X147682738Y-96027519D01*
X147566209Y-96055495D01*
X147561638Y-96057388D01*
X147561636Y-96057389D01*
X147336872Y-96150489D01*
X147336868Y-96150491D01*
X147332298Y-96152384D01*
X147116424Y-96284672D01*
X146923902Y-96449102D01*
X146759472Y-96641624D01*
X146627184Y-96857498D01*
X146530295Y-97091409D01*
X146529140Y-97096221D01*
X146491776Y-97251855D01*
X146471191Y-97337597D01*
X146451326Y-97590000D01*
X144845455Y-97590000D01*
X145926225Y-82304821D01*
X145927121Y-82296284D01*
X145963042Y-82039119D01*
X145966571Y-82022316D01*
X146035947Y-81776583D01*
X146041725Y-81760421D01*
X146143875Y-81526381D01*
X146151799Y-81511152D01*
X146284811Y-81293193D01*
X146294725Y-81279191D01*
X146456151Y-81081320D01*
X146467879Y-81068795D01*
X146654702Y-80894715D01*
X146668012Y-80883909D01*
X146876774Y-80736842D01*
X146891444Y-80727938D01*
X147118251Y-80610626D01*
X147134005Y-80603795D01*
X147342366Y-80529866D01*
X147374648Y-80518412D01*
X147391178Y-80513788D01*
X147641211Y-80461911D01*
X147658212Y-80459579D01*
X147917257Y-80441887D01*
X147925842Y-80441594D01*
X153904866Y-80441594D01*
X153914073Y-80441931D01*
G37*
%TD.AperFunction*%
%TD*%
%TA.AperFunction,Conductor*%
%TO.N,Net-(J25-Pad1)*%
G36*
X126990073Y-80441931D02*
G01*
X127267766Y-80462277D01*
X127285983Y-80464961D01*
X127553232Y-80524556D01*
X127570863Y-80529866D01*
X127826575Y-80627777D01*
X127843244Y-80635600D01*
X128081955Y-80769734D01*
X128097304Y-80779901D01*
X128238209Y-80888856D01*
X128313918Y-80947398D01*
X128327623Y-80959696D01*
X128517514Y-81156978D01*
X128529279Y-81171142D01*
X128688380Y-81393980D01*
X128697957Y-81409708D01*
X128822887Y-81653369D01*
X128830068Y-81670325D01*
X128919634Y-81933960D01*
X128922277Y-81942785D01*
X135070606Y-105590203D01*
X135072374Y-105598017D01*
X135118293Y-105835784D01*
X135120324Y-105851669D01*
X135135713Y-106093338D01*
X135135968Y-106101345D01*
X135135968Y-128983093D01*
X135135647Y-128992081D01*
X135116254Y-129263239D01*
X135113696Y-129281027D01*
X135056871Y-129542248D01*
X135051808Y-129559494D01*
X134958379Y-129809987D01*
X134950913Y-129826334D01*
X134822792Y-130060969D01*
X134813073Y-130076092D01*
X134652865Y-130290104D01*
X134641092Y-130303690D01*
X134452064Y-130492718D01*
X134438478Y-130504491D01*
X134224466Y-130664699D01*
X134209343Y-130674418D01*
X133974708Y-130802539D01*
X133958361Y-130810005D01*
X133707868Y-130903434D01*
X133690626Y-130908496D01*
X133429401Y-130965322D01*
X133411618Y-130967879D01*
X133189839Y-130983741D01*
X133140455Y-130987273D01*
X133131467Y-130987594D01*
X119360469Y-130987594D01*
X119351481Y-130987273D01*
X119302097Y-130983741D01*
X119080318Y-130967879D01*
X119062535Y-130965322D01*
X118801310Y-130908496D01*
X118784068Y-130903434D01*
X118533575Y-130810005D01*
X118517228Y-130802539D01*
X118282593Y-130674418D01*
X118267470Y-130664699D01*
X118053458Y-130504491D01*
X118039872Y-130492718D01*
X117850844Y-130303690D01*
X117839071Y-130290104D01*
X117678863Y-130076092D01*
X117669144Y-130060969D01*
X117541023Y-129826334D01*
X117533557Y-129809987D01*
X117440128Y-129559494D01*
X117435065Y-129542248D01*
X117378240Y-129281027D01*
X117375682Y-129263239D01*
X117356289Y-128992081D01*
X117355968Y-128983093D01*
X117355968Y-105659304D01*
X117355988Y-105657079D01*
X117357175Y-105589857D01*
X117357330Y-105585457D01*
X117360896Y-105518145D01*
X117361026Y-105516058D01*
X117801671Y-99284086D01*
X117915728Y-97671000D01*
X119679726Y-97671000D01*
X119699591Y-97923403D01*
X119700745Y-97928210D01*
X119700746Y-97928216D01*
X119730719Y-98053062D01*
X119758695Y-98169591D01*
X119855584Y-98403502D01*
X119987872Y-98619376D01*
X120152302Y-98811898D01*
X120344824Y-98976328D01*
X120560698Y-99108616D01*
X120565268Y-99110509D01*
X120565272Y-99110511D01*
X120790036Y-99203611D01*
X120794609Y-99205505D01*
X120879232Y-99225821D01*
X121035984Y-99263454D01*
X121035990Y-99263455D01*
X121040797Y-99264609D01*
X121293200Y-99284474D01*
X121545603Y-99264609D01*
X121550410Y-99263455D01*
X121550416Y-99263454D01*
X121707168Y-99225821D01*
X121791791Y-99205505D01*
X121796364Y-99203611D01*
X122021128Y-99110511D01*
X122021132Y-99110509D01*
X122025702Y-99108616D01*
X122241576Y-98976328D01*
X122434098Y-98811898D01*
X122598528Y-98619376D01*
X122730816Y-98403502D01*
X122827705Y-98169591D01*
X122855681Y-98053062D01*
X122891033Y-97991493D01*
X122954060Y-97958810D01*
X123024751Y-97965390D01*
X123080662Y-98009145D01*
X123100719Y-98053062D01*
X123128695Y-98169591D01*
X123225584Y-98403502D01*
X123357872Y-98619376D01*
X123522302Y-98811898D01*
X123714824Y-98976328D01*
X123930698Y-99108616D01*
X123935268Y-99110509D01*
X123935272Y-99110511D01*
X124160036Y-99203611D01*
X124164609Y-99205505D01*
X124249232Y-99225821D01*
X124405984Y-99263454D01*
X124405990Y-99263455D01*
X124410797Y-99264609D01*
X124663200Y-99284474D01*
X124915603Y-99264609D01*
X124920410Y-99263455D01*
X124920416Y-99263454D01*
X125077168Y-99225821D01*
X125161791Y-99205505D01*
X125166364Y-99203611D01*
X125391128Y-99110511D01*
X125391132Y-99110509D01*
X125395702Y-99108616D01*
X125611576Y-98976328D01*
X125804098Y-98811898D01*
X125968528Y-98619376D01*
X126100816Y-98403502D01*
X126197705Y-98169591D01*
X126225681Y-98053062D01*
X126255654Y-97928216D01*
X126255655Y-97928210D01*
X126256809Y-97923403D01*
X126276674Y-97671000D01*
X126256809Y-97418597D01*
X126236225Y-97332855D01*
X126198860Y-97177221D01*
X126197705Y-97172409D01*
X126100816Y-96938498D01*
X125968528Y-96722624D01*
X125804098Y-96530102D01*
X125611576Y-96365672D01*
X125395702Y-96233384D01*
X125391132Y-96231491D01*
X125391128Y-96231489D01*
X125166364Y-96138389D01*
X125166362Y-96138388D01*
X125161791Y-96136495D01*
X125045262Y-96108519D01*
X124983693Y-96073167D01*
X124951010Y-96010140D01*
X124957590Y-95939449D01*
X125001345Y-95883538D01*
X125045262Y-95863481D01*
X125078054Y-95855608D01*
X125161791Y-95835505D01*
X125166364Y-95833611D01*
X125391128Y-95740511D01*
X125391132Y-95740509D01*
X125395702Y-95738616D01*
X125611576Y-95606328D01*
X125804098Y-95441898D01*
X125968528Y-95249376D01*
X126100816Y-95033502D01*
X126197705Y-94799591D01*
X126225681Y-94683062D01*
X126255654Y-94558216D01*
X126255655Y-94558210D01*
X126256809Y-94553403D01*
X126276674Y-94301000D01*
X126256809Y-94048597D01*
X126236225Y-93962855D01*
X126198860Y-93807221D01*
X126197705Y-93802409D01*
X126100816Y-93568498D01*
X125968528Y-93352624D01*
X125804098Y-93160102D01*
X125611576Y-92995672D01*
X125395702Y-92863384D01*
X125391132Y-92861491D01*
X125391128Y-92861489D01*
X125166364Y-92768389D01*
X125166362Y-92768388D01*
X125161791Y-92766495D01*
X125077168Y-92746179D01*
X124920416Y-92708546D01*
X124920410Y-92708545D01*
X124915603Y-92707391D01*
X124663200Y-92687526D01*
X124410797Y-92707391D01*
X124405990Y-92708545D01*
X124405984Y-92708546D01*
X124249232Y-92746179D01*
X124164609Y-92766495D01*
X124160038Y-92768388D01*
X124160036Y-92768389D01*
X123935272Y-92861489D01*
X123935268Y-92861491D01*
X123930698Y-92863384D01*
X123714824Y-92995672D01*
X123522302Y-93160102D01*
X123357872Y-93352624D01*
X123225584Y-93568498D01*
X123128695Y-93802409D01*
X123127540Y-93807221D01*
X123100719Y-93918938D01*
X123065367Y-93980507D01*
X123002340Y-94013190D01*
X122931649Y-94006610D01*
X122875738Y-93962855D01*
X122855681Y-93918938D01*
X122828860Y-93807221D01*
X122827705Y-93802409D01*
X122730816Y-93568498D01*
X122598528Y-93352624D01*
X122434098Y-93160102D01*
X122241576Y-92995672D01*
X122025702Y-92863384D01*
X122021132Y-92861491D01*
X122021128Y-92861489D01*
X121796364Y-92768389D01*
X121796362Y-92768388D01*
X121791791Y-92766495D01*
X121707168Y-92746179D01*
X121550416Y-92708546D01*
X121550410Y-92708545D01*
X121545603Y-92707391D01*
X121293200Y-92687526D01*
X121040797Y-92707391D01*
X121035990Y-92708545D01*
X121035984Y-92708546D01*
X120879232Y-92746179D01*
X120794609Y-92766495D01*
X120790038Y-92768388D01*
X120790036Y-92768389D01*
X120565272Y-92861489D01*
X120565268Y-92861491D01*
X120560698Y-92863384D01*
X120344824Y-92995672D01*
X120152302Y-93160102D01*
X119987872Y-93352624D01*
X119855584Y-93568498D01*
X119758695Y-93802409D01*
X119757540Y-93807221D01*
X119720176Y-93962855D01*
X119699591Y-94048597D01*
X119679726Y-94301000D01*
X119699591Y-94553403D01*
X119700745Y-94558210D01*
X119700746Y-94558216D01*
X119730719Y-94683062D01*
X119758695Y-94799591D01*
X119855584Y-95033502D01*
X119987872Y-95249376D01*
X120152302Y-95441898D01*
X120344824Y-95606328D01*
X120560698Y-95738616D01*
X120565268Y-95740509D01*
X120565272Y-95740511D01*
X120790036Y-95833611D01*
X120794609Y-95835505D01*
X120878346Y-95855608D01*
X120911138Y-95863481D01*
X120972707Y-95898833D01*
X121005390Y-95961860D01*
X120998810Y-96032551D01*
X120955055Y-96088462D01*
X120911138Y-96108519D01*
X120794609Y-96136495D01*
X120790038Y-96138388D01*
X120790036Y-96138389D01*
X120565272Y-96231489D01*
X120565268Y-96231491D01*
X120560698Y-96233384D01*
X120344824Y-96365672D01*
X120152302Y-96530102D01*
X119987872Y-96722624D01*
X119855584Y-96938498D01*
X119758695Y-97172409D01*
X119757540Y-97177221D01*
X119720176Y-97332855D01*
X119699591Y-97418597D01*
X119679726Y-97671000D01*
X117915728Y-97671000D01*
X119002225Y-82304821D01*
X119003121Y-82296284D01*
X119039042Y-82039119D01*
X119042571Y-82022316D01*
X119111947Y-81776583D01*
X119117725Y-81760421D01*
X119219875Y-81526381D01*
X119227799Y-81511152D01*
X119360811Y-81293193D01*
X119370725Y-81279191D01*
X119532151Y-81081320D01*
X119543879Y-81068795D01*
X119730702Y-80894715D01*
X119744012Y-80883909D01*
X119952774Y-80736842D01*
X119967444Y-80727938D01*
X120194251Y-80610626D01*
X120210005Y-80603795D01*
X120418366Y-80529866D01*
X120450648Y-80518412D01*
X120467178Y-80513788D01*
X120717211Y-80461911D01*
X120734212Y-80459579D01*
X120993257Y-80441887D01*
X121001842Y-80441594D01*
X126980866Y-80441594D01*
X126990073Y-80441931D01*
G37*
%TD.AperFunction*%
%TD*%
%TA.AperFunction,Conductor*%
%TO.N,Net-(J10-Pad1)*%
G36*
X100320073Y-80441931D02*
G01*
X100597766Y-80462277D01*
X100615983Y-80464961D01*
X100883232Y-80524556D01*
X100900863Y-80529866D01*
X101156575Y-80627777D01*
X101173244Y-80635600D01*
X101411955Y-80769734D01*
X101427304Y-80779901D01*
X101568209Y-80888856D01*
X101643918Y-80947398D01*
X101657623Y-80959696D01*
X101847514Y-81156978D01*
X101859279Y-81171142D01*
X102018380Y-81393980D01*
X102027957Y-81409708D01*
X102152887Y-81653369D01*
X102160068Y-81670325D01*
X102249634Y-81933960D01*
X102252277Y-81942785D01*
X108400606Y-105590203D01*
X108402374Y-105598017D01*
X108448293Y-105835784D01*
X108450324Y-105851669D01*
X108465713Y-106093338D01*
X108465968Y-106101345D01*
X108465968Y-128983093D01*
X108465647Y-128992081D01*
X108446254Y-129263239D01*
X108443696Y-129281027D01*
X108386871Y-129542248D01*
X108381808Y-129559494D01*
X108288379Y-129809987D01*
X108280913Y-129826334D01*
X108152792Y-130060969D01*
X108143073Y-130076092D01*
X107982865Y-130290104D01*
X107971092Y-130303690D01*
X107782064Y-130492718D01*
X107768478Y-130504491D01*
X107554466Y-130664699D01*
X107539343Y-130674418D01*
X107304708Y-130802539D01*
X107288361Y-130810005D01*
X107037868Y-130903434D01*
X107020626Y-130908496D01*
X106759401Y-130965322D01*
X106741618Y-130967879D01*
X106519839Y-130983741D01*
X106470455Y-130987273D01*
X106461467Y-130987594D01*
X92690469Y-130987594D01*
X92681481Y-130987273D01*
X92632097Y-130983741D01*
X92410318Y-130967879D01*
X92392535Y-130965322D01*
X92131310Y-130908496D01*
X92114068Y-130903434D01*
X91863575Y-130810005D01*
X91847228Y-130802539D01*
X91612593Y-130674418D01*
X91597470Y-130664699D01*
X91383458Y-130504491D01*
X91369872Y-130492718D01*
X91180844Y-130303690D01*
X91169071Y-130290104D01*
X91008863Y-130076092D01*
X90999144Y-130060969D01*
X90871023Y-129826334D01*
X90863557Y-129809987D01*
X90770128Y-129559494D01*
X90765065Y-129542248D01*
X90708240Y-129281027D01*
X90705682Y-129263239D01*
X90686289Y-128992081D01*
X90685968Y-128983093D01*
X90685968Y-105659304D01*
X90685988Y-105657079D01*
X90687175Y-105589857D01*
X90687330Y-105585457D01*
X90690896Y-105518145D01*
X90691026Y-105516058D01*
X91136839Y-99210997D01*
X91249546Y-97617000D01*
X92908126Y-97617000D01*
X92927991Y-97869403D01*
X92929145Y-97874210D01*
X92929146Y-97874216D01*
X92959119Y-97999062D01*
X92987095Y-98115591D01*
X93083984Y-98349502D01*
X93216272Y-98565376D01*
X93380702Y-98757898D01*
X93573224Y-98922328D01*
X93789098Y-99054616D01*
X93793668Y-99056509D01*
X93793672Y-99056511D01*
X94018436Y-99149611D01*
X94023009Y-99151505D01*
X94107632Y-99171821D01*
X94264384Y-99209454D01*
X94264390Y-99209455D01*
X94269197Y-99210609D01*
X94521600Y-99230474D01*
X94774003Y-99210609D01*
X94778810Y-99209455D01*
X94778816Y-99209454D01*
X94935568Y-99171821D01*
X95020191Y-99151505D01*
X95024764Y-99149611D01*
X95249528Y-99056511D01*
X95249532Y-99056509D01*
X95254102Y-99054616D01*
X95469976Y-98922328D01*
X95662498Y-98757898D01*
X95826928Y-98565376D01*
X95959216Y-98349502D01*
X96056105Y-98115591D01*
X96084081Y-97999062D01*
X96119433Y-97937493D01*
X96182460Y-97904810D01*
X96253151Y-97911390D01*
X96309062Y-97955145D01*
X96329119Y-97999062D01*
X96357095Y-98115591D01*
X96453984Y-98349502D01*
X96586272Y-98565376D01*
X96750702Y-98757898D01*
X96943224Y-98922328D01*
X97159098Y-99054616D01*
X97163668Y-99056509D01*
X97163672Y-99056511D01*
X97388436Y-99149611D01*
X97393009Y-99151505D01*
X97477632Y-99171821D01*
X97634384Y-99209454D01*
X97634390Y-99209455D01*
X97639197Y-99210609D01*
X97891600Y-99230474D01*
X98144003Y-99210609D01*
X98148810Y-99209455D01*
X98148816Y-99209454D01*
X98305568Y-99171821D01*
X98390191Y-99151505D01*
X98394764Y-99149611D01*
X98619528Y-99056511D01*
X98619532Y-99056509D01*
X98624102Y-99054616D01*
X98839976Y-98922328D01*
X99032498Y-98757898D01*
X99196928Y-98565376D01*
X99329216Y-98349502D01*
X99426105Y-98115591D01*
X99454081Y-97999062D01*
X99484054Y-97874216D01*
X99484055Y-97874210D01*
X99485209Y-97869403D01*
X99505074Y-97617000D01*
X99485209Y-97364597D01*
X99464625Y-97278855D01*
X99427260Y-97123221D01*
X99426105Y-97118409D01*
X99329216Y-96884498D01*
X99196928Y-96668624D01*
X99032498Y-96476102D01*
X98839976Y-96311672D01*
X98624102Y-96179384D01*
X98619532Y-96177491D01*
X98619528Y-96177489D01*
X98394764Y-96084389D01*
X98394762Y-96084388D01*
X98390191Y-96082495D01*
X98273662Y-96054519D01*
X98212093Y-96019167D01*
X98179410Y-95956140D01*
X98185990Y-95885449D01*
X98229745Y-95829538D01*
X98273662Y-95809481D01*
X98306454Y-95801608D01*
X98390191Y-95781505D01*
X98394764Y-95779611D01*
X98619528Y-95686511D01*
X98619532Y-95686509D01*
X98624102Y-95684616D01*
X98839976Y-95552328D01*
X99032498Y-95387898D01*
X99196928Y-95195376D01*
X99329216Y-94979502D01*
X99426105Y-94745591D01*
X99454081Y-94629062D01*
X99484054Y-94504216D01*
X99484055Y-94504210D01*
X99485209Y-94499403D01*
X99505074Y-94247000D01*
X99485209Y-93994597D01*
X99464625Y-93908855D01*
X99427260Y-93753221D01*
X99426105Y-93748409D01*
X99329216Y-93514498D01*
X99196928Y-93298624D01*
X99032498Y-93106102D01*
X98839976Y-92941672D01*
X98624102Y-92809384D01*
X98619532Y-92807491D01*
X98619528Y-92807489D01*
X98394764Y-92714389D01*
X98394762Y-92714388D01*
X98390191Y-92712495D01*
X98305568Y-92692179D01*
X98148816Y-92654546D01*
X98148810Y-92654545D01*
X98144003Y-92653391D01*
X97891600Y-92633526D01*
X97639197Y-92653391D01*
X97634390Y-92654545D01*
X97634384Y-92654546D01*
X97477632Y-92692179D01*
X97393009Y-92712495D01*
X97388438Y-92714388D01*
X97388436Y-92714389D01*
X97163672Y-92807489D01*
X97163668Y-92807491D01*
X97159098Y-92809384D01*
X96943224Y-92941672D01*
X96750702Y-93106102D01*
X96586272Y-93298624D01*
X96453984Y-93514498D01*
X96357095Y-93748409D01*
X96355940Y-93753221D01*
X96329119Y-93864938D01*
X96293767Y-93926507D01*
X96230740Y-93959190D01*
X96160049Y-93952610D01*
X96104138Y-93908855D01*
X96084081Y-93864938D01*
X96057260Y-93753221D01*
X96056105Y-93748409D01*
X95959216Y-93514498D01*
X95826928Y-93298624D01*
X95662498Y-93106102D01*
X95469976Y-92941672D01*
X95254102Y-92809384D01*
X95249532Y-92807491D01*
X95249528Y-92807489D01*
X95024764Y-92714389D01*
X95024762Y-92714388D01*
X95020191Y-92712495D01*
X94935568Y-92692179D01*
X94778816Y-92654546D01*
X94778810Y-92654545D01*
X94774003Y-92653391D01*
X94521600Y-92633526D01*
X94269197Y-92653391D01*
X94264390Y-92654545D01*
X94264384Y-92654546D01*
X94107632Y-92692179D01*
X94023009Y-92712495D01*
X94018438Y-92714388D01*
X94018436Y-92714389D01*
X93793672Y-92807489D01*
X93793668Y-92807491D01*
X93789098Y-92809384D01*
X93573224Y-92941672D01*
X93380702Y-93106102D01*
X93216272Y-93298624D01*
X93083984Y-93514498D01*
X92987095Y-93748409D01*
X92985940Y-93753221D01*
X92948576Y-93908855D01*
X92927991Y-93994597D01*
X92908126Y-94247000D01*
X92927991Y-94499403D01*
X92929145Y-94504210D01*
X92929146Y-94504216D01*
X92959119Y-94629062D01*
X92987095Y-94745591D01*
X93083984Y-94979502D01*
X93216272Y-95195376D01*
X93380702Y-95387898D01*
X93573224Y-95552328D01*
X93789098Y-95684616D01*
X93793668Y-95686509D01*
X93793672Y-95686511D01*
X94018436Y-95779611D01*
X94023009Y-95781505D01*
X94106746Y-95801608D01*
X94139538Y-95809481D01*
X94201107Y-95844833D01*
X94233790Y-95907860D01*
X94227210Y-95978551D01*
X94183455Y-96034462D01*
X94139538Y-96054519D01*
X94023009Y-96082495D01*
X94018438Y-96084388D01*
X94018436Y-96084389D01*
X93793672Y-96177489D01*
X93793668Y-96177491D01*
X93789098Y-96179384D01*
X93573224Y-96311672D01*
X93380702Y-96476102D01*
X93216272Y-96668624D01*
X93083984Y-96884498D01*
X92987095Y-97118409D01*
X92985940Y-97123221D01*
X92948576Y-97278855D01*
X92927991Y-97364597D01*
X92908126Y-97617000D01*
X91249546Y-97617000D01*
X92332225Y-82304821D01*
X92333121Y-82296284D01*
X92369042Y-82039119D01*
X92372571Y-82022316D01*
X92441947Y-81776583D01*
X92447725Y-81760421D01*
X92549875Y-81526381D01*
X92557799Y-81511152D01*
X92690811Y-81293193D01*
X92700725Y-81279191D01*
X92862151Y-81081320D01*
X92873879Y-81068795D01*
X93060702Y-80894715D01*
X93074012Y-80883909D01*
X93282774Y-80736842D01*
X93297444Y-80727938D01*
X93524251Y-80610626D01*
X93540005Y-80603795D01*
X93748366Y-80529866D01*
X93780648Y-80518412D01*
X93797178Y-80513788D01*
X94047211Y-80461911D01*
X94064212Y-80459579D01*
X94323257Y-80441887D01*
X94331842Y-80441594D01*
X100310866Y-80441594D01*
X100320073Y-80441931D01*
G37*
%TD.AperFunction*%
%TD*%
%TA.AperFunction,Conductor*%
%TO.N,Net-(J12-Pad1)*%
G36*
X73465835Y-80367913D02*
G01*
X73743528Y-80388259D01*
X73761745Y-80390943D01*
X74028994Y-80450538D01*
X74046625Y-80455848D01*
X74302337Y-80553759D01*
X74319006Y-80561582D01*
X74557717Y-80695716D01*
X74573066Y-80705883D01*
X74713971Y-80814838D01*
X74789680Y-80873380D01*
X74803385Y-80885678D01*
X74993276Y-81082960D01*
X75005041Y-81097124D01*
X75164142Y-81319962D01*
X75173719Y-81335690D01*
X75298649Y-81579351D01*
X75305830Y-81596307D01*
X75395396Y-81859942D01*
X75398039Y-81868767D01*
X81546368Y-105516185D01*
X81548136Y-105523999D01*
X81594055Y-105761766D01*
X81596086Y-105777651D01*
X81611475Y-106019320D01*
X81611730Y-106027327D01*
X81611730Y-128909075D01*
X81611409Y-128918063D01*
X81592016Y-129189221D01*
X81589458Y-129207009D01*
X81532633Y-129468230D01*
X81527570Y-129485476D01*
X81434141Y-129735969D01*
X81426675Y-129752316D01*
X81298554Y-129986951D01*
X81288835Y-130002074D01*
X81128627Y-130216086D01*
X81116854Y-130229672D01*
X80927826Y-130418700D01*
X80914240Y-130430473D01*
X80700228Y-130590681D01*
X80685105Y-130600400D01*
X80450470Y-130728521D01*
X80434123Y-130735987D01*
X80183630Y-130829416D01*
X80166388Y-130834478D01*
X79905163Y-130891304D01*
X79887380Y-130893861D01*
X79665601Y-130909723D01*
X79616217Y-130913255D01*
X79607229Y-130913576D01*
X65836231Y-130913576D01*
X65827243Y-130913255D01*
X65777859Y-130909723D01*
X65556080Y-130893861D01*
X65538297Y-130891304D01*
X65277072Y-130834478D01*
X65259830Y-130829416D01*
X65009337Y-130735987D01*
X64992990Y-130728521D01*
X64758355Y-130600400D01*
X64743232Y-130590681D01*
X64529220Y-130430473D01*
X64515634Y-130418700D01*
X64326606Y-130229672D01*
X64314833Y-130216086D01*
X64154625Y-130002074D01*
X64144906Y-129986951D01*
X64016785Y-129752316D01*
X64009319Y-129735969D01*
X63915890Y-129485476D01*
X63910827Y-129468230D01*
X63854002Y-129207009D01*
X63851444Y-129189221D01*
X63832051Y-128918063D01*
X63831730Y-128909075D01*
X63831730Y-105585286D01*
X63831750Y-105583061D01*
X63832937Y-105515839D01*
X63833092Y-105511439D01*
X63836658Y-105444127D01*
X63836788Y-105442040D01*
X64275765Y-99233660D01*
X64384347Y-97698000D01*
X66136526Y-97698000D01*
X66156391Y-97950403D01*
X66157545Y-97955210D01*
X66157546Y-97955216D01*
X66187519Y-98080062D01*
X66215495Y-98196591D01*
X66312384Y-98430502D01*
X66444672Y-98646376D01*
X66609102Y-98838898D01*
X66801624Y-99003328D01*
X67017498Y-99135616D01*
X67022068Y-99137509D01*
X67022072Y-99137511D01*
X67246836Y-99230611D01*
X67251409Y-99232505D01*
X67336032Y-99252821D01*
X67492784Y-99290454D01*
X67492790Y-99290455D01*
X67497597Y-99291609D01*
X67750000Y-99311474D01*
X68002403Y-99291609D01*
X68007210Y-99290455D01*
X68007216Y-99290454D01*
X68163968Y-99252821D01*
X68248591Y-99232505D01*
X68253164Y-99230611D01*
X68477928Y-99137511D01*
X68477932Y-99137509D01*
X68482502Y-99135616D01*
X68698376Y-99003328D01*
X68890898Y-98838898D01*
X69055328Y-98646376D01*
X69187616Y-98430502D01*
X69284505Y-98196591D01*
X69312481Y-98080062D01*
X69347833Y-98018493D01*
X69410860Y-97985810D01*
X69481551Y-97992390D01*
X69537462Y-98036145D01*
X69557519Y-98080062D01*
X69585495Y-98196591D01*
X69682384Y-98430502D01*
X69814672Y-98646376D01*
X69979102Y-98838898D01*
X70171624Y-99003328D01*
X70387498Y-99135616D01*
X70392068Y-99137509D01*
X70392072Y-99137511D01*
X70616836Y-99230611D01*
X70621409Y-99232505D01*
X70706032Y-99252821D01*
X70862784Y-99290454D01*
X70862790Y-99290455D01*
X70867597Y-99291609D01*
X71120000Y-99311474D01*
X71372403Y-99291609D01*
X71377210Y-99290455D01*
X71377216Y-99290454D01*
X71533968Y-99252821D01*
X71618591Y-99232505D01*
X71623164Y-99230611D01*
X71847928Y-99137511D01*
X71847932Y-99137509D01*
X71852502Y-99135616D01*
X72068376Y-99003328D01*
X72260898Y-98838898D01*
X72425328Y-98646376D01*
X72557616Y-98430502D01*
X72654505Y-98196591D01*
X72682481Y-98080062D01*
X72712454Y-97955216D01*
X72712455Y-97955210D01*
X72713609Y-97950403D01*
X72733474Y-97698000D01*
X72713609Y-97445597D01*
X72693025Y-97359855D01*
X72655660Y-97204221D01*
X72654505Y-97199409D01*
X72557616Y-96965498D01*
X72425328Y-96749624D01*
X72260898Y-96557102D01*
X72068376Y-96392672D01*
X71852502Y-96260384D01*
X71847932Y-96258491D01*
X71847928Y-96258489D01*
X71623164Y-96165389D01*
X71623162Y-96165388D01*
X71618591Y-96163495D01*
X71502062Y-96135519D01*
X71440493Y-96100167D01*
X71407810Y-96037140D01*
X71414390Y-95966449D01*
X71458145Y-95910538D01*
X71502062Y-95890481D01*
X71534854Y-95882608D01*
X71618591Y-95862505D01*
X71623164Y-95860611D01*
X71847928Y-95767511D01*
X71847932Y-95767509D01*
X71852502Y-95765616D01*
X72068376Y-95633328D01*
X72260898Y-95468898D01*
X72425328Y-95276376D01*
X72557616Y-95060502D01*
X72654505Y-94826591D01*
X72682481Y-94710062D01*
X72712454Y-94585216D01*
X72712455Y-94585210D01*
X72713609Y-94580403D01*
X72733474Y-94328000D01*
X72713609Y-94075597D01*
X72693025Y-93989855D01*
X72655660Y-93834221D01*
X72654505Y-93829409D01*
X72557616Y-93595498D01*
X72425328Y-93379624D01*
X72260898Y-93187102D01*
X72068376Y-93022672D01*
X71852502Y-92890384D01*
X71847932Y-92888491D01*
X71847928Y-92888489D01*
X71623164Y-92795389D01*
X71623162Y-92795388D01*
X71618591Y-92793495D01*
X71533968Y-92773179D01*
X71377216Y-92735546D01*
X71377210Y-92735545D01*
X71372403Y-92734391D01*
X71120000Y-92714526D01*
X70867597Y-92734391D01*
X70862790Y-92735545D01*
X70862784Y-92735546D01*
X70706032Y-92773179D01*
X70621409Y-92793495D01*
X70616838Y-92795388D01*
X70616836Y-92795389D01*
X70392072Y-92888489D01*
X70392068Y-92888491D01*
X70387498Y-92890384D01*
X70171624Y-93022672D01*
X69979102Y-93187102D01*
X69814672Y-93379624D01*
X69682384Y-93595498D01*
X69585495Y-93829409D01*
X69584340Y-93834221D01*
X69557519Y-93945938D01*
X69522167Y-94007507D01*
X69459140Y-94040190D01*
X69388449Y-94033610D01*
X69332538Y-93989855D01*
X69312481Y-93945938D01*
X69285660Y-93834221D01*
X69284505Y-93829409D01*
X69187616Y-93595498D01*
X69055328Y-93379624D01*
X68890898Y-93187102D01*
X68698376Y-93022672D01*
X68482502Y-92890384D01*
X68477932Y-92888491D01*
X68477928Y-92888489D01*
X68253164Y-92795389D01*
X68253162Y-92795388D01*
X68248591Y-92793495D01*
X68163968Y-92773179D01*
X68007216Y-92735546D01*
X68007210Y-92735545D01*
X68002403Y-92734391D01*
X67750000Y-92714526D01*
X67497597Y-92734391D01*
X67492790Y-92735545D01*
X67492784Y-92735546D01*
X67336032Y-92773179D01*
X67251409Y-92793495D01*
X67246838Y-92795388D01*
X67246836Y-92795389D01*
X67022072Y-92888489D01*
X67022068Y-92888491D01*
X67017498Y-92890384D01*
X66801624Y-93022672D01*
X66609102Y-93187102D01*
X66444672Y-93379624D01*
X66312384Y-93595498D01*
X66215495Y-93829409D01*
X66214340Y-93834221D01*
X66176976Y-93989855D01*
X66156391Y-94075597D01*
X66136526Y-94328000D01*
X66156391Y-94580403D01*
X66157545Y-94585210D01*
X66157546Y-94585216D01*
X66187519Y-94710062D01*
X66215495Y-94826591D01*
X66312384Y-95060502D01*
X66444672Y-95276376D01*
X66609102Y-95468898D01*
X66801624Y-95633328D01*
X67017498Y-95765616D01*
X67022068Y-95767509D01*
X67022072Y-95767511D01*
X67246836Y-95860611D01*
X67251409Y-95862505D01*
X67335146Y-95882608D01*
X67367938Y-95890481D01*
X67429507Y-95925833D01*
X67462190Y-95988860D01*
X67455610Y-96059551D01*
X67411855Y-96115462D01*
X67367938Y-96135519D01*
X67251409Y-96163495D01*
X67246838Y-96165388D01*
X67246836Y-96165389D01*
X67022072Y-96258489D01*
X67022068Y-96258491D01*
X67017498Y-96260384D01*
X66801624Y-96392672D01*
X66609102Y-96557102D01*
X66444672Y-96749624D01*
X66312384Y-96965498D01*
X66215495Y-97199409D01*
X66214340Y-97204221D01*
X66176976Y-97359855D01*
X66156391Y-97445597D01*
X66136526Y-97698000D01*
X64384347Y-97698000D01*
X65477987Y-82230803D01*
X65478883Y-82222266D01*
X65514804Y-81965101D01*
X65518333Y-81948298D01*
X65587709Y-81702565D01*
X65593487Y-81686403D01*
X65695637Y-81452363D01*
X65703561Y-81437134D01*
X65836573Y-81219175D01*
X65846487Y-81205173D01*
X66007913Y-81007302D01*
X66019641Y-80994777D01*
X66206464Y-80820697D01*
X66219774Y-80809891D01*
X66428536Y-80662824D01*
X66443206Y-80653920D01*
X66670013Y-80536608D01*
X66685767Y-80529777D01*
X66894128Y-80455848D01*
X66926410Y-80444394D01*
X66942940Y-80439770D01*
X67192973Y-80387893D01*
X67209974Y-80385561D01*
X67469019Y-80367869D01*
X67477604Y-80367576D01*
X73456628Y-80367576D01*
X73465835Y-80367913D01*
G37*
%TD.AperFunction*%
%TD*%
%TA.AperFunction,Conductor*%
%TO.N,Net-(J16-Pad1)*%
G36*
X207323835Y-80367913D02*
G01*
X207601528Y-80388259D01*
X207619745Y-80390943D01*
X207886994Y-80450538D01*
X207904625Y-80455848D01*
X208160337Y-80553759D01*
X208177006Y-80561582D01*
X208415717Y-80695716D01*
X208431066Y-80705883D01*
X208571971Y-80814838D01*
X208647680Y-80873380D01*
X208661385Y-80885678D01*
X208851276Y-81082960D01*
X208863041Y-81097124D01*
X209022142Y-81319962D01*
X209031719Y-81335690D01*
X209156649Y-81579351D01*
X209163830Y-81596307D01*
X209253396Y-81859942D01*
X209256039Y-81868767D01*
X215404368Y-105516185D01*
X215406136Y-105523999D01*
X215452055Y-105761766D01*
X215454086Y-105777651D01*
X215469475Y-106019320D01*
X215469730Y-106027327D01*
X215469730Y-128909075D01*
X215469409Y-128918063D01*
X215450016Y-129189221D01*
X215447458Y-129207009D01*
X215390633Y-129468230D01*
X215385570Y-129485476D01*
X215292141Y-129735969D01*
X215284675Y-129752316D01*
X215156554Y-129986951D01*
X215146835Y-130002074D01*
X214986627Y-130216086D01*
X214974854Y-130229672D01*
X214785826Y-130418700D01*
X214772240Y-130430473D01*
X214558228Y-130590681D01*
X214543105Y-130600400D01*
X214308470Y-130728521D01*
X214292123Y-130735987D01*
X214041630Y-130829416D01*
X214024388Y-130834478D01*
X213763163Y-130891304D01*
X213745380Y-130893861D01*
X213523601Y-130909723D01*
X213474217Y-130913255D01*
X213465229Y-130913576D01*
X199694231Y-130913576D01*
X199685243Y-130913255D01*
X199635859Y-130909723D01*
X199414080Y-130893861D01*
X199396297Y-130891304D01*
X199135072Y-130834478D01*
X199117830Y-130829416D01*
X198867337Y-130735987D01*
X198850990Y-130728521D01*
X198616355Y-130600400D01*
X198601232Y-130590681D01*
X198387220Y-130430473D01*
X198373634Y-130418700D01*
X198184606Y-130229672D01*
X198172833Y-130216086D01*
X198012625Y-130002074D01*
X198002906Y-129986951D01*
X197874785Y-129752316D01*
X197867319Y-129735969D01*
X197773890Y-129485476D01*
X197768827Y-129468230D01*
X197712002Y-129207009D01*
X197709444Y-129189221D01*
X197690051Y-128918063D01*
X197689730Y-128909075D01*
X197689730Y-105585286D01*
X197689750Y-105583061D01*
X197690937Y-105515839D01*
X197691092Y-105511439D01*
X197694658Y-105444127D01*
X197694788Y-105442040D01*
X198137836Y-99176086D01*
X198251893Y-97563000D01*
X199994526Y-97563000D01*
X200014391Y-97815403D01*
X200015545Y-97820210D01*
X200015546Y-97820216D01*
X200045519Y-97945062D01*
X200073495Y-98061591D01*
X200170384Y-98295502D01*
X200302672Y-98511376D01*
X200467102Y-98703898D01*
X200659624Y-98868328D01*
X200875498Y-99000616D01*
X200880068Y-99002509D01*
X200880072Y-99002511D01*
X201104836Y-99095611D01*
X201109409Y-99097505D01*
X201194032Y-99117821D01*
X201350784Y-99155454D01*
X201350790Y-99155455D01*
X201355597Y-99156609D01*
X201608000Y-99176474D01*
X201860403Y-99156609D01*
X201865210Y-99155455D01*
X201865216Y-99155454D01*
X202021968Y-99117821D01*
X202106591Y-99097505D01*
X202111164Y-99095611D01*
X202335928Y-99002511D01*
X202335932Y-99002509D01*
X202340502Y-99000616D01*
X202556376Y-98868328D01*
X202748898Y-98703898D01*
X202913328Y-98511376D01*
X203045616Y-98295502D01*
X203142505Y-98061591D01*
X203170481Y-97945062D01*
X203205833Y-97883493D01*
X203268860Y-97850810D01*
X203339551Y-97857390D01*
X203395462Y-97901145D01*
X203415519Y-97945062D01*
X203443495Y-98061591D01*
X203540384Y-98295502D01*
X203672672Y-98511376D01*
X203837102Y-98703898D01*
X204029624Y-98868328D01*
X204245498Y-99000616D01*
X204250068Y-99002509D01*
X204250072Y-99002511D01*
X204474836Y-99095611D01*
X204479409Y-99097505D01*
X204564032Y-99117821D01*
X204720784Y-99155454D01*
X204720790Y-99155455D01*
X204725597Y-99156609D01*
X204978000Y-99176474D01*
X205230403Y-99156609D01*
X205235210Y-99155455D01*
X205235216Y-99155454D01*
X205391968Y-99117821D01*
X205476591Y-99097505D01*
X205481164Y-99095611D01*
X205705928Y-99002511D01*
X205705932Y-99002509D01*
X205710502Y-99000616D01*
X205926376Y-98868328D01*
X206118898Y-98703898D01*
X206283328Y-98511376D01*
X206415616Y-98295502D01*
X206512505Y-98061591D01*
X206540481Y-97945062D01*
X206570454Y-97820216D01*
X206570455Y-97820210D01*
X206571609Y-97815403D01*
X206591474Y-97563000D01*
X206571609Y-97310597D01*
X206551025Y-97224855D01*
X206513660Y-97069221D01*
X206512505Y-97064409D01*
X206415616Y-96830498D01*
X206283328Y-96614624D01*
X206118898Y-96422102D01*
X205926376Y-96257672D01*
X205710502Y-96125384D01*
X205705932Y-96123491D01*
X205705928Y-96123489D01*
X205481164Y-96030389D01*
X205481162Y-96030388D01*
X205476591Y-96028495D01*
X205360062Y-96000519D01*
X205298493Y-95965167D01*
X205265810Y-95902140D01*
X205272390Y-95831449D01*
X205316145Y-95775538D01*
X205360062Y-95755481D01*
X205392854Y-95747608D01*
X205476591Y-95727505D01*
X205481164Y-95725611D01*
X205705928Y-95632511D01*
X205705932Y-95632509D01*
X205710502Y-95630616D01*
X205926376Y-95498328D01*
X206118898Y-95333898D01*
X206283328Y-95141376D01*
X206415616Y-94925502D01*
X206512505Y-94691591D01*
X206540481Y-94575062D01*
X206570454Y-94450216D01*
X206570455Y-94450210D01*
X206571609Y-94445403D01*
X206591474Y-94193000D01*
X206571609Y-93940597D01*
X206551025Y-93854855D01*
X206513660Y-93699221D01*
X206512505Y-93694409D01*
X206415616Y-93460498D01*
X206283328Y-93244624D01*
X206118898Y-93052102D01*
X205926376Y-92887672D01*
X205710502Y-92755384D01*
X205705932Y-92753491D01*
X205705928Y-92753489D01*
X205481164Y-92660389D01*
X205481162Y-92660388D01*
X205476591Y-92658495D01*
X205391968Y-92638179D01*
X205235216Y-92600546D01*
X205235210Y-92600545D01*
X205230403Y-92599391D01*
X204978000Y-92579526D01*
X204725597Y-92599391D01*
X204720790Y-92600545D01*
X204720784Y-92600546D01*
X204564032Y-92638179D01*
X204479409Y-92658495D01*
X204474838Y-92660388D01*
X204474836Y-92660389D01*
X204250072Y-92753489D01*
X204250068Y-92753491D01*
X204245498Y-92755384D01*
X204029624Y-92887672D01*
X203837102Y-93052102D01*
X203672672Y-93244624D01*
X203540384Y-93460498D01*
X203443495Y-93694409D01*
X203442340Y-93699221D01*
X203415519Y-93810938D01*
X203380167Y-93872507D01*
X203317140Y-93905190D01*
X203246449Y-93898610D01*
X203190538Y-93854855D01*
X203170481Y-93810938D01*
X203143660Y-93699221D01*
X203142505Y-93694409D01*
X203045616Y-93460498D01*
X202913328Y-93244624D01*
X202748898Y-93052102D01*
X202556376Y-92887672D01*
X202340502Y-92755384D01*
X202335932Y-92753491D01*
X202335928Y-92753489D01*
X202111164Y-92660389D01*
X202111162Y-92660388D01*
X202106591Y-92658495D01*
X202021968Y-92638179D01*
X201865216Y-92600546D01*
X201865210Y-92600545D01*
X201860403Y-92599391D01*
X201608000Y-92579526D01*
X201355597Y-92599391D01*
X201350790Y-92600545D01*
X201350784Y-92600546D01*
X201194032Y-92638179D01*
X201109409Y-92658495D01*
X201104838Y-92660388D01*
X201104836Y-92660389D01*
X200880072Y-92753489D01*
X200880068Y-92753491D01*
X200875498Y-92755384D01*
X200659624Y-92887672D01*
X200467102Y-93052102D01*
X200302672Y-93244624D01*
X200170384Y-93460498D01*
X200073495Y-93694409D01*
X200072340Y-93699221D01*
X200034976Y-93854855D01*
X200014391Y-93940597D01*
X199994526Y-94193000D01*
X200014391Y-94445403D01*
X200015545Y-94450210D01*
X200015546Y-94450216D01*
X200045519Y-94575062D01*
X200073495Y-94691591D01*
X200170384Y-94925502D01*
X200302672Y-95141376D01*
X200467102Y-95333898D01*
X200659624Y-95498328D01*
X200875498Y-95630616D01*
X200880068Y-95632509D01*
X200880072Y-95632511D01*
X201104836Y-95725611D01*
X201109409Y-95727505D01*
X201193146Y-95747608D01*
X201225938Y-95755481D01*
X201287507Y-95790833D01*
X201320190Y-95853860D01*
X201313610Y-95924551D01*
X201269855Y-95980462D01*
X201225938Y-96000519D01*
X201109409Y-96028495D01*
X201104838Y-96030388D01*
X201104836Y-96030389D01*
X200880072Y-96123489D01*
X200880068Y-96123491D01*
X200875498Y-96125384D01*
X200659624Y-96257672D01*
X200467102Y-96422102D01*
X200302672Y-96614624D01*
X200170384Y-96830498D01*
X200073495Y-97064409D01*
X200072340Y-97069221D01*
X200034976Y-97224855D01*
X200014391Y-97310597D01*
X199994526Y-97563000D01*
X198251893Y-97563000D01*
X199335987Y-82230803D01*
X199336883Y-82222266D01*
X199372804Y-81965101D01*
X199376333Y-81948298D01*
X199445709Y-81702565D01*
X199451487Y-81686403D01*
X199553637Y-81452363D01*
X199561561Y-81437134D01*
X199694573Y-81219175D01*
X199704487Y-81205173D01*
X199865913Y-81007302D01*
X199877641Y-80994777D01*
X200064464Y-80820697D01*
X200077774Y-80809891D01*
X200286536Y-80662824D01*
X200301206Y-80653920D01*
X200528013Y-80536608D01*
X200543767Y-80529777D01*
X200752128Y-80455848D01*
X200784410Y-80444394D01*
X200800940Y-80439770D01*
X201050973Y-80387893D01*
X201067974Y-80385561D01*
X201327019Y-80367869D01*
X201335604Y-80367576D01*
X207314628Y-80367576D01*
X207323835Y-80367913D01*
G37*
%TD.AperFunction*%
%TD*%
M02*
