M48
; DRILL file {KiCad (6.0.1)} date Tue Sep 19 13:45:27 2023
; FORMAT={-:-/ absolute / inch / decimal}
; #@! TF.CreationDate,2023-09-19T13:45:27-05:00
; #@! TF.GenerationSoftware,Kicad,Pcbnew,(6.0.1)
; #@! TF.FileFunction,Plated,1,2,PTH
FMAT,2
INCH
; #@! TA.AperFunction,Plated,PTH,ComponentDrill
T1C0.0394
; #@! TA.AperFunction,Plated,PTH,ComponentDrill
T2C0.0669
; #@! TA.AperFunction,Plated,PTH,ComponentDrill
T3C0.0709
%
G90
G05
T1
X2.1654Y-2.31
X2.1654Y-2.41
X3.1702Y-2.31
X3.1702Y-2.41
X4.225Y-2.31
X4.225Y-2.41
X5.2797Y-2.31
X5.2797Y-2.41
X6.3345Y-2.31
X6.3345Y-2.41
X7.3892Y-2.31
X7.3892Y-2.41
X8.4439Y-2.31
X8.4439Y-2.41
X8.8165Y-2.3052
X8.8165Y-2.4052
T2
X2.6673Y-2.7747
X2.6673Y-2.9074
X2.6673Y-3.2413
X2.6673Y-3.3739
X2.6673Y-3.7137
X2.6673Y-3.8464
X2.8Y-2.7747
X2.8Y-2.9074
X2.8Y-3.2413
X2.8Y-3.3739
X2.8Y-3.7137
X2.8Y-3.8464
X3.7213Y-2.7715
X3.7213Y-2.9042
X3.7213Y-3.2381
X3.7213Y-3.3707
X3.7213Y-3.7105
X3.7213Y-3.8432
X3.854Y-2.7715
X3.854Y-2.9042
X3.854Y-3.2381
X3.854Y-3.3707
X3.854Y-3.7105
X3.854Y-3.8432
X4.7753Y-2.7737
X4.7753Y-2.9063
X4.7753Y-3.2402
X4.7753Y-3.3729
X4.7753Y-3.7126
X4.7753Y-3.8453
X4.908Y-2.7737
X4.908Y-2.9063
X4.908Y-3.2402
X4.908Y-3.3729
X4.908Y-3.7126
X4.908Y-3.8453
X5.8293Y-2.7705
X5.8293Y-2.9031
X5.8293Y-3.237
X5.8293Y-3.3697
X5.8293Y-3.7094
X5.8293Y-3.8421
X5.962Y-2.7705
X5.962Y-2.9031
X5.962Y-3.237
X5.962Y-3.3697
X5.962Y-3.7094
X5.962Y-3.8421
X6.8833Y-2.7726
X6.8833Y-2.9053
X6.8833Y-3.2391
X6.8833Y-3.3718
X6.8833Y-3.7116
X6.8833Y-3.8443
X7.016Y-2.7726
X7.016Y-2.9053
X7.016Y-3.2391
X7.016Y-3.3718
X7.016Y-3.7116
X7.016Y-3.8443
X7.9373Y-2.7694
X7.9373Y-2.9021
X7.9373Y-3.2359
X7.9373Y-3.3686
X7.9373Y-3.7084
X7.9373Y-3.8411
X8.07Y-2.7694
X8.07Y-2.9021
X8.07Y-3.2359
X8.07Y-3.3686
X8.07Y-3.7084
X8.07Y-3.8411
T3
X1.8458Y-4.33
X1.8458Y-4.9324
X2.3728Y-4.33
X2.3728Y-4.9324
X2.8998Y-4.33
X2.8998Y-4.9324
X3.4269Y-4.33
X3.4269Y-4.9324
X3.9539Y-4.33
X3.9539Y-4.9324
X4.4809Y-4.33
X4.4809Y-4.9324
X5.0079Y-4.33
X5.0079Y-4.9324
X5.535Y-4.33
X5.535Y-4.9324
X6.062Y-4.33
X6.062Y-4.9324
X6.589Y-4.33
X6.589Y-4.9324
X7.1161Y-4.33
X7.1161Y-4.9324
X7.6431Y-4.33
X7.6431Y-4.9324
X8.1701Y-4.33
X8.1701Y-4.9324
X8.6972Y-4.33
X8.6972Y-4.9324
T0
M30
