%TF.GenerationSoftware,KiCad,Pcbnew,(6.0.1)*%
%TF.CreationDate,2023-09-19T13:45:29-05:00*%
%TF.ProjectId,TestMotherboard,54657374-4d6f-4746-9865-72626f617264,rev?*%
%TF.SameCoordinates,Original*%
%TF.FileFunction,Copper,L1,Top*%
%TF.FilePolarity,Positive*%
%FSLAX46Y46*%
G04 Gerber Fmt 4.6, Leading zero omitted, Abs format (unit mm)*
G04 Created by KiCad (PCBNEW (6.0.1)) date 2023-09-19 13:45:29*
%MOMM*%
%LPD*%
G01*
G04 APERTURE LIST*
%TA.AperFunction,ComponentPad*%
%ADD10C,2.200000*%
%TD*%
%TA.AperFunction,ComponentPad*%
%ADD11R,1.700000X1.700000*%
%TD*%
%TA.AperFunction,ComponentPad*%
%ADD12O,1.700000X1.700000*%
%TD*%
%TA.AperFunction,ComponentPad*%
%ADD13C,2.700000*%
%TD*%
%TA.AperFunction,Conductor*%
%ADD14C,1.000000*%
%TD*%
G04 APERTURE END LIST*
D10*
%TO.P,J17,1,Pin_1*%
%TO.N,Net-(J17-Pad1)*%
X204978000Y-70343000D03*
X204978000Y-73713000D03*
X201608000Y-73713000D03*
X201608000Y-70343000D03*
%TD*%
%TO.P,J16,1,Pin_1*%
%TO.N,Net-(J16-Pad1)*%
X204978000Y-82193000D03*
X204978000Y-85563000D03*
X201608000Y-85563000D03*
X201608000Y-82193000D03*
%TD*%
%TO.P,J15,1,Pin_1*%
%TO.N,Net-(J1-Pad1)*%
X204978000Y-94193000D03*
X204978000Y-97563000D03*
X201608000Y-97563000D03*
X201608000Y-94193000D03*
%TD*%
%TO.P,J18,1,Pin_1*%
%TO.N,Net-(J17-Pad1)*%
X178206400Y-94274000D03*
X178206400Y-97644000D03*
X174836400Y-97644000D03*
X174836400Y-94274000D03*
%TD*%
%TO.P,J19,1,Pin_1*%
%TO.N,Net-(J19-Pad1)*%
X178206400Y-82274000D03*
X178206400Y-85644000D03*
X174836400Y-85644000D03*
X174836400Y-82274000D03*
%TD*%
%TO.P,J20,1,Pin_1*%
%TO.N,Net-(J20-Pad1)*%
X178206400Y-70424000D03*
X178206400Y-73794000D03*
X174836400Y-73794000D03*
X174836400Y-70424000D03*
%TD*%
%TO.P,J22,1,Pin_1*%
%TO.N,Net-(J22-Pad1)*%
X151434800Y-82220000D03*
X151434800Y-85590000D03*
X148064800Y-85590000D03*
X148064800Y-82220000D03*
%TD*%
%TO.P,J21,1,Pin_1*%
%TO.N,Net-(J20-Pad1)*%
X151434800Y-94220000D03*
X151434800Y-97590000D03*
X148064800Y-97590000D03*
X148064800Y-94220000D03*
%TD*%
%TO.P,J23,1,Pin_1*%
%TO.N,Net-(J23-Pad1)*%
X151434800Y-70370000D03*
X151434800Y-73740000D03*
X148064800Y-73740000D03*
X148064800Y-70370000D03*
%TD*%
%TO.P,J24,1,Pin_1*%
%TO.N,Net-(J23-Pad1)*%
X124663200Y-94301000D03*
X124663200Y-97671000D03*
X121293200Y-97671000D03*
X121293200Y-94301000D03*
%TD*%
%TO.P,J25,1,Pin_1*%
%TO.N,Net-(J25-Pad1)*%
X124663200Y-82301000D03*
X124663200Y-85671000D03*
X121293200Y-85671000D03*
X121293200Y-82301000D03*
%TD*%
%TO.P,J26,1,Pin_1*%
%TO.N,Net-(J26-Pad1)*%
X124663200Y-70451000D03*
X124663200Y-73821000D03*
X121293200Y-73821000D03*
X121293200Y-70451000D03*
%TD*%
%TO.P,J27,1,Pin_1*%
%TO.N,Net-(J26-Pad1)*%
X97891600Y-94247000D03*
X97891600Y-97617000D03*
X94521600Y-97617000D03*
X94521600Y-94247000D03*
%TD*%
%TO.P,J28,1,Pin_1*%
%TO.N,Net-(J10-Pad1)*%
X97891600Y-82247000D03*
X97891600Y-85617000D03*
X94521600Y-85617000D03*
X94521600Y-82247000D03*
%TD*%
%TO.P,J29,1,Pin_1*%
%TO.N,Net-(J11-Pad1)*%
X97891600Y-70397000D03*
X97891600Y-73767000D03*
X94521600Y-73767000D03*
X94521600Y-70397000D03*
%TD*%
%TO.P,J30,1,Pin_1*%
%TO.N,Net-(J11-Pad1)*%
X71120000Y-94328000D03*
X71120000Y-97698000D03*
X67750000Y-97698000D03*
X67750000Y-94328000D03*
%TD*%
%TO.P,J31,1,Pin_1*%
%TO.N,Net-(J12-Pad1)*%
X71120000Y-82328000D03*
X71120000Y-85698000D03*
X67750000Y-85698000D03*
X67750000Y-82328000D03*
%TD*%
%TO.P,J32,1,Pin_1*%
%TO.N,GND*%
X71120000Y-70478000D03*
X71120000Y-73848000D03*
X67750000Y-73848000D03*
X67750000Y-70478000D03*
%TD*%
D11*
%TO.P,J40,1,Pin_1*%
%TO.N,/Sec_PWM*%
X55000000Y-58674000D03*
D12*
%TO.P,J40,2,Pin_2*%
%TO.N,GND1*%
X55000000Y-61214000D03*
%TD*%
D11*
%TO.P,J34,1,Pin_1*%
%TO.N,/Sec_PWM*%
X187685750Y-58674000D03*
D12*
%TO.P,J34,2,Pin_2*%
%TO.N,GND1*%
X187685750Y-61214000D03*
%TD*%
D11*
%TO.P,J35,1,Pin_1*%
%TO.N,/Sec_PWM*%
X160895250Y-58674000D03*
D12*
%TO.P,J35,2,Pin_2*%
%TO.N,GND1*%
X160895250Y-61214000D03*
%TD*%
D11*
%TO.P,J36,1,Pin_1*%
%TO.N,/Sec_PWM*%
X134104750Y-58674000D03*
D12*
%TO.P,J36,2,Pin_2*%
%TO.N,GND1*%
X134104750Y-61214000D03*
%TD*%
D11*
%TO.P,J39,1,Pin_1*%
%TO.N,/Sec_PWM*%
X223940250Y-58552000D03*
D12*
%TO.P,J39,2,Pin_2*%
%TO.N,GND1*%
X223940250Y-61092000D03*
%TD*%
D13*
%TO.P,J3,1,Pin_1*%
%TO.N,Net-(J17-Pad1)*%
X194134554Y-109982000D03*
X194134554Y-125282000D03*
%TD*%
%TO.P,J7,1,Pin_1*%
%TO.N,Net-(J23-Pad1)*%
X140588402Y-125282000D03*
X140588402Y-109982000D03*
%TD*%
%TO.P,J1,1,Pin_1*%
%TO.N,Net-(J1-Pad1)*%
X220907630Y-109982000D03*
X220907630Y-125282000D03*
%TD*%
%TO.P,J12,1,Pin_1*%
%TO.N,Net-(J12-Pad1)*%
X73655712Y-109982000D03*
X73655712Y-125282000D03*
%TD*%
%TO.P,J5,1,Pin_1*%
%TO.N,Net-(J20-Pad1)*%
X167361478Y-109982000D03*
X167361478Y-125282000D03*
%TD*%
D11*
%TO.P,J37,1,Pin_1*%
%TO.N,/Sec_PWM*%
X107314250Y-58674000D03*
D12*
%TO.P,J37,2,Pin_2*%
%TO.N,GND1*%
X107314250Y-61214000D03*
%TD*%
D13*
%TO.P,J10,1,Pin_1*%
%TO.N,Net-(J10-Pad1)*%
X100428788Y-125282000D03*
X100428788Y-109982000D03*
%TD*%
%TO.P,J4,1,Pin_1*%
%TO.N,Net-(J19-Pad1)*%
X180748016Y-109982000D03*
X180748016Y-125282000D03*
%TD*%
%TO.P,J2,1,Pin_1*%
%TO.N,Net-(J16-Pad1)*%
X207521092Y-125282000D03*
X207521092Y-109982000D03*
%TD*%
%TO.P,J6,1,Pin_1*%
%TO.N,Net-(J22-Pad1)*%
X153974940Y-125282000D03*
X153974940Y-109982000D03*
%TD*%
%TO.P,J8,1,Pin_1*%
%TO.N,Net-(J25-Pad1)*%
X127201864Y-109982000D03*
X127201864Y-125282000D03*
%TD*%
D11*
%TO.P,J38,1,Pin_1*%
%TO.N,/Sec_PWM*%
X80523750Y-58674000D03*
D12*
%TO.P,J38,2,Pin_2*%
%TO.N,GND1*%
X80523750Y-61214000D03*
%TD*%
D13*
%TO.P,J9,1,Pin_1*%
%TO.N,Net-(J26-Pad1)*%
X113815326Y-109982000D03*
X113815326Y-125282000D03*
%TD*%
%TO.P,J13,1,Pin_1*%
%TO.N,GND*%
X60269174Y-109982000D03*
X60269174Y-125282000D03*
%TD*%
%TO.P,J14,1,Pin_1*%
%TO.N,GND*%
X46882630Y-109982000D03*
X46882630Y-125282000D03*
%TD*%
%TO.P,J11,1,Pin_1*%
%TO.N,Net-(J11-Pad1)*%
X87042250Y-109982000D03*
X87042250Y-125282000D03*
%TD*%
D11*
%TO.P,J33,1,Pin_1*%
%TO.N,/Sec_PWM*%
X214476250Y-58674000D03*
D12*
%TO.P,J33,2,Pin_2*%
%TO.N,GND1*%
X214476250Y-61214000D03*
%TD*%
D14*
%TO.N,GND1*%
X55000000Y-61214000D02*
X80523750Y-61214000D01*
%TO.N,/Sec_PWM*%
X55000000Y-58674000D02*
X80523750Y-58674000D01*
X223940250Y-58552000D02*
X214598250Y-58552000D01*
X134104750Y-58674000D02*
X107314250Y-58674000D01*
X160895250Y-58674000D02*
X134104750Y-58674000D01*
X187685750Y-58674000D02*
X160895250Y-58674000D01*
X214476250Y-58674000D02*
X187685750Y-58674000D01*
X214598250Y-58552000D02*
X214476250Y-58674000D01*
X107314250Y-58674000D02*
X80523750Y-58674000D01*
%TO.N,GND1*%
X80523750Y-61214000D02*
X107314250Y-61214000D01*
X223940250Y-61092000D02*
X214598250Y-61092000D01*
X107314250Y-61214000D02*
X214476250Y-61214000D01*
X214598250Y-61092000D02*
X214476250Y-61214000D01*
%TD*%
%TA.AperFunction,Conductor*%
%TO.N,Net-(J17-Pad1)*%
G36*
X205014487Y-68072321D02*
G01*
X205063871Y-68075853D01*
X205285650Y-68091715D01*
X205303433Y-68094272D01*
X205564658Y-68151098D01*
X205581900Y-68156160D01*
X205832393Y-68249589D01*
X205848740Y-68257055D01*
X206083375Y-68385176D01*
X206098498Y-68394895D01*
X206312510Y-68555103D01*
X206326096Y-68566876D01*
X206515124Y-68755904D01*
X206526897Y-68769490D01*
X206687105Y-68983502D01*
X206696824Y-68998625D01*
X206824945Y-69233260D01*
X206832411Y-69249607D01*
X206925839Y-69500097D01*
X206930902Y-69517342D01*
X206987728Y-69778567D01*
X206990286Y-69796355D01*
X207009679Y-70067513D01*
X207010000Y-70076501D01*
X207010000Y-73925505D01*
X207009691Y-73934319D01*
X206991045Y-74200219D01*
X206988585Y-74217674D01*
X206933934Y-74474047D01*
X206929062Y-74490988D01*
X206839168Y-74737223D01*
X206831980Y-74753318D01*
X206708594Y-74984612D01*
X206699232Y-74999540D01*
X206544780Y-75211339D01*
X206533424Y-75224820D01*
X206350927Y-75412991D01*
X206337799Y-75424756D01*
X206130824Y-75585618D01*
X206116183Y-75595435D01*
X205884954Y-75728033D01*
X205877155Y-75732150D01*
X203073000Y-77089000D01*
X199136000Y-78994000D01*
X199136000Y-129059499D01*
X199135679Y-129068487D01*
X199116286Y-129339645D01*
X199113728Y-129357433D01*
X199056903Y-129618654D01*
X199051840Y-129635900D01*
X198958411Y-129886393D01*
X198950945Y-129902740D01*
X198822824Y-130137375D01*
X198813105Y-130152498D01*
X198652897Y-130366510D01*
X198641124Y-130380096D01*
X198452096Y-130569124D01*
X198438510Y-130580897D01*
X198224498Y-130741105D01*
X198209375Y-130750824D01*
X197974740Y-130878945D01*
X197958393Y-130886411D01*
X197707900Y-130979840D01*
X197690658Y-130984902D01*
X197429433Y-131041728D01*
X197411650Y-131044285D01*
X197189871Y-131060147D01*
X197140487Y-131063679D01*
X197131499Y-131064000D01*
X190726501Y-131064000D01*
X190717513Y-131063679D01*
X190668129Y-131060147D01*
X190446350Y-131044285D01*
X190428567Y-131041728D01*
X190167342Y-130984902D01*
X190150100Y-130979840D01*
X189899607Y-130886411D01*
X189883260Y-130878945D01*
X189648625Y-130750824D01*
X189633502Y-130741105D01*
X189419490Y-130580897D01*
X189405904Y-130569124D01*
X189216876Y-130380096D01*
X189205103Y-130366510D01*
X189044895Y-130152498D01*
X189035176Y-130137375D01*
X188907055Y-129902740D01*
X188899589Y-129886393D01*
X188806160Y-129635900D01*
X188801097Y-129618654D01*
X188744272Y-129357433D01*
X188741714Y-129339645D01*
X188722321Y-129068487D01*
X188722000Y-129059499D01*
X188722000Y-104140000D01*
X182118000Y-99568000D01*
X175232501Y-99568000D01*
X175223513Y-99567679D01*
X175174129Y-99564147D01*
X174952350Y-99548285D01*
X174934567Y-99545728D01*
X174673342Y-99488902D01*
X174656100Y-99483840D01*
X174405607Y-99390411D01*
X174389260Y-99382945D01*
X174154625Y-99254824D01*
X174139502Y-99245105D01*
X173925490Y-99084897D01*
X173911904Y-99073124D01*
X173722876Y-98884096D01*
X173711103Y-98870510D01*
X173550895Y-98656498D01*
X173541176Y-98641375D01*
X173413055Y-98406740D01*
X173405589Y-98390393D01*
X173312160Y-98139900D01*
X173307097Y-98122654D01*
X173250272Y-97861433D01*
X173247714Y-97843645D01*
X173228321Y-97572487D01*
X173228000Y-97563499D01*
X173228000Y-94206501D01*
X173228321Y-94197513D01*
X173247714Y-93926355D01*
X173250272Y-93908567D01*
X173307098Y-93647342D01*
X173312161Y-93630097D01*
X173405589Y-93379607D01*
X173413055Y-93363260D01*
X173541176Y-93128625D01*
X173550895Y-93113502D01*
X173711103Y-92899490D01*
X173722876Y-92885904D01*
X173911904Y-92696876D01*
X173925490Y-92685103D01*
X174139502Y-92524895D01*
X174154625Y-92515176D01*
X174389260Y-92387055D01*
X174405607Y-92379589D01*
X174656100Y-92286160D01*
X174673342Y-92281098D01*
X174934567Y-92224272D01*
X174952350Y-92221715D01*
X175174129Y-92205853D01*
X175223513Y-92202321D01*
X175232501Y-92202000D01*
X181610000Y-92202000D01*
X189230000Y-84582000D01*
X189230000Y-75319418D01*
X189230348Y-75310056D01*
X189236699Y-75224820D01*
X189251387Y-75027691D01*
X189254161Y-75009179D01*
X189315771Y-74737640D01*
X189321258Y-74719744D01*
X189422429Y-74460334D01*
X189430510Y-74443443D01*
X189569008Y-74201889D01*
X189579497Y-74186392D01*
X189752262Y-73968032D01*
X189764938Y-73954252D01*
X189968155Y-73763905D01*
X189982735Y-73752155D01*
X190215781Y-73591362D01*
X190223684Y-73586332D01*
X196219644Y-70076501D01*
X199172378Y-68348071D01*
X199179706Y-68344102D01*
X199405189Y-68231433D01*
X199420561Y-68224984D01*
X199421092Y-68224801D01*
X199655014Y-68144419D01*
X199671089Y-68140060D01*
X199792602Y-68115606D01*
X199914111Y-68091152D01*
X199930635Y-68088951D01*
X200182162Y-68072276D01*
X200190497Y-68072000D01*
X205005499Y-68072000D01*
X205014487Y-68072321D01*
G37*
%TD.AperFunction*%
%TD*%
%TA.AperFunction,Conductor*%
%TO.N,Net-(J20-Pad1)*%
G36*
X178344487Y-67818321D02*
G01*
X178393871Y-67821853D01*
X178615650Y-67837715D01*
X178633433Y-67840272D01*
X178894658Y-67897098D01*
X178911900Y-67902160D01*
X179162393Y-67995589D01*
X179178740Y-68003055D01*
X179413375Y-68131176D01*
X179428498Y-68140895D01*
X179642510Y-68301103D01*
X179656096Y-68312876D01*
X179845124Y-68501904D01*
X179856897Y-68515490D01*
X180017105Y-68729502D01*
X180026824Y-68744625D01*
X180154945Y-68979260D01*
X180162411Y-68995607D01*
X180255839Y-69246097D01*
X180260902Y-69263342D01*
X180317728Y-69524567D01*
X180320286Y-69542355D01*
X180339679Y-69813513D01*
X180340000Y-69822501D01*
X180340000Y-73654207D01*
X180339685Y-73663118D01*
X180320626Y-73931940D01*
X180318111Y-73949582D01*
X180262263Y-74208637D01*
X180257287Y-74225743D01*
X180168622Y-74465738D01*
X180165444Y-74474341D01*
X180158101Y-74490579D01*
X180032107Y-74723723D01*
X180022547Y-74738763D01*
X179864918Y-74951803D01*
X179853331Y-74965344D01*
X179667221Y-75154013D01*
X179653840Y-75165783D01*
X179442979Y-75326306D01*
X179428071Y-75336071D01*
X179192769Y-75467415D01*
X179184835Y-75471483D01*
X173365145Y-78199463D01*
X173365139Y-78199466D01*
X172212000Y-78740000D01*
X172212000Y-128805499D01*
X172211679Y-128814487D01*
X172192286Y-129085645D01*
X172189728Y-129103433D01*
X172132903Y-129364654D01*
X172127840Y-129381900D01*
X172034411Y-129632393D01*
X172026945Y-129648740D01*
X171898824Y-129883375D01*
X171889105Y-129898498D01*
X171728897Y-130112510D01*
X171717124Y-130126096D01*
X171528096Y-130315124D01*
X171514510Y-130326897D01*
X171300498Y-130487105D01*
X171285375Y-130496824D01*
X171050740Y-130624945D01*
X171034393Y-130632411D01*
X170783900Y-130725840D01*
X170766658Y-130730902D01*
X170505433Y-130787728D01*
X170487650Y-130790285D01*
X170265871Y-130806147D01*
X170216487Y-130809679D01*
X170207499Y-130810000D01*
X164056501Y-130810000D01*
X164047513Y-130809679D01*
X163998129Y-130806147D01*
X163776350Y-130790285D01*
X163758567Y-130787728D01*
X163497342Y-130730902D01*
X163480100Y-130725840D01*
X163229607Y-130632411D01*
X163213260Y-130624945D01*
X162978625Y-130496824D01*
X162963502Y-130487105D01*
X162749490Y-130326897D01*
X162735904Y-130315124D01*
X162546876Y-130126096D01*
X162535103Y-130112510D01*
X162374895Y-129898498D01*
X162365176Y-129883375D01*
X162237055Y-129648740D01*
X162229589Y-129632393D01*
X162136160Y-129381900D01*
X162131097Y-129364654D01*
X162074272Y-129103433D01*
X162071714Y-129085645D01*
X162052321Y-128814487D01*
X162052000Y-128805499D01*
X162052000Y-103886000D01*
X155448000Y-99314000D01*
X148562501Y-99314000D01*
X148553513Y-99313679D01*
X148504129Y-99310147D01*
X148282350Y-99294285D01*
X148264567Y-99291728D01*
X148003342Y-99234902D01*
X147986100Y-99229840D01*
X147735607Y-99136411D01*
X147719260Y-99128945D01*
X147484625Y-99000824D01*
X147469502Y-98991105D01*
X147255490Y-98830897D01*
X147241904Y-98819124D01*
X147052876Y-98630096D01*
X147041103Y-98616510D01*
X146880895Y-98402498D01*
X146871176Y-98387375D01*
X146743055Y-98152740D01*
X146735589Y-98136393D01*
X146642160Y-97885900D01*
X146637097Y-97868654D01*
X146580272Y-97607433D01*
X146577714Y-97589645D01*
X146558321Y-97318487D01*
X146558000Y-97309499D01*
X146558000Y-93952501D01*
X146558321Y-93943513D01*
X146577714Y-93672355D01*
X146580272Y-93654567D01*
X146637098Y-93393342D01*
X146642161Y-93376097D01*
X146735589Y-93125607D01*
X146743055Y-93109260D01*
X146871176Y-92874625D01*
X146880895Y-92859502D01*
X147041103Y-92645490D01*
X147052876Y-92631904D01*
X147241904Y-92442876D01*
X147255490Y-92431103D01*
X147469502Y-92270895D01*
X147484625Y-92261176D01*
X147719260Y-92133055D01*
X147735607Y-92125589D01*
X147986100Y-92032160D01*
X148003342Y-92027098D01*
X148264567Y-91970272D01*
X148282350Y-91967715D01*
X148504129Y-91951853D01*
X148553513Y-91948321D01*
X148562501Y-91948000D01*
X154940000Y-91948000D01*
X162560000Y-84328000D01*
X162560000Y-75065418D01*
X162560348Y-75056056D01*
X162581386Y-74773697D01*
X162584161Y-74755179D01*
X162589515Y-74731584D01*
X162645773Y-74483634D01*
X162651258Y-74465744D01*
X162752429Y-74206334D01*
X162760510Y-74189443D01*
X162899008Y-73947889D01*
X162909497Y-73932392D01*
X163082262Y-73714032D01*
X163094938Y-73700252D01*
X163298155Y-73509905D01*
X163312735Y-73498155D01*
X163545781Y-73337362D01*
X163553684Y-73332332D01*
X169549644Y-69822501D01*
X172502378Y-68094071D01*
X172509706Y-68090102D01*
X172735189Y-67977433D01*
X172750561Y-67970984D01*
X172751092Y-67970801D01*
X172985014Y-67890419D01*
X173001089Y-67886060D01*
X173122603Y-67861605D01*
X173244111Y-67837152D01*
X173260635Y-67834951D01*
X173512162Y-67818276D01*
X173520497Y-67818000D01*
X178335499Y-67818000D01*
X178344487Y-67818321D01*
G37*
%TD.AperFunction*%
%TD*%
%TA.AperFunction,Conductor*%
%TO.N,Net-(J23-Pad1)*%
G36*
X151420487Y-68072321D02*
G01*
X151469871Y-68075853D01*
X151691650Y-68091715D01*
X151709433Y-68094272D01*
X151970658Y-68151098D01*
X151987900Y-68156160D01*
X152238393Y-68249589D01*
X152254740Y-68257055D01*
X152489375Y-68385176D01*
X152504498Y-68394895D01*
X152718510Y-68555103D01*
X152732096Y-68566876D01*
X152921124Y-68755904D01*
X152932897Y-68769490D01*
X153093105Y-68983502D01*
X153102824Y-68998625D01*
X153230945Y-69233260D01*
X153238411Y-69249607D01*
X153331839Y-69500097D01*
X153336902Y-69517342D01*
X153393728Y-69778567D01*
X153396286Y-69796355D01*
X153415679Y-70067513D01*
X153416000Y-70076501D01*
X153416000Y-73925505D01*
X153415691Y-73934319D01*
X153397045Y-74200219D01*
X153394585Y-74217674D01*
X153339934Y-74474047D01*
X153335062Y-74490988D01*
X153245168Y-74737223D01*
X153237980Y-74753318D01*
X153114594Y-74984612D01*
X153105232Y-74999540D01*
X152950780Y-75211339D01*
X152939424Y-75224820D01*
X152756927Y-75412991D01*
X152743799Y-75424756D01*
X152536824Y-75585618D01*
X152522183Y-75595435D01*
X152290954Y-75728033D01*
X152283155Y-75732150D01*
X149479000Y-77089000D01*
X145542000Y-78994000D01*
X145542000Y-129059499D01*
X145541679Y-129068487D01*
X145522286Y-129339645D01*
X145519728Y-129357433D01*
X145462903Y-129618654D01*
X145457840Y-129635900D01*
X145364411Y-129886393D01*
X145356945Y-129902740D01*
X145228824Y-130137375D01*
X145219105Y-130152498D01*
X145058897Y-130366510D01*
X145047124Y-130380096D01*
X144858096Y-130569124D01*
X144844510Y-130580897D01*
X144630498Y-130741105D01*
X144615375Y-130750824D01*
X144380740Y-130878945D01*
X144364393Y-130886411D01*
X144113900Y-130979840D01*
X144096658Y-130984902D01*
X143835433Y-131041728D01*
X143817650Y-131044285D01*
X143595871Y-131060147D01*
X143546487Y-131063679D01*
X143537499Y-131064000D01*
X137132501Y-131064000D01*
X137123513Y-131063679D01*
X137074129Y-131060147D01*
X136852350Y-131044285D01*
X136834567Y-131041728D01*
X136573342Y-130984902D01*
X136556100Y-130979840D01*
X136305607Y-130886411D01*
X136289260Y-130878945D01*
X136054625Y-130750824D01*
X136039502Y-130741105D01*
X135825490Y-130580897D01*
X135811904Y-130569124D01*
X135622876Y-130380096D01*
X135611103Y-130366510D01*
X135450895Y-130152498D01*
X135441176Y-130137375D01*
X135313055Y-129902740D01*
X135305589Y-129886393D01*
X135212160Y-129635900D01*
X135207097Y-129618654D01*
X135150272Y-129357433D01*
X135147714Y-129339645D01*
X135128321Y-129068487D01*
X135128000Y-129059499D01*
X135128000Y-104140000D01*
X128524000Y-99568000D01*
X121638501Y-99568000D01*
X121629513Y-99567679D01*
X121580129Y-99564147D01*
X121358350Y-99548285D01*
X121340567Y-99545728D01*
X121079342Y-99488902D01*
X121062100Y-99483840D01*
X120811607Y-99390411D01*
X120795260Y-99382945D01*
X120560625Y-99254824D01*
X120545502Y-99245105D01*
X120331490Y-99084897D01*
X120317904Y-99073124D01*
X120128876Y-98884096D01*
X120117103Y-98870510D01*
X119956895Y-98656498D01*
X119947176Y-98641375D01*
X119819055Y-98406740D01*
X119811589Y-98390393D01*
X119718160Y-98139900D01*
X119713097Y-98122654D01*
X119656272Y-97861433D01*
X119653714Y-97843645D01*
X119634321Y-97572487D01*
X119634000Y-97563499D01*
X119634000Y-94206501D01*
X119634321Y-94197513D01*
X119653714Y-93926355D01*
X119656272Y-93908567D01*
X119713098Y-93647342D01*
X119718161Y-93630097D01*
X119811589Y-93379607D01*
X119819055Y-93363260D01*
X119947176Y-93128625D01*
X119956895Y-93113502D01*
X120117103Y-92899490D01*
X120128876Y-92885904D01*
X120317904Y-92696876D01*
X120331490Y-92685103D01*
X120545502Y-92524895D01*
X120560625Y-92515176D01*
X120795260Y-92387055D01*
X120811607Y-92379589D01*
X121062100Y-92286160D01*
X121079342Y-92281098D01*
X121340567Y-92224272D01*
X121358350Y-92221715D01*
X121580129Y-92205853D01*
X121629513Y-92202321D01*
X121638501Y-92202000D01*
X128016000Y-92202000D01*
X135636000Y-84582000D01*
X135636000Y-75319418D01*
X135636348Y-75310056D01*
X135642699Y-75224820D01*
X135657387Y-75027691D01*
X135660161Y-75009179D01*
X135721771Y-74737640D01*
X135727258Y-74719744D01*
X135828429Y-74460334D01*
X135836510Y-74443443D01*
X135975008Y-74201889D01*
X135985497Y-74186392D01*
X136158262Y-73968032D01*
X136170938Y-73954252D01*
X136374155Y-73763905D01*
X136388735Y-73752155D01*
X136621781Y-73591362D01*
X136629684Y-73586332D01*
X142625644Y-70076501D01*
X145578378Y-68348071D01*
X145585706Y-68344102D01*
X145811189Y-68231433D01*
X145826561Y-68224984D01*
X145827092Y-68224801D01*
X146061014Y-68144419D01*
X146077089Y-68140060D01*
X146198602Y-68115606D01*
X146320111Y-68091152D01*
X146336635Y-68088951D01*
X146588162Y-68072276D01*
X146596497Y-68072000D01*
X151411499Y-68072000D01*
X151420487Y-68072321D01*
G37*
%TD.AperFunction*%
%TD*%
%TA.AperFunction,Conductor*%
%TO.N,Net-(J26-Pad1)*%
G36*
X124496487Y-68072321D02*
G01*
X124545871Y-68075853D01*
X124767650Y-68091715D01*
X124785433Y-68094272D01*
X125046658Y-68151098D01*
X125063900Y-68156160D01*
X125314393Y-68249589D01*
X125330740Y-68257055D01*
X125565375Y-68385176D01*
X125580498Y-68394895D01*
X125794510Y-68555103D01*
X125808096Y-68566876D01*
X125997124Y-68755904D01*
X126008897Y-68769490D01*
X126169105Y-68983502D01*
X126178824Y-68998625D01*
X126306945Y-69233260D01*
X126314411Y-69249607D01*
X126407839Y-69500097D01*
X126412902Y-69517342D01*
X126469728Y-69778567D01*
X126472286Y-69796355D01*
X126491679Y-70067513D01*
X126492000Y-70076501D01*
X126492000Y-73925505D01*
X126491691Y-73934319D01*
X126473045Y-74200219D01*
X126470585Y-74217674D01*
X126415934Y-74474047D01*
X126411062Y-74490988D01*
X126321168Y-74737223D01*
X126313980Y-74753318D01*
X126190594Y-74984612D01*
X126181232Y-74999540D01*
X126026780Y-75211339D01*
X126015424Y-75224820D01*
X125832927Y-75412991D01*
X125819799Y-75424756D01*
X125612824Y-75585618D01*
X125598183Y-75595435D01*
X125366954Y-75728033D01*
X125359155Y-75732150D01*
X122555000Y-77089000D01*
X118618000Y-78994000D01*
X118618000Y-129059499D01*
X118617679Y-129068487D01*
X118598286Y-129339645D01*
X118595728Y-129357433D01*
X118538903Y-129618654D01*
X118533840Y-129635900D01*
X118440411Y-129886393D01*
X118432945Y-129902740D01*
X118304824Y-130137375D01*
X118295105Y-130152498D01*
X118134897Y-130366510D01*
X118123124Y-130380096D01*
X117934096Y-130569124D01*
X117920510Y-130580897D01*
X117706498Y-130741105D01*
X117691375Y-130750824D01*
X117456740Y-130878945D01*
X117440393Y-130886411D01*
X117189900Y-130979840D01*
X117172658Y-130984902D01*
X116911433Y-131041728D01*
X116893650Y-131044285D01*
X116671871Y-131060147D01*
X116622487Y-131063679D01*
X116613499Y-131064000D01*
X110208501Y-131064000D01*
X110199513Y-131063679D01*
X110150129Y-131060147D01*
X109928350Y-131044285D01*
X109910567Y-131041728D01*
X109649342Y-130984902D01*
X109632100Y-130979840D01*
X109381607Y-130886411D01*
X109365260Y-130878945D01*
X109130625Y-130750824D01*
X109115502Y-130741105D01*
X108901490Y-130580897D01*
X108887904Y-130569124D01*
X108698876Y-130380096D01*
X108687103Y-130366510D01*
X108526895Y-130152498D01*
X108517176Y-130137375D01*
X108389055Y-129902740D01*
X108381589Y-129886393D01*
X108288160Y-129635900D01*
X108283097Y-129618654D01*
X108226272Y-129357433D01*
X108223714Y-129339645D01*
X108204321Y-129068487D01*
X108204000Y-129059499D01*
X108204000Y-104140000D01*
X101600000Y-99568000D01*
X94714501Y-99568000D01*
X94705513Y-99567679D01*
X94656129Y-99564147D01*
X94434350Y-99548285D01*
X94416567Y-99545728D01*
X94155342Y-99488902D01*
X94138100Y-99483840D01*
X93887607Y-99390411D01*
X93871260Y-99382945D01*
X93636625Y-99254824D01*
X93621502Y-99245105D01*
X93407490Y-99084897D01*
X93393904Y-99073124D01*
X93204876Y-98884096D01*
X93193103Y-98870510D01*
X93032895Y-98656498D01*
X93023176Y-98641375D01*
X92895055Y-98406740D01*
X92887589Y-98390393D01*
X92794160Y-98139900D01*
X92789097Y-98122654D01*
X92732272Y-97861433D01*
X92729714Y-97843645D01*
X92710321Y-97572487D01*
X92710000Y-97563499D01*
X92710000Y-94206501D01*
X92710321Y-94197513D01*
X92729714Y-93926355D01*
X92732272Y-93908567D01*
X92789098Y-93647342D01*
X92794161Y-93630097D01*
X92887589Y-93379607D01*
X92895055Y-93363260D01*
X93023176Y-93128625D01*
X93032895Y-93113502D01*
X93193103Y-92899490D01*
X93204876Y-92885904D01*
X93393904Y-92696876D01*
X93407490Y-92685103D01*
X93621502Y-92524895D01*
X93636625Y-92515176D01*
X93871260Y-92387055D01*
X93887607Y-92379589D01*
X94138100Y-92286160D01*
X94155342Y-92281098D01*
X94416567Y-92224272D01*
X94434350Y-92221715D01*
X94656129Y-92205853D01*
X94705513Y-92202321D01*
X94714501Y-92202000D01*
X101092000Y-92202000D01*
X108712000Y-84582000D01*
X108712000Y-75319418D01*
X108712348Y-75310056D01*
X108718699Y-75224820D01*
X108733387Y-75027691D01*
X108736161Y-75009179D01*
X108797771Y-74737640D01*
X108803258Y-74719744D01*
X108904429Y-74460334D01*
X108912510Y-74443443D01*
X109051008Y-74201889D01*
X109061497Y-74186392D01*
X109234262Y-73968032D01*
X109246938Y-73954252D01*
X109450155Y-73763905D01*
X109464735Y-73752155D01*
X109697781Y-73591362D01*
X109705684Y-73586332D01*
X115701644Y-70076501D01*
X118654378Y-68348071D01*
X118661706Y-68344102D01*
X118887189Y-68231433D01*
X118902561Y-68224984D01*
X118903092Y-68224801D01*
X119137014Y-68144419D01*
X119153089Y-68140060D01*
X119274602Y-68115606D01*
X119396111Y-68091152D01*
X119412635Y-68088951D01*
X119664162Y-68072276D01*
X119672497Y-68072000D01*
X124487499Y-68072000D01*
X124496487Y-68072321D01*
G37*
%TD.AperFunction*%
%TD*%
%TA.AperFunction,Conductor*%
%TO.N,GND*%
G36*
X71410487Y-67564321D02*
G01*
X71459871Y-67567853D01*
X71681650Y-67583715D01*
X71699433Y-67586272D01*
X71960658Y-67643098D01*
X71977900Y-67648160D01*
X72228393Y-67741589D01*
X72244740Y-67749055D01*
X72479375Y-67877176D01*
X72494498Y-67886895D01*
X72708510Y-68047103D01*
X72722096Y-68058876D01*
X72911124Y-68247904D01*
X72922897Y-68261490D01*
X73083105Y-68475502D01*
X73092824Y-68490625D01*
X73220945Y-68725260D01*
X73228411Y-68741607D01*
X73321839Y-68992097D01*
X73326902Y-69009342D01*
X73383728Y-69270567D01*
X73386286Y-69288355D01*
X73405679Y-69559513D01*
X73406000Y-69568501D01*
X73406000Y-73417505D01*
X73405691Y-73426319D01*
X73387045Y-73692219D01*
X73384585Y-73709674D01*
X73329934Y-73966047D01*
X73325062Y-73982988D01*
X73235168Y-74229223D01*
X73227980Y-74245318D01*
X73104594Y-74476612D01*
X73095232Y-74491540D01*
X72940780Y-74703339D01*
X72929424Y-74716820D01*
X72746927Y-74904991D01*
X72733799Y-74916756D01*
X72526824Y-75077618D01*
X72512183Y-75087435D01*
X72280954Y-75220033D01*
X72273155Y-75224150D01*
X69469000Y-76581000D01*
X65532000Y-78486000D01*
X65532000Y-128551499D01*
X65531679Y-128560487D01*
X65512286Y-128831645D01*
X65509728Y-128849433D01*
X65452903Y-129110654D01*
X65447840Y-129127900D01*
X65354411Y-129378393D01*
X65346945Y-129394740D01*
X65218824Y-129629375D01*
X65209105Y-129644498D01*
X65048897Y-129858510D01*
X65037124Y-129872096D01*
X64848096Y-130061124D01*
X64834510Y-130072897D01*
X64620498Y-130233105D01*
X64605375Y-130242824D01*
X64370740Y-130370945D01*
X64354393Y-130378411D01*
X64103900Y-130471840D01*
X64086658Y-130476902D01*
X63825433Y-130533728D01*
X63807650Y-130536285D01*
X63585871Y-130552147D01*
X63536487Y-130555679D01*
X63527499Y-130556000D01*
X43406501Y-130556000D01*
X43397513Y-130555679D01*
X43348129Y-130552147D01*
X43126350Y-130536285D01*
X43108567Y-130533728D01*
X42847342Y-130476902D01*
X42830100Y-130471840D01*
X42579607Y-130378411D01*
X42563260Y-130370945D01*
X42328625Y-130242824D01*
X42313502Y-130233105D01*
X42099490Y-130072897D01*
X42085904Y-130061124D01*
X41896876Y-129872096D01*
X41885103Y-129858510D01*
X41724895Y-129644498D01*
X41715176Y-129629375D01*
X41587055Y-129394740D01*
X41579589Y-129378393D01*
X41486160Y-129127900D01*
X41481097Y-129110654D01*
X41424272Y-128849433D01*
X41421714Y-128831645D01*
X41402321Y-128560487D01*
X41402000Y-128551499D01*
X41402000Y-104087159D01*
X41402343Y-104077862D01*
X41423089Y-103797459D01*
X41425826Y-103779069D01*
X41486580Y-103509345D01*
X41491993Y-103491556D01*
X41593465Y-103229357D01*
X41597140Y-103220811D01*
X52875049Y-79456648D01*
X55359621Y-74221300D01*
X55363964Y-74212967D01*
X55504868Y-73965649D01*
X55515381Y-73950039D01*
X55688620Y-73730197D01*
X55701342Y-73716324D01*
X55905400Y-73524741D01*
X55920046Y-73512918D01*
X56154253Y-73351187D01*
X56162197Y-73346129D01*
X62623333Y-69564000D01*
X65568378Y-67840071D01*
X65575706Y-67836102D01*
X65801189Y-67723433D01*
X65816561Y-67716984D01*
X65817092Y-67716801D01*
X66051014Y-67636419D01*
X66067089Y-67632060D01*
X66188602Y-67607606D01*
X66310111Y-67583152D01*
X66326635Y-67580951D01*
X66578162Y-67564276D01*
X66586497Y-67564000D01*
X71401499Y-67564000D01*
X71410487Y-67564321D01*
G37*
%TD.AperFunction*%
%TD*%
%TA.AperFunction,Conductor*%
%TO.N,Net-(J11-Pad1)*%
G36*
X97826487Y-68072321D02*
G01*
X97875871Y-68075853D01*
X98097650Y-68091715D01*
X98115433Y-68094272D01*
X98376658Y-68151098D01*
X98393900Y-68156160D01*
X98644393Y-68249589D01*
X98660740Y-68257055D01*
X98895375Y-68385176D01*
X98910498Y-68394895D01*
X99124510Y-68555103D01*
X99138096Y-68566876D01*
X99327124Y-68755904D01*
X99338897Y-68769490D01*
X99499105Y-68983502D01*
X99508824Y-68998625D01*
X99636945Y-69233260D01*
X99644411Y-69249607D01*
X99737839Y-69500097D01*
X99742902Y-69517342D01*
X99799728Y-69778567D01*
X99802286Y-69796355D01*
X99821679Y-70067513D01*
X99822000Y-70076501D01*
X99822000Y-73925505D01*
X99821691Y-73934319D01*
X99803045Y-74200219D01*
X99800585Y-74217674D01*
X99745934Y-74474047D01*
X99741062Y-74490988D01*
X99651168Y-74737223D01*
X99643980Y-74753318D01*
X99520594Y-74984612D01*
X99511232Y-74999540D01*
X99356780Y-75211339D01*
X99345424Y-75224820D01*
X99162927Y-75412991D01*
X99149799Y-75424756D01*
X98942824Y-75585618D01*
X98928183Y-75595435D01*
X98696954Y-75728033D01*
X98689155Y-75732150D01*
X95885000Y-77089000D01*
X91948000Y-78994000D01*
X91948000Y-129059499D01*
X91947679Y-129068487D01*
X91928286Y-129339645D01*
X91925728Y-129357433D01*
X91868903Y-129618654D01*
X91863840Y-129635900D01*
X91770411Y-129886393D01*
X91762945Y-129902740D01*
X91634824Y-130137375D01*
X91625105Y-130152498D01*
X91464897Y-130366510D01*
X91453124Y-130380096D01*
X91264096Y-130569124D01*
X91250510Y-130580897D01*
X91036498Y-130741105D01*
X91021375Y-130750824D01*
X90786740Y-130878945D01*
X90770393Y-130886411D01*
X90519900Y-130979840D01*
X90502658Y-130984902D01*
X90241433Y-131041728D01*
X90223650Y-131044285D01*
X90001871Y-131060147D01*
X89952487Y-131063679D01*
X89943499Y-131064000D01*
X83538501Y-131064000D01*
X83529513Y-131063679D01*
X83480129Y-131060147D01*
X83258350Y-131044285D01*
X83240567Y-131041728D01*
X82979342Y-130984902D01*
X82962100Y-130979840D01*
X82711607Y-130886411D01*
X82695260Y-130878945D01*
X82460625Y-130750824D01*
X82445502Y-130741105D01*
X82231490Y-130580897D01*
X82217904Y-130569124D01*
X82028876Y-130380096D01*
X82017103Y-130366510D01*
X81856895Y-130152498D01*
X81847176Y-130137375D01*
X81719055Y-129902740D01*
X81711589Y-129886393D01*
X81618160Y-129635900D01*
X81613097Y-129618654D01*
X81556272Y-129357433D01*
X81553714Y-129339645D01*
X81534321Y-129068487D01*
X81534000Y-129059499D01*
X81534000Y-104140000D01*
X74930000Y-99568000D01*
X68044501Y-99568000D01*
X68035513Y-99567679D01*
X67986129Y-99564147D01*
X67764350Y-99548285D01*
X67746567Y-99545728D01*
X67485342Y-99488902D01*
X67468100Y-99483840D01*
X67217607Y-99390411D01*
X67201260Y-99382945D01*
X66966625Y-99254824D01*
X66951502Y-99245105D01*
X66737490Y-99084897D01*
X66723904Y-99073124D01*
X66534876Y-98884096D01*
X66523103Y-98870510D01*
X66362895Y-98656498D01*
X66353176Y-98641375D01*
X66225055Y-98406740D01*
X66217589Y-98390393D01*
X66124160Y-98139900D01*
X66119097Y-98122654D01*
X66062272Y-97861433D01*
X66059714Y-97843645D01*
X66040321Y-97572487D01*
X66040000Y-97563499D01*
X66040000Y-94206501D01*
X66040321Y-94197513D01*
X66059714Y-93926355D01*
X66062272Y-93908567D01*
X66119098Y-93647342D01*
X66124161Y-93630097D01*
X66217589Y-93379607D01*
X66225055Y-93363260D01*
X66353176Y-93128625D01*
X66362895Y-93113502D01*
X66523103Y-92899490D01*
X66534876Y-92885904D01*
X66723904Y-92696876D01*
X66737490Y-92685103D01*
X66951502Y-92524895D01*
X66966625Y-92515176D01*
X67201260Y-92387055D01*
X67217607Y-92379589D01*
X67468100Y-92286160D01*
X67485342Y-92281098D01*
X67746567Y-92224272D01*
X67764350Y-92221715D01*
X67986129Y-92205853D01*
X68035513Y-92202321D01*
X68044501Y-92202000D01*
X74422000Y-92202000D01*
X82042000Y-84582000D01*
X82042000Y-75319418D01*
X82042348Y-75310056D01*
X82048699Y-75224820D01*
X82063387Y-75027691D01*
X82066161Y-75009179D01*
X82127771Y-74737640D01*
X82133258Y-74719744D01*
X82234429Y-74460334D01*
X82242510Y-74443443D01*
X82381008Y-74201889D01*
X82391497Y-74186392D01*
X82564262Y-73968032D01*
X82576938Y-73954252D01*
X82780155Y-73763905D01*
X82794735Y-73752155D01*
X83027781Y-73591362D01*
X83035684Y-73586332D01*
X89031644Y-70076501D01*
X91984378Y-68348071D01*
X91991706Y-68344102D01*
X92217189Y-68231433D01*
X92232561Y-68224984D01*
X92233092Y-68224801D01*
X92467014Y-68144419D01*
X92483089Y-68140060D01*
X92604602Y-68115606D01*
X92726111Y-68091152D01*
X92742635Y-68088951D01*
X92994162Y-68072276D01*
X93002497Y-68072000D01*
X97817499Y-68072000D01*
X97826487Y-68072321D01*
G37*
%TD.AperFunction*%
%TD*%
%TA.AperFunction,Conductor*%
%TO.N,Net-(J1-Pad1)*%
G36*
X212207234Y-91440315D02*
G01*
X212252512Y-91443521D01*
X212475739Y-91459330D01*
X212493351Y-91461836D01*
X212729181Y-91512618D01*
X212752147Y-91517563D01*
X212769241Y-91522531D01*
X213017574Y-91614163D01*
X213033798Y-91621489D01*
X213266760Y-91747215D01*
X213281786Y-91756754D01*
X213494699Y-91914050D01*
X213508225Y-91925605D01*
X213517641Y-91934876D01*
X213700030Y-92114472D01*
X213706151Y-92120941D01*
X214625770Y-93164355D01*
X225811417Y-105855761D01*
X225817172Y-105862787D01*
X225983664Y-106081717D01*
X225993601Y-106096952D01*
X226124628Y-106333584D01*
X226132267Y-106350091D01*
X226227855Y-106603115D01*
X226233038Y-106620550D01*
X226291200Y-106884700D01*
X226293819Y-106902699D01*
X226313671Y-107177021D01*
X226314000Y-107186116D01*
X226314000Y-129059499D01*
X226313679Y-129068487D01*
X226294286Y-129339645D01*
X226291728Y-129357433D01*
X226234903Y-129618654D01*
X226229840Y-129635900D01*
X226136411Y-129886393D01*
X226128945Y-129902740D01*
X226000824Y-130137375D01*
X225991105Y-130152498D01*
X225830897Y-130366510D01*
X225819124Y-130380096D01*
X225630096Y-130569124D01*
X225616510Y-130580897D01*
X225402498Y-130741105D01*
X225387375Y-130750824D01*
X225152740Y-130878945D01*
X225136393Y-130886411D01*
X224885900Y-130979840D01*
X224868658Y-130984902D01*
X224607433Y-131041728D01*
X224589650Y-131044285D01*
X224367871Y-131060147D01*
X224318487Y-131063679D01*
X224309499Y-131064000D01*
X216888501Y-131064000D01*
X216879513Y-131063679D01*
X216830129Y-131060147D01*
X216608350Y-131044285D01*
X216590567Y-131041728D01*
X216329342Y-130984902D01*
X216312100Y-130979840D01*
X216061607Y-130886411D01*
X216045260Y-130878945D01*
X215810625Y-130750824D01*
X215795502Y-130741105D01*
X215581490Y-130580897D01*
X215567904Y-130569124D01*
X215378876Y-130380096D01*
X215367103Y-130366510D01*
X215206895Y-130152498D01*
X215197176Y-130137375D01*
X215069055Y-129902740D01*
X215061589Y-129886393D01*
X214968160Y-129635900D01*
X214963097Y-129618654D01*
X214906272Y-129357433D01*
X214903714Y-129339645D01*
X214884321Y-129068487D01*
X214884000Y-129059499D01*
X214884000Y-107696000D01*
X201069823Y-101374258D01*
X201061816Y-101370242D01*
X200823470Y-101239869D01*
X200808366Y-101230147D01*
X200594602Y-101069914D01*
X200581032Y-101058142D01*
X200392227Y-100869135D01*
X200380469Y-100855552D01*
X200220462Y-100641612D01*
X200210763Y-100626507D01*
X200082803Y-100391976D01*
X200075347Y-100375637D01*
X199982049Y-100125308D01*
X199976991Y-100108069D01*
X199920242Y-99847016D01*
X199917687Y-99829233D01*
X199898321Y-99558270D01*
X199898000Y-99549288D01*
X199898000Y-93444501D01*
X199898321Y-93435513D01*
X199917714Y-93164355D01*
X199920272Y-93146567D01*
X199977098Y-92885342D01*
X199982161Y-92868097D01*
X200075589Y-92617607D01*
X200083055Y-92601260D01*
X200211176Y-92366625D01*
X200220895Y-92351502D01*
X200381103Y-92137490D01*
X200392876Y-92123904D01*
X200581904Y-91934876D01*
X200595490Y-91923103D01*
X200809502Y-91762895D01*
X200824625Y-91753176D01*
X201059260Y-91625055D01*
X201075607Y-91617589D01*
X201326100Y-91524160D01*
X201343342Y-91519098D01*
X201604567Y-91462272D01*
X201622350Y-91459715D01*
X201844129Y-91443853D01*
X201893513Y-91440321D01*
X201902501Y-91440000D01*
X212198334Y-91440000D01*
X212207234Y-91440315D01*
G37*
%TD.AperFunction*%
%TD*%
M02*
